<?xml version="1.0" encoding="utf-8"?>
<!-- Generator: Adobe Illustrator 16.0.0, SVG Export Plug-In . SVG Version: 6.00 Build 0)  -->
<!DOCTYPE svg PUBLIC "-//W3C//DTD SVG 1.1//EN" "http://www.w3.org/Graphics/SVG/1.1/DTD/svg11.dtd">
<svg version="1.1" id="Layer_1" xmlns="http://www.w3.org/2000/svg" xmlns:xlink="http://www.w3.org/1999/xlink" x="0px" y="0px"
	 width="145px" height="100px" viewBox="0 0 145 100" enable-background="new 0 0 145 100" xml:space="preserve">
<g id="Layer_9">
	<path fill="#DADAFF" d="M103.827,22.182c0,0,0,4,0,8c0,12-12,12-12,12h-24v-4h-8v28h8v-4h32c11.046,0,24-8,24-24v-4c0-12,0-12,0-12
		H103.827z"/>
</g>
<g id="Layer_8">
	<rect x="57.827" y="35.182" fill="none" stroke="#5E60FF" stroke-width="2" stroke-miterlimit="10" width="8" height="28"/>
	<path fill="none" stroke="#5E60FF" stroke-width="2" stroke-miterlimit="10" d="M101.827,19.182c0,0,0,4,0,8c0,12-12,12-12,12l0,0
		h-24v20h32c11.046,0,24-8,24-24v-4c0-12,0-12,0-12"/>
	<path fill="none" stroke="#5E60FF" stroke-width="2" stroke-miterlimit="10" d="M57.827,47.182c0,0-36-4-36,32c0,0,0-4,0,0"/>
	<path fill="none" stroke="#5E60FF" stroke-width="2" stroke-miterlimit="10" d="M57.827,58.293c0,0-12,0-12,12
		c0,3.182,0,7.557,0,8.889"/>
	<line fill="none" stroke="#5E60FF" stroke-width="3" stroke-miterlimit="10" x1="39.827" y1="74.182" x2="39.827" y2="70.182"/>
	<path fill="none" stroke="#5E60FF" stroke-width="3" stroke-miterlimit="10" d="M34.462,66.016
		c0.167-1.832,3.334-5.666,3.334-5.666"/>
	<circle fill="none" stroke="#5E60FF" stroke-miterlimit="10" cx="30.659" cy="75.349" r="1.167"/>
	<circle fill="#FFFFFF" stroke="#5E60FF" stroke-miterlimit="10" cx="28.91" cy="70.599" r="0.583"/>
	<circle fill="none" stroke="#5E60FF" stroke-miterlimit="10" cx="40.827" cy="66.016" r="1"/>
	<circle fill="none" stroke="#5E60FF" stroke-miterlimit="10" cx="46.827" cy="55.016" r="1"/>
	<circle fill="none" stroke="#5E60FF" stroke-miterlimit="10" cx="55.744" cy="52.599" r="1.417"/>
	<path fill="none" stroke="#5E60FF" stroke-width="2" stroke-linecap="round" stroke-miterlimit="10" stroke-dasharray="4,8" d="
		M93.827,43.182c0,0,12,0,12-16"/>
</g>
</svg>
