<?xml version="1.0" encoding="utf-8"?>
<!-- Generator: Adobe Illustrator 16.0.0, SVG Export Plug-In . SVG Version: 6.00 Build 0)  -->
<!DOCTYPE svg PUBLIC "-//W3C//DTD SVG 1.1//EN" "http://www.w3.org/Graphics/SVG/1.1/DTD/svg11.dtd">
<svg version="1.1" id="Layer_1" xmlns="http://www.w3.org/2000/svg" xmlns:xlink="http://www.w3.org/1999/xlink" x="0px" y="0px"
	 width="236.416px" height="55.629px" viewBox="10.749 0 236.416 55.629" enable-background="new 10.749 0 236.416 55.629"
	 xml:space="preserve">
<g>
	<g>
		<rect id="XMLID_533_" x="166.621" y="1.586" fill="#003399" width="78.685" height="52.457"/>
		<polygon id="XMLID_532_" fill="#FFCC00" points="204.283,13.019 205.949,11.806 207.608,13.019 206.973,11.06 208.663,9.849 
			206.583,9.849 205.949,7.865 205.313,9.849 203.227,9.849 204.913,11.06 		"/>
		<polygon id="XMLID_531_" fill="#FFCC00" points="195.692,15.324 197.356,14.112 199.012,15.324 198.381,13.366 200.07,12.154 
			197.989,12.154 197.35,10.166 196.715,12.158 194.641,12.154 196.325,13.366 		"/>
		<polygon id="XMLID_530_" fill="#FFCC00" points="191.063,16.47 190.43,18.459 188.348,18.455 190.035,19.668 189.403,21.627 
			191.063,20.419 192.727,21.627 192.096,19.668 193.782,18.455 191.703,18.455 		"/>
		<polygon id="XMLID_529_" fill="#FFCC00" points="188.762,28.989 190.416,30.209 189.788,28.248 191.475,27.036 189.397,27.036 
			188.762,25.051 188.117,27.042 186.042,27.036 187.729,28.248 187.098,30.209 		"/>
		<polygon id="XMLID_528_" fill="#FFCC00" points="191.703,35.641 191.061,33.659 190.43,35.641 188.348,35.641 190.034,36.859 
			189.403,38.814 191.061,37.6 192.725,38.814 192.094,36.859 193.781,35.641 		"/>
		<polygon id="XMLID_527_" fill="#FFCC00" points="197.999,41.941 197.366,39.959 196.725,41.945 194.643,41.941 196.334,43.154 
			195.705,45.113 197.366,43.898 199.027,45.113 198.395,43.154 200.083,41.941 		"/>
		<polygon id="XMLID_526_" fill="#FFCC00" points="206.582,44.225 205.949,42.236 205.311,44.225 203.227,44.225 204.918,45.434 
			204.282,47.396 205.949,46.182 207.611,47.396 206.973,45.434 208.666,44.225 		"/>
		<polygon id="XMLID_525_" fill="#FFCC00" points="215.167,41.941 214.527,39.959 213.887,41.945 211.815,41.941 213.498,43.154 
			212.867,45.113 214.527,43.898 216.188,45.113 215.557,43.154 217.25,41.941 		"/>
		<polygon id="XMLID_524_" fill="#FFCC00" points="221.467,35.641 220.827,33.659 220.192,35.641 218.117,35.641 219.801,36.859 
			219.162,38.814 220.827,37.6 222.491,38.814 221.854,36.859 223.545,35.641 		"/>
		<polygon id="XMLID_523_" fill="#FFCC00" points="225.823,27.014 223.745,27.014 223.111,25.025 222.469,27.014 220.397,27.014 
			222.083,28.227 221.442,30.182 223.111,28.971 224.772,30.182 224.137,28.227 		"/>
		<polygon id="XMLID_521_" fill="#FFCC00" points="219.162,21.596 220.827,20.39 222.493,21.596 221.854,19.638 223.545,18.432 
			221.469,18.432 220.827,16.44 220.194,18.437 218.118,18.432 219.801,19.638 		"/>
		<polygon id="XMLID_517_" fill="#FFCC00" points="214.551,10.166 213.921,12.159 211.834,12.154 213.526,13.366 212.895,15.329 
			214.561,14.111 216.215,15.329 215.587,13.366 217.268,12.154 215.19,12.154 		"/>
	</g>
	<g>
		<g>
			<path d="M43.148,35.732v-8.657h5.284v1.038h-4.072v2.572h3.623v1.013h-3.623v2.997h4.385v1.039h-5.597V35.732z"/>
			<path d="M55.079,35.409c-0.267,0.067-0.619,0.138-1.056,0.211s-0.943,0.11-1.517,0.11c-0.5,0-0.92-0.074-1.262-0.217
				c-0.342-0.146-0.616-0.354-0.825-0.619c-0.208-0.27-0.357-0.58-0.45-0.944c-0.092-0.362-0.138-0.763-0.138-1.205V29.1h1.163
				v3.396c0,0.791,0.125,1.356,0.375,1.698c0.25,0.341,0.67,0.514,1.262,0.514c0.125,0,0.253-0.005,0.387-0.016
				c0.134-0.006,0.259-0.019,0.375-0.029c0.116-0.012,0.223-0.023,0.318-0.038c0.096-0.013,0.165-0.026,0.206-0.043v-5.483h1.162
				V35.409L55.079,35.409z"/>
			<path d="M59.414,29.098c0.1,0,0.214,0.008,0.343,0.02c0.129,0.013,0.257,0.027,0.382,0.048s0.239,0.045,0.342,0.063
				c0.105,0.021,0.181,0.041,0.231,0.058l-0.2,1.012c-0.092-0.032-0.244-0.073-0.456-0.116c-0.213-0.049-0.486-0.07-0.818-0.07
				c-0.217,0-0.432,0.021-0.643,0.07c-0.212,0.045-0.353,0.074-0.418,0.092v5.459h-1.161v-6.219
				c0.274-0.101,0.616-0.193,1.024-0.283C58.449,29.143,58.905,29.098,59.414,29.098z"/>
			<path d="M67.509,32.334c0,0.518-0.076,0.982-0.226,1.398c-0.15,0.418-0.361,0.775-0.63,1.074
				c-0.271,0.301-0.595,0.529-0.968,0.693c-0.375,0.161-0.784,0.242-1.225,0.242c-0.441,0-0.85-0.081-1.225-0.242
				c-0.375-0.165-0.698-0.395-0.967-0.693c-0.271-0.299-0.482-0.656-0.631-1.074c-0.149-0.416-0.226-0.885-0.226-1.398
				c0-0.506,0.076-0.973,0.226-1.395c0.149-0.42,0.36-0.779,0.631-1.08c0.27-0.299,0.593-0.53,0.967-0.693
				c0.375-0.161,0.783-0.242,1.225-0.242c0.44,0,0.85,0.081,1.225,0.242c0.374,0.163,0.697,0.396,0.968,0.693
				c0.27,0.302,0.48,0.66,0.63,1.08C67.433,31.361,67.509,31.828,67.509,32.334z M66.295,32.334c0-0.732-0.164-1.313-0.493-1.74
				c-0.329-0.432-0.777-0.646-1.342-0.646c-0.567,0-1.014,0.214-1.343,0.646c-0.33,0.428-0.494,1.008-0.494,1.74
				s0.164,1.314,0.494,1.743c0.329,0.431,0.776,0.644,1.343,0.644c0.565,0,1.014-0.213,1.342-0.644
				C66.132,33.648,66.295,33.068,66.295,32.334z"/>
			<path d="M74.804,32.497c0,0.492-0.064,0.944-0.193,1.36c-0.129,0.418-0.318,0.775-0.568,1.074
				c-0.25,0.301-0.556,0.532-0.919,0.701c-0.362,0.166-0.776,0.248-1.243,0.248c-0.375,0-0.706-0.049-0.993-0.148
				s-0.501-0.195-0.643-0.287v2.6h-1.162v-8.607c0.274-0.064,0.618-0.141,1.03-0.219c0.411-0.078,0.889-0.117,1.43-0.117
				c0.5,0,0.95,0.078,1.35,0.238c0.399,0.157,0.741,0.383,1.024,0.674c0.283,0.291,0.502,0.648,0.655,1.067
				C74.727,31.501,74.804,31.973,74.804,32.497z M73.592,32.497c0-0.759-0.187-1.342-0.562-1.75c-0.375-0.405-0.875-0.614-1.5-0.614
				c-0.35,0-0.623,0.016-0.818,0.04c-0.196,0.022-0.353,0.054-0.468,0.087v4.098c0.142,0.117,0.346,0.229,0.612,0.336
				c0.266,0.107,0.558,0.162,0.874,0.162c0.333,0,0.619-0.058,0.856-0.18c0.238-0.119,0.432-0.287,0.581-0.5
				c0.15-0.211,0.259-0.462,0.325-0.748C73.559,33.139,73.592,32.829,73.592,32.497z"/>
			<path d="M76.016,32.346c0-0.572,0.084-1.074,0.25-1.505c0.167-0.429,0.388-0.786,0.662-1.069
				c0.274-0.282,0.591-0.494,0.949-0.637c0.357-0.14,0.724-0.212,1.098-0.212c0.876,0,1.546,0.272,2.012,0.819
				c0.466,0.546,0.699,1.376,0.699,2.49c0,0.05,0,0.113,0,0.193c0,0.079-0.004,0.151-0.011,0.219h-4.448
				c0.05,0.674,0.245,1.187,0.587,1.537c0.341,0.35,0.874,0.524,1.598,0.524c0.408,0,0.752-0.036,1.031-0.104
				c0.278-0.074,0.489-0.143,0.631-0.207l0.162,0.975c-0.142,0.074-0.39,0.154-0.743,0.236c-0.354,0.084-0.756,0.125-1.206,0.125
				c-0.566,0-1.056-0.084-1.468-0.254c-0.411-0.174-0.751-0.406-1.018-0.709c-0.267-0.299-0.464-0.654-0.593-1.067
				C76.08,33.292,76.016,32.84,76.016,32.346z M80.476,31.709c0.008-0.523-0.124-0.954-0.394-1.292
				c-0.271-0.337-0.643-0.505-1.118-0.505c-0.268,0-0.502,0.051-0.707,0.154c-0.205,0.104-0.377,0.24-0.519,0.404
				c-0.142,0.17-0.251,0.359-0.331,0.575c-0.079,0.216-0.13,0.438-0.155,0.66L80.476,31.709L80.476,31.709z"/>
			<path d="M82.237,38.068c-0.1,0-0.229-0.014-0.387-0.038s-0.291-0.058-0.4-0.101l0.149-0.947c0.083,0.023,0.179,0.045,0.287,0.063
				c0.108,0.016,0.208,0.023,0.299,0.023c0.401,0,0.686-0.123,0.856-0.368s0.256-0.604,0.256-1.08v-6.384h1.162v6.371
				c0,0.834-0.19,1.453-0.568,1.855C83.513,37.866,82.959,38.068,82.237,38.068z M83.873,28.061c-0.208,0-0.386-0.068-0.531-0.207
				c-0.146-0.138-0.218-0.321-0.218-0.555c0-0.232,0.072-0.419,0.218-0.556c0.146-0.138,0.322-0.208,0.531-0.208
				s0.386,0.07,0.531,0.208c0.145,0.137,0.219,0.321,0.219,0.556c0,0.232-0.074,0.417-0.219,0.555
				C84.259,27.992,84.082,28.061,83.873,28.061z"/>
			<path d="M87.909,34.745c0.474,0,0.826-0.063,1.055-0.188c0.229-0.123,0.344-0.324,0.344-0.601c0-0.282-0.113-0.506-0.338-0.675
				c-0.224-0.165-0.595-0.354-1.111-0.561c-0.25-0.102-0.49-0.201-0.719-0.307c-0.229-0.104-0.426-0.229-0.594-0.37
				c-0.166-0.142-0.3-0.312-0.399-0.511c-0.101-0.201-0.15-0.446-0.15-0.737c0-0.575,0.212-1.03,0.637-1.366
				c0.424-0.34,1.004-0.508,1.736-0.508c0.184,0,0.367,0.012,0.55,0.033c0.183,0.02,0.354,0.045,0.512,0.075
				c0.158,0.028,0.298,0.058,0.418,0.093c0.121,0.034,0.215,0.063,0.282,0.088l-0.212,0.999c-0.125-0.065-0.32-0.137-0.587-0.209
				c-0.267-0.069-0.588-0.104-0.963-0.104c-0.323,0-0.608,0.064-0.85,0.193c-0.241,0.129-0.361,0.331-0.361,0.605
				c0,0.144,0.027,0.268,0.081,0.375c0.053,0.109,0.137,0.205,0.249,0.293c0.111,0.087,0.252,0.17,0.418,0.242
				c0.167,0.076,0.367,0.154,0.599,0.238c0.308,0.115,0.583,0.231,0.825,0.342c0.241,0.113,0.447,0.244,0.617,0.396
				c0.172,0.148,0.303,0.332,0.395,0.543c0.091,0.211,0.137,0.473,0.137,0.781c0,0.601-0.223,1.054-0.669,1.361
				c-0.445,0.309-1.079,0.463-1.904,0.463c-0.575,0-1.024-0.047-1.349-0.146c-0.326-0.094-0.546-0.167-0.663-0.218l0.212-1
				c0.133,0.051,0.346,0.124,0.637,0.227C87.038,34.693,87.426,34.745,87.909,34.745z"/>
			<path d="M94.254,32.161c0.25,0.188,0.513,0.429,0.793,0.712c0.279,0.279,0.553,0.588,0.824,0.917
				c0.271,0.328,0.527,0.66,0.768,0.999c0.242,0.338,0.446,0.652,0.613,0.943h-1.362c-0.176-0.291-0.377-0.592-0.606-0.894
				c-0.229-0.306-0.468-0.596-0.718-0.875c-0.25-0.278-0.502-0.534-0.762-0.767c-0.257-0.233-0.503-0.432-0.737-0.588v3.121h-1.162
				v-9.494l1.162-0.199v5.921c0.201-0.198,0.42-0.42,0.662-0.659c0.241-0.242,0.479-0.488,0.712-0.738
				c0.234-0.25,0.454-0.488,0.662-0.721c0.207-0.229,0.387-0.43,0.537-0.604h1.362c-0.192,0.209-0.401,0.436-0.625,0.688
				c-0.224,0.25-0.458,0.502-0.699,0.756c-0.242,0.252-0.486,0.506-0.731,0.76C94.702,31.695,94.472,31.934,94.254,32.161z"/>
			<path d="M98.938,28.061c-0.208,0-0.385-0.068-0.531-0.207c-0.146-0.138-0.218-0.321-0.218-0.555c0-0.232,0.072-0.419,0.218-0.556
				c0.146-0.138,0.322-0.208,0.531-0.208s0.386,0.07,0.532,0.208c0.144,0.137,0.218,0.321,0.218,0.556
				c0,0.232-0.074,0.417-0.218,0.555C99.325,27.992,99.146,28.061,98.938,28.061z M99.525,35.732h-1.161v-6.496h1.161V35.732z"/>
			<path d="M104.358,35.732v-8.657h5.224v1.038h-4.009v2.609h3.559v1.023h-3.559v3.984h-1.215V35.732z"/>
			<path d="M115.791,35.409c-0.267,0.067-0.619,0.138-1.055,0.211c-0.437,0.073-0.943,0.11-1.519,0.11
				c-0.498,0-0.92-0.074-1.262-0.217c-0.342-0.146-0.617-0.354-0.824-0.619c-0.209-0.27-0.359-0.58-0.449-0.944
				c-0.092-0.362-0.139-0.763-0.139-1.205V29.1h1.162v3.396c0,0.791,0.125,1.356,0.374,1.698c0.249,0.341,0.67,0.514,1.261,0.514
				c0.125,0,0.256-0.005,0.389-0.016c0.133-0.006,0.258-0.019,0.375-0.029c0.117-0.012,0.222-0.023,0.317-0.038
				c0.097-0.013,0.165-0.026,0.207-0.043v-5.483h1.161L115.791,35.409L115.791,35.409z"/>
			<path d="M117.727,29.423c0.267-0.065,0.621-0.136,1.063-0.21c0.441-0.076,0.949-0.113,1.523-0.113
				c0.516,0,0.945,0.074,1.287,0.221s0.615,0.348,0.818,0.611c0.205,0.264,0.348,0.574,0.432,0.942
				c0.082,0.366,0.125,0.771,0.125,1.211v3.647h-1.162v-3.397c0-0.399-0.027-0.739-0.082-1.024
				c-0.053-0.283-0.144-0.512-0.269-0.688c-0.125-0.174-0.292-0.303-0.5-0.382c-0.208-0.078-0.467-0.116-0.774-0.116
				c-0.125,0-0.254,0.003-0.387,0.012c-0.135,0.01-0.261,0.021-0.381,0.031c-0.121,0.014-0.23,0.027-0.326,0.045
				c-0.096,0.016-0.164,0.028-0.207,0.037v5.482h-1.162L117.727,29.423L117.727,29.423z"/>
			<path d="M129.031,26.088l1.164-0.199v9.506c-0.269,0.076-0.608,0.148-1.026,0.226c-0.415,0.073-0.895,0.11-1.438,0.11
				c-0.498,0-0.947-0.078-1.348-0.236c-0.4-0.159-0.742-0.385-1.025-0.678c-0.283-0.289-0.502-0.646-0.655-1.066
				c-0.153-0.42-0.231-0.893-0.231-1.419c0-0.498,0.064-0.955,0.194-1.374c0.128-0.416,0.317-0.775,0.567-1.074
				c0.248-0.3,0.556-0.531,0.918-0.699c0.363-0.166,0.777-0.248,1.242-0.248c0.375,0,0.707,0.049,0.994,0.149
				c0.287,0.099,0.502,0.194,0.644,0.287V26.088L129.031,26.088z M129.031,30.462c-0.142-0.116-0.345-0.229-0.611-0.338
				c-0.268-0.108-0.559-0.163-0.875-0.163c-0.333,0-0.618,0.059-0.856,0.182c-0.237,0.119-0.43,0.287-0.582,0.498
				c-0.148,0.211-0.256,0.465-0.322,0.756c-0.068,0.291-0.102,0.604-0.102,0.936c0,0.758,0.188,1.344,0.563,1.755
				c0.374,0.412,0.875,0.62,1.5,0.62c0.315,0,0.58-0.016,0.792-0.045c0.211-0.027,0.377-0.061,0.494-0.094L129.031,30.462
				L129.031,30.462z"/>
			<path d="M137.303,35.409c-0.269,0.067-0.619,0.138-1.056,0.211s-0.942,0.11-1.521,0.11c-0.498,0-0.918-0.074-1.262-0.217
				c-0.34-0.146-0.617-0.354-0.824-0.619c-0.209-0.27-0.356-0.58-0.449-0.944c-0.092-0.362-0.139-0.763-0.139-1.205V29.1h1.164
				v3.396c0,0.791,0.125,1.356,0.375,1.698c0.246,0.341,0.67,0.514,1.26,0.514c0.125,0,0.254-0.005,0.39-0.016
				c0.133-0.006,0.258-0.019,0.373-0.029c0.116-0.012,0.222-0.023,0.319-0.038c0.095-0.013,0.162-0.026,0.207-0.043v-5.483h1.162
				V35.409L137.303,35.409z"/>
			<path d="M140.751,34.745c0.474,0,0.826-0.063,1.056-0.188c0.229-0.123,0.344-0.324,0.344-0.601c0-0.282-0.113-0.506-0.338-0.675
				c-0.226-0.165-0.594-0.354-1.111-0.561c-0.249-0.102-0.489-0.201-0.719-0.307c-0.229-0.104-0.428-0.229-0.594-0.37
				c-0.168-0.142-0.302-0.312-0.402-0.511c-0.1-0.201-0.146-0.446-0.146-0.737c0-0.575,0.211-1.03,0.635-1.366
				c0.426-0.339,1.004-0.508,1.736-0.508c0.184,0,0.368,0.012,0.551,0.033c0.183,0.02,0.355,0.045,0.512,0.075
				c0.158,0.028,0.299,0.058,0.419,0.093c0.122,0.034,0.214,0.063,0.28,0.088l-0.211,0.999c-0.125-0.065-0.32-0.137-0.59-0.209
				c-0.265-0.069-0.586-0.104-0.961-0.104c-0.324,0-0.607,0.064-0.85,0.193c-0.243,0.129-0.363,0.331-0.363,0.605
				c0,0.144,0.027,0.268,0.08,0.375c0.055,0.109,0.141,0.205,0.25,0.293c0.111,0.087,0.251,0.17,0.419,0.242
				c0.169,0.076,0.367,0.154,0.601,0.238c0.306,0.115,0.582,0.231,0.822,0.342c0.24,0.112,0.448,0.244,0.619,0.396
				c0.17,0.148,0.301,0.332,0.395,0.543c0.092,0.211,0.14,0.473,0.14,0.781c0,0.601-0.224,1.054-0.668,1.361
				c-0.447,0.309-1.082,0.463-1.907,0.463c-0.572,0-1.023-0.047-1.35-0.146c-0.323-0.094-0.545-0.167-0.661-0.218l0.211-1
				c0.135,0.051,0.346,0.124,0.637,0.227C139.881,34.693,140.268,34.745,140.751,34.745z"/>
			<path d="M149.057,30.111c-0.176,0.191-0.408,0.463-0.692,0.813c-0.286,0.35-0.595,0.737-0.923,1.162
				c-0.33,0.424-0.658,0.87-0.988,1.336c-0.327,0.467-0.616,0.911-0.866,1.336h3.571v0.975h-4.96V34.96
				c0.2-0.369,0.444-0.771,0.737-1.211c0.291-0.442,0.597-0.883,0.918-1.319c0.32-0.438,0.631-0.852,0.937-1.236
				c0.306-0.387,0.569-0.715,0.792-0.979h-3.21v-0.976h4.687v0.873H149.057z"/>
			<path d="M26.683,47.415c0.133,0.168,0.302,0.388,0.505,0.658c0.205,0.271,0.415,0.571,0.631,0.899
				c0.217,0.328,0.431,0.672,0.643,1.03c0.212,0.358,0.394,0.702,0.543,1.037H27.68c-0.166-0.317-0.348-0.64-0.543-0.963
				c-0.195-0.323-0.394-0.636-0.593-0.931c-0.199-0.295-0.397-0.571-0.593-0.83c-0.196-0.26-0.374-0.482-0.531-0.676
				c-0.109,0.012-0.219,0.014-0.332,0.014c-0.113,0-0.227,0-0.344,0h-1.086v3.388h-1.212v-8.535c0.342-0.084,0.724-0.141,1.144-0.17
				c0.42-0.028,0.806-0.043,1.155-0.043c1.217,0,2.143,0.229,2.78,0.687c0.637,0.459,0.955,1.142,0.955,2.052
				c0,0.573-0.151,1.063-0.456,1.472C27.722,46.913,27.274,47.217,26.683,47.415z M24.847,43.355c-0.516,0-0.913,0.014-1.187,0.037
				v3.263h0.861c0.417,0,0.792-0.021,1.125-0.063c0.333-0.041,0.614-0.121,0.843-0.236c0.229-0.116,0.405-0.28,0.53-0.496
				c0.125-0.211,0.188-0.492,0.188-0.844c0-0.322-0.063-0.593-0.188-0.813c-0.126-0.215-0.293-0.389-0.506-0.514
				c-0.212-0.123-0.462-0.211-0.749-0.262C25.478,43.38,25.171,43.355,24.847,43.355z"/>
			<path d="M35.902,47.641c0,0.517-0.074,0.983-0.224,1.399c-0.151,0.416-0.36,0.774-0.631,1.074
				c-0.271,0.302-0.594,0.53-0.968,0.692c-0.375,0.164-0.783,0.241-1.225,0.241s-0.849-0.079-1.224-0.241
				c-0.374-0.162-0.698-0.394-0.968-0.692c-0.271-0.3-0.481-0.658-0.63-1.074c-0.151-0.416-0.225-0.885-0.225-1.399
				c0-0.506,0.074-0.972,0.225-1.393c0.149-0.421,0.359-0.781,0.63-1.081c0.271-0.298,0.594-0.53,0.968-0.69
				c0.375-0.164,0.782-0.246,1.224-0.246s0.85,0.082,1.225,0.246c0.375,0.16,0.697,0.395,0.968,0.69
				c0.271,0.302,0.481,0.66,0.631,1.081S35.902,47.135,35.902,47.641z M34.691,47.641c0-0.729-0.165-1.313-0.494-1.742
				s-0.776-0.645-1.343-0.645c-0.566,0-1.014,0.215-1.342,0.645c-0.33,0.43-0.494,1.013-0.494,1.742
				c0,0.733,0.165,1.313,0.494,1.742c0.328,0.43,0.776,0.646,1.342,0.646s1.015-0.217,1.343-0.646
				C34.525,48.955,34.691,48.375,34.691,47.641z"/>
			<path d="M41.537,45.418c-0.175,0.189-0.406,0.463-0.693,0.813c-0.288,0.35-0.595,0.735-0.925,1.162
				c-0.33,0.426-0.659,0.871-0.987,1.336c-0.33,0.467-0.619,0.912-0.868,1.336h3.573v0.976h-4.96v-0.774
				c0.2-0.363,0.446-0.77,0.738-1.211c0.291-0.44,0.598-0.882,0.917-1.316c0.32-0.438,0.633-0.852,0.938-1.237
				c0.304-0.388,0.569-0.715,0.794-0.981h-3.211v-0.977h4.686v0.875H41.537z"/>
			<path d="M48.356,51.039c-0.233-0.602-0.481-1.284-0.743-2.055c-0.262-0.771-0.501-1.571-0.718-2.405
				c-0.217,0.834-0.454,1.635-0.712,2.405s-0.504,1.453-0.737,2.055h-1.012c-0.383-0.855-0.758-1.836-1.125-2.936
				c-0.367-1.103-0.711-2.287-1.037-3.562h1.25c0.083,0.392,0.182,0.815,0.299,1.274c0.117,0.457,0.239,0.916,0.369,1.373
				c0.129,0.459,0.265,0.898,0.406,1.326c0.142,0.424,0.274,0.793,0.4,1.108c0.142-0.39,0.281-0.806,0.417-1.243
				c0.138-0.436,0.269-0.88,0.393-1.324c0.125-0.445,0.244-0.881,0.356-1.311c0.113-0.43,0.21-0.83,0.294-1.206h0.961
				c0.075,0.375,0.167,0.776,0.274,1.206c0.108,0.432,0.226,0.865,0.35,1.311c0.125,0.444,0.256,0.889,0.394,1.324
				c0.138,0.438,0.276,0.854,0.419,1.243c0.125-0.315,0.256-0.688,0.393-1.108c0.137-0.428,0.272-0.867,0.405-1.326
				c0.133-0.457,0.258-0.916,0.375-1.373c0.116-0.461,0.216-0.885,0.3-1.274h1.199c-0.325,1.274-0.671,2.459-1.037,3.562
				c-0.366,1.1-0.741,2.076-1.125,2.936H48.356z"/>
			<path d="M58.277,47.641c0,0.517-0.075,0.983-0.225,1.399s-0.36,0.774-0.631,1.074c-0.27,0.302-0.593,0.53-0.967,0.692
				c-0.375,0.164-0.784,0.241-1.225,0.241s-0.85-0.079-1.224-0.241c-0.374-0.162-0.697-0.394-0.968-0.692
				c-0.27-0.3-0.481-0.658-0.63-1.074s-0.225-0.885-0.225-1.399c0-0.506,0.076-0.972,0.225-1.393s0.36-0.781,0.63-1.081
				c0.271-0.298,0.594-0.53,0.968-0.69c0.375-0.164,0.783-0.246,1.224-0.246s0.85,0.082,1.225,0.246
				c0.375,0.16,0.698,0.395,0.967,0.69c0.272,0.302,0.482,0.66,0.631,1.081C58.202,46.67,58.277,47.135,58.277,47.641z
				 M57.063,47.641c0-0.729-0.164-1.313-0.493-1.742c-0.329-0.43-0.777-0.645-1.343-0.645c-0.565,0-1.014,0.215-1.342,0.645
				c-0.33,0.43-0.494,1.013-0.494,1.742c0,0.733,0.164,1.313,0.494,1.742c0.328,0.43,0.777,0.646,1.342,0.646
				c0.566,0,1.014-0.217,1.343-0.646C56.901,48.955,57.063,48.375,57.063,47.641z"/>
			<path d="M58.789,53.374c-0.099,0-0.229-0.013-0.387-0.037c-0.159-0.022-0.292-0.058-0.401-0.099l0.15-0.949
				c0.082,0.023,0.178,0.045,0.288,0.063c0.108,0.017,0.208,0.022,0.3,0.022c0.399,0,0.685-0.121,0.855-0.368
				c0.17-0.244,0.256-0.605,0.256-1.08v-6.383h1.162v6.371c0,0.832-0.189,1.452-0.568,1.855
				C60.064,53.176,59.514,53.374,58.789,53.374z M60.426,43.369c-0.208,0-0.385-0.068-0.53-0.205
				c-0.146-0.139-0.219-0.324-0.219-0.559c0-0.232,0.073-0.418,0.219-0.557s0.322-0.205,0.53-0.205s0.385,0.066,0.53,0.205
				c0.146,0.139,0.219,0.323,0.219,0.557s-0.073,0.42-0.219,0.559C60.811,43.301,60.634,43.369,60.426,43.369z"/>
			<path d="M68.121,50.714c-0.267,0.067-0.618,0.14-1.056,0.212c-0.438,0.075-0.943,0.112-1.518,0.112
				c-0.5,0-0.92-0.071-1.262-0.218c-0.342-0.145-0.617-0.352-0.825-0.618s-0.358-0.582-0.449-0.946
				c-0.092-0.359-0.138-0.762-0.138-1.203v-3.646h1.162v3.396c0,0.791,0.125,1.358,0.375,1.698c0.25,0.343,0.67,0.513,1.261,0.513
				c0.125,0,0.254-0.006,0.387-0.014c0.134-0.01,0.259-0.02,0.375-0.029c0.116-0.017,0.222-0.027,0.318-0.039
				c0.097-0.014,0.165-0.027,0.207-0.047v-5.479h1.162L68.121,50.714L68.121,50.714z"/>
			<path d="M77.189,47.415c0.133,0.168,0.302,0.388,0.505,0.658c0.205,0.271,0.415,0.571,0.631,0.899s0.431,0.672,0.643,1.03
				c0.211,0.358,0.393,0.702,0.543,1.037h-1.324c-0.166-0.317-0.347-0.64-0.543-0.963c-0.195-0.323-0.394-0.636-0.594-0.931
				c-0.199-0.295-0.397-0.571-0.593-0.83c-0.196-0.26-0.375-0.482-0.531-0.676c-0.108,0.012-0.219,0.014-0.332,0.014
				c-0.112,0-0.227,0-0.343,0h-1.086v3.388h-1.212v-8.535c0.341-0.084,0.723-0.141,1.144-0.17c0.42-0.028,0.805-0.043,1.156-0.043
				c1.215,0,2.143,0.229,2.78,0.687c0.636,0.459,0.955,1.142,0.955,2.052c0,0.573-0.151,1.063-0.455,1.472
				C78.229,46.913,77.781,47.217,77.189,47.415z M75.353,43.355c-0.516,0-0.913,0.014-1.187,0.037v3.263h0.862
				c0.417,0,0.792-0.021,1.125-0.063c0.333-0.041,0.614-0.121,0.843-0.236c0.229-0.117,0.405-0.28,0.53-0.496
				c0.125-0.211,0.188-0.492,0.188-0.844c0-0.322-0.063-0.593-0.188-0.813c-0.125-0.215-0.292-0.389-0.505-0.514
				c-0.213-0.123-0.463-0.211-0.75-0.262C75.983,43.38,75.678,43.355,75.353,43.355z"/>
			<path d="M80.313,47.655c0-0.575,0.083-1.077,0.25-1.507s0.387-0.787,0.662-1.066c0.274-0.283,0.592-0.495,0.95-0.639
				c0.358-0.143,0.724-0.213,1.099-0.213c0.875,0,1.544,0.274,2.011,0.82c0.465,0.547,0.699,1.377,0.699,2.49
				c0,0.05,0,0.115,0,0.193c0,0.082-0.004,0.152-0.012,0.22h-4.448c0.05,0.675,0.245,1.187,0.588,1.536
				c0.34,0.35,0.874,0.523,1.598,0.523c0.409,0,0.752-0.033,1.031-0.104c0.279-0.071,0.489-0.14,0.631-0.206l0.162,0.975
				c-0.142,0.075-0.389,0.152-0.743,0.237c-0.354,0.083-0.755,0.125-1.205,0.125c-0.567,0-1.055-0.085-1.468-0.257
				c-0.413-0.17-0.752-0.402-1.018-0.706c-0.266-0.3-0.464-0.656-0.593-1.069C80.376,48.596,80.313,48.146,80.313,47.655z
				 M84.771,47.018c0.009-0.525-0.122-0.957-0.393-1.295c-0.27-0.338-0.643-0.506-1.119-0.506c-0.266,0-0.501,0.053-0.706,0.156
				c-0.204,0.104-0.377,0.24-0.518,0.404c-0.142,0.166-0.252,0.359-0.332,0.574c-0.08,0.217-0.131,0.437-0.155,0.662h3.223V47.018z"
				/>
			<path d="M91.668,50.389c-0.101,0.065-0.294,0.153-0.582,0.256c-0.288,0.104-0.623,0.158-1.005,0.158
				c-0.392,0-0.76-0.063-1.106-0.188c-0.346-0.124-0.648-0.318-0.906-0.58c-0.258-0.263-0.462-0.591-0.613-0.979
				c-0.149-0.392-0.225-0.857-0.225-1.398c0-0.475,0.071-0.91,0.212-1.305c0.141-0.396,0.347-0.738,0.619-1.025
				c0.27-0.286,0.6-0.512,0.993-0.674c0.391-0.162,0.833-0.242,1.325-0.242c0.541,0,1.012,0.038,1.418,0.117
				c0.403,0.078,0.743,0.15,1.018,0.22v5.797c0,1-0.258,1.722-0.775,2.173c-0.515,0.447-1.299,0.674-2.349,0.674
				c-0.408,0-0.792-0.033-1.154-0.101c-0.363-0.065-0.677-0.146-0.943-0.237l0.211-1.013c0.234,0.09,0.518,0.173,0.856,0.243
				s0.689,0.105,1.056,0.105c0.69,0,1.188-0.138,1.493-0.412c0.305-0.272,0.456-0.713,0.456-1.311v-0.275L91.668,50.389
				L91.668,50.389z M91.657,45.568c-0.117-0.034-0.273-0.066-0.468-0.094c-0.196-0.031-0.46-0.045-0.793-0.045
				c-0.625,0-1.105,0.205-1.443,0.61c-0.337,0.408-0.505,0.949-0.505,1.624c0,0.375,0.047,0.695,0.143,0.962
				c0.096,0.269,0.225,0.485,0.387,0.661c0.163,0.176,0.35,0.307,0.563,0.387c0.212,0.083,0.431,0.125,0.655,0.125
				c0.308,0,0.591-0.044,0.85-0.132c0.257-0.087,0.463-0.188,0.612-0.304L91.657,45.568L91.657,45.568L91.657,45.568z"/>
			<path d="M95.329,43.369c-0.208,0-0.385-0.068-0.53-0.205c-0.146-0.139-0.219-0.324-0.219-0.559c0-0.232,0.074-0.418,0.219-0.557
				s0.323-0.205,0.53-0.205s0.385,0.066,0.53,0.205c0.146,0.139,0.22,0.323,0.22,0.557s-0.074,0.42-0.22,0.559
				C95.713,43.301,95.536,43.369,95.329,43.369z M95.916,51.039h-1.162v-6.496h1.162V51.039z"/>
			<path d="M103.586,47.641c0,0.517-0.076,0.983-0.226,1.399s-0.361,0.774-0.631,1.074c-0.271,0.302-0.593,0.53-0.968,0.692
				c-0.375,0.164-0.783,0.241-1.225,0.241c-0.44,0-0.849-0.079-1.224-0.241s-0.697-0.394-0.969-0.692
				c-0.27-0.3-0.48-0.658-0.63-1.074c-0.148-0.416-0.225-0.885-0.225-1.399c0-0.506,0.076-0.972,0.225-1.393
				c0.15-0.421,0.361-0.781,0.63-1.081c0.272-0.299,0.594-0.53,0.969-0.69c0.375-0.164,0.784-0.246,1.224-0.246
				c0.442,0,0.85,0.082,1.225,0.246c0.375,0.16,0.697,0.395,0.968,0.69c0.271,0.302,0.481,0.66,0.631,1.081
				C103.512,46.67,103.586,47.135,103.586,47.641z M102.374,47.641c0-0.729-0.164-1.313-0.493-1.742
				c-0.329-0.43-0.776-0.645-1.343-0.645c-0.565,0-1.013,0.215-1.343,0.645c-0.329,0.43-0.493,1.013-0.493,1.742
				c0,0.733,0.164,1.313,0.493,1.742c0.33,0.43,0.778,0.646,1.343,0.646c0.567,0,1.014-0.217,1.343-0.646
				C102.209,48.955,102.374,48.375,102.374,47.641z"/>
			<path d="M105.16,44.73c0.267-0.064,0.621-0.137,1.062-0.211c0.442-0.076,0.949-0.112,1.525-0.112
				c0.516,0,0.945,0.073,1.287,0.217c0.341,0.146,0.613,0.351,0.816,0.614c0.205,0.262,0.35,0.576,0.433,0.943
				c0.083,0.366,0.125,0.769,0.125,1.211v3.646h-1.162v-3.396c0-0.399-0.026-0.742-0.08-1.024s-0.146-0.513-0.269-0.688
				c-0.125-0.174-0.291-0.3-0.5-0.379c-0.209-0.08-0.467-0.119-0.774-0.119c-0.125,0-0.253,0.006-0.387,0.014
				c-0.134,0.01-0.261,0.019-0.382,0.031c-0.121,0.014-0.229,0.025-0.323,0.045c-0.097,0.017-0.166,0.027-0.207,0.035v5.485h-1.162
				L105.16,44.73L105.16,44.73z"/>
			<path d="M114.367,44.257c0.466,0,0.86,0.06,1.18,0.181c0.32,0.119,0.579,0.293,0.774,0.513s0.336,0.481,0.418,0.786
				c0.084,0.305,0.125,0.641,0.125,1.007v4.062c-0.1,0.016-0.24,0.039-0.418,0.066c-0.178,0.031-0.381,0.057-0.605,0.082
				c-0.226,0.023-0.47,0.048-0.73,0.068c-0.262,0.021-0.522,0.031-0.78,0.031c-0.368,0-0.705-0.037-1.013-0.113
				c-0.309-0.073-0.575-0.194-0.801-0.355c-0.225-0.162-0.399-0.377-0.524-0.645c-0.123-0.267-0.187-0.588-0.187-0.961
				c0-0.357,0.072-0.666,0.217-0.924c0.146-0.26,0.345-0.466,0.595-0.625c0.25-0.16,0.543-0.274,0.875-0.351
				c0.333-0.077,0.683-0.112,1.05-0.112c0.115,0,0.237,0.008,0.362,0.02s0.243,0.029,0.356,0.05
				c0.111,0.021,0.209,0.039,0.293,0.056c0.084,0.016,0.143,0.03,0.174,0.036v-0.325c0-0.191-0.02-0.381-0.063-0.568
				c-0.042-0.186-0.115-0.354-0.225-0.498c-0.107-0.147-0.256-0.262-0.442-0.35c-0.188-0.088-0.433-0.133-0.729-0.133
				c-0.383,0-0.719,0.028-1.006,0.083c-0.287,0.054-0.502,0.106-0.645,0.168l-0.137-0.963c0.148-0.065,0.4-0.132,0.75-0.194
				C113.58,44.286,113.958,44.257,114.367,44.257z M114.467,50.078c0.273,0,0.518-0.006,0.729-0.018
				c0.212-0.016,0.389-0.037,0.53-0.07v-1.936c-0.082-0.045-0.217-0.078-0.405-0.107s-0.415-0.047-0.681-0.047
				c-0.174,0-0.36,0.016-0.557,0.041c-0.195,0.022-0.375,0.078-0.538,0.154c-0.161,0.08-0.297,0.188-0.405,0.324
				c-0.107,0.139-0.162,0.318-0.162,0.547c0,0.414,0.133,0.703,0.399,0.866C113.647,49.997,114.01,50.078,114.467,50.078z"/>
			<path d="M120.676,51.039c-0.719-0.016-1.226-0.171-1.525-0.462c-0.301-0.293-0.45-0.745-0.45-1.363v-7.793l1.162-0.198v7.805
				c0,0.193,0.017,0.353,0.05,0.477c0.032,0.125,0.086,0.225,0.162,0.301c0.074,0.075,0.176,0.131,0.299,0.168
				c0.125,0.037,0.279,0.07,0.463,0.094L120.676,51.039z"/>
			<path d="M122.075,44.73c0.266-0.064,0.621-0.137,1.063-0.211c0.44-0.076,0.948-0.112,1.523-0.112
				c0.516,0,0.945,0.073,1.286,0.217c0.343,0.146,0.614,0.351,0.819,0.614c0.205,0.262,0.349,0.576,0.434,0.943
				c0.081,0.366,0.125,0.769,0.125,1.211v3.646h-1.164v-3.396c0-0.399-0.025-0.742-0.08-1.024c-0.054-0.282-0.145-0.513-0.268-0.688
				c-0.125-0.174-0.293-0.3-0.502-0.379c-0.207-0.08-0.465-0.119-0.773-0.119c-0.125,0-0.255,0.006-0.387,0.014
				c-0.135,0.01-0.262,0.019-0.381,0.031c-0.121,0.014-0.229,0.025-0.326,0.045c-0.094,0.017-0.164,0.027-0.206,0.035v5.485h-1.162
				L122.075,44.73L122.075,44.73z"/>
			<path d="M128.82,47.655c0-0.575,0.081-1.077,0.25-1.507c0.167-0.43,0.388-0.787,0.661-1.066c0.274-0.283,0.592-0.495,0.949-0.639
				c0.356-0.143,0.724-0.213,1.099-0.213c0.875,0,1.545,0.274,2.012,0.82c0.465,0.547,0.699,1.377,0.699,2.49
				c0,0.05,0,0.115,0,0.193c0,0.082-0.004,0.152-0.015,0.22h-4.447c0.051,0.675,0.246,1.187,0.588,1.536
				c0.34,0.35,0.875,0.523,1.598,0.523c0.408,0,0.754-0.033,1.032-0.104s0.489-0.14,0.629-0.206l0.162,0.975
				c-0.142,0.075-0.388,0.152-0.742,0.237c-0.354,0.083-0.754,0.125-1.204,0.125c-0.566,0-1.056-0.085-1.469-0.257
				c-0.409-0.17-0.752-0.402-1.018-0.706c-0.268-0.3-0.465-0.656-0.594-1.069C128.885,48.596,128.82,48.146,128.82,47.655z
				 M133.279,47.018c0.01-0.525-0.123-0.957-0.396-1.295c-0.27-0.338-0.643-0.506-1.115-0.506c-0.268,0-0.502,0.053-0.707,0.156
				s-0.375,0.24-0.519,0.404c-0.144,0.166-0.252,0.359-0.331,0.574c-0.08,0.217-0.132,0.437-0.156,0.662h3.224V47.018z"/>
			<path d="M140.176,50.389c-0.099,0.065-0.293,0.153-0.58,0.256c-0.287,0.104-0.623,0.158-1.006,0.158
				c-0.392,0-0.761-0.063-1.107-0.188c-0.346-0.124-0.647-0.318-0.905-0.58c-0.259-0.263-0.462-0.591-0.612-0.979
				c-0.148-0.392-0.225-0.857-0.225-1.398c0-0.475,0.07-0.91,0.211-1.305c0.143-0.396,0.35-0.738,0.619-1.025
				c0.27-0.286,0.602-0.512,0.992-0.674c0.392-0.162,0.834-0.242,1.324-0.242c0.543,0,1.014,0.038,1.42,0.117
				c0.402,0.078,0.74,0.15,1.018,0.22v5.797c0,1-0.26,1.722-0.775,2.173c-0.516,0.447-1.297,0.674-2.35,0.674
				c-0.406,0-0.791-0.033-1.153-0.101c-0.364-0.065-0.677-0.146-0.944-0.237l0.211-1.013c0.236,0.09,0.521,0.173,0.857,0.243
				s0.689,0.105,1.053,0.105c0.691,0,1.189-0.138,1.496-0.412c0.303-0.272,0.455-0.713,0.455-1.311v-0.275L140.176,50.389
				L140.176,50.389z M140.164,45.568c-0.114-0.034-0.272-0.066-0.467-0.094c-0.196-0.031-0.461-0.045-0.794-0.045
				c-0.624,0-1.106,0.205-1.442,0.61c-0.338,0.408-0.506,0.949-0.506,1.624c0,0.375,0.046,0.695,0.144,0.962
				c0.098,0.269,0.225,0.485,0.387,0.661c0.164,0.176,0.351,0.307,0.563,0.387c0.213,0.083,0.432,0.125,0.657,0.125
				c0.308,0,0.592-0.044,0.853-0.132c0.256-0.087,0.463-0.188,0.608-0.304v-3.797L140.164,45.568L140.164,45.568z"/>
			<path d="M148.995,47.641c0,0.517-0.076,0.983-0.225,1.399c-0.15,0.416-0.361,0.774-0.629,1.074
				c-0.273,0.302-0.597,0.53-0.972,0.692c-0.373,0.164-0.782,0.241-1.224,0.241c-0.439,0-0.852-0.079-1.225-0.241
				c-0.371-0.162-0.697-0.394-0.97-0.692c-0.272-0.3-0.479-0.658-0.631-1.074c-0.146-0.416-0.224-0.885-0.224-1.399
				c0-0.506,0.076-0.972,0.224-1.393c0.149-0.421,0.362-0.781,0.631-1.081c0.271-0.298,0.597-0.53,0.97-0.69
				c0.373-0.164,0.783-0.246,1.225-0.246s0.851,0.082,1.224,0.246c0.375,0.16,0.697,0.395,0.972,0.69
				c0.271,0.302,0.479,0.66,0.629,1.081C148.918,46.67,148.995,47.135,148.995,47.641z M147.783,47.641
				c0-0.729-0.165-1.313-0.493-1.742c-0.329-0.43-0.777-0.645-1.343-0.645s-1.015,0.215-1.343,0.645
				c-0.33,0.43-0.493,1.013-0.493,1.742c0,0.733,0.163,1.313,0.493,1.742c0.328,0.43,0.777,0.646,1.343,0.646
				c0.563,0,1.014-0.217,1.343-0.646C147.618,48.955,147.783,48.375,147.783,47.641z"/>
		</g>
	</g>
	<g>
		<g>
			<path d="M17.382,18.268c-0.896,0-1.665-0.129-2.309-0.388c-0.644-0.258-1.177-0.622-1.601-1.088
				c-0.423-0.466-0.735-1.015-0.937-1.647c-0.202-0.631-0.303-1.324-0.303-2.082V4.866h2.403v7.97c0,0.592,0.067,1.101,0.199,1.524
				c0.132,0.423,0.321,0.766,0.567,1.03c0.246,0.266,0.538,0.461,0.871,0.588c0.334,0.125,0.71,0.188,1.126,0.188
				s0.795-0.063,1.136-0.188c0.34-0.126,0.634-0.321,0.88-0.588c0.246-0.265,0.436-0.607,0.567-1.03
				c0.133-0.423,0.199-0.932,0.199-1.524v-7.97h2.404v8.196c0,0.758-0.104,1.452-0.312,2.083s-0.525,1.181-0.947,1.647
				c-0.422,0.466-0.962,0.83-1.619,1.088C19.055,18.139,18.278,18.268,17.382,18.268z"/>
			<path d="M25.408,8.671c0.442-0.125,1.016-0.245,1.723-0.36c0.707-0.112,1.489-0.17,2.347-0.17c0.808,0,1.484,0.11,2.025,0.331
				c0.542,0.222,0.976,0.531,1.297,0.929c0.322,0.396,0.549,0.877,0.683,1.439c0.132,0.561,0.199,1.176,0.199,1.845v5.565h-2.291
				v-5.205c0-0.53-0.035-0.981-0.104-1.354c-0.069-0.372-0.182-0.675-0.341-0.909c-0.158-0.233-0.372-0.404-0.643-0.511
				s-0.603-0.162-0.994-0.162c-0.291,0-0.593,0.02-0.909,0.058c-0.316,0.038-0.548,0.069-0.701,0.094v7.989h-2.291V8.671z"/>
			<path d="M38.924,5.453c0,0.43-0.139,0.77-0.417,1.022c-0.277,0.253-0.605,0.379-0.984,0.379c-0.391,0-0.726-0.127-1.003-0.379
				s-0.416-0.592-0.416-1.022c0-0.44,0.138-0.788,0.416-1.041c0.278-0.253,0.613-0.379,1.003-0.379c0.379,0,0.708,0.126,0.984,0.379
				C38.785,4.664,38.924,5.012,38.924,5.453z M38.678,18.25h-2.292v-9.9h2.292V18.25z"/>
			<path d="M44.772,7.915c0.758,0,1.395,0.095,1.912,0.284c0.518,0.189,0.931,0.453,1.241,0.794c0.309,0.34,0.53,0.754,0.663,1.24
				c0.132,0.485,0.198,1.019,0.198,1.6v6.001c-0.353,0.076-0.886,0.167-1.6,0.273c-0.713,0.108-1.517,0.161-2.414,0.161
				c-0.593,0-1.135-0.057-1.627-0.17c-0.493-0.113-0.912-0.295-1.258-0.549c-0.348-0.251-0.619-0.579-0.814-0.984
				c-0.196-0.403-0.294-0.9-0.294-1.495c0-0.569,0.11-1.047,0.332-1.44c0.221-0.39,0.521-0.708,0.9-0.955
				c0.378-0.247,0.816-0.423,1.315-0.53c0.498-0.107,1.019-0.161,1.561-0.161c0.253,0,0.518,0.016,0.795,0.047
				c0.277,0.031,0.575,0.085,0.891,0.161v-0.379c0-0.265-0.032-0.517-0.095-0.757c-0.063-0.24-0.173-0.45-0.331-0.634
				c-0.158-0.184-0.366-0.325-0.625-0.426c-0.259-0.101-0.583-0.152-0.975-0.152c-0.53,0-1.016,0.038-1.458,0.114
				c-0.441,0.075-0.801,0.164-1.079,0.266l-0.284-1.856c0.29-0.1,0.712-0.202,1.269-0.302C43.55,7.964,44.142,7.915,44.772,7.915z
				 M44.962,16.451c0.706,0,1.242-0.039,1.608-0.114V13.8c-0.127-0.038-0.309-0.076-0.549-0.113
				c-0.24-0.039-0.505-0.058-0.795-0.058c-0.253,0-0.508,0.019-0.767,0.058c-0.258,0.038-0.492,0.107-0.7,0.208
				s-0.375,0.243-0.501,0.425c-0.126,0.183-0.19,0.415-0.19,0.69c0,0.545,0.17,0.918,0.512,1.126
				C43.921,16.346,44.383,16.451,44.962,16.451z"/>
			<path d="M55.885,18.25V5.132h8.424v2.024H58.27v3.238h5.376v1.987H58.27v3.845h6.493v2.024H55.885z"/>
			<path d="M74.55,17.74c-0.442,0.112-1.016,0.229-1.723,0.35c-0.707,0.12-1.483,0.179-2.328,0.179c-0.795,0-1.461-0.112-1.998-0.34
				c-0.537-0.227-0.965-0.542-1.287-0.947c-0.322-0.403-0.552-0.886-0.691-1.446c-0.138-0.561-0.208-1.178-0.208-1.847V8.142h2.291
				v5.188c0,1.06,0.155,1.816,0.464,2.271c0.309,0.454,0.849,0.681,1.619,0.681c0.277,0,0.57-0.012,0.879-0.037
				c0.31-0.025,0.54-0.057,0.692-0.095V8.142h2.29V17.74z"/>
			<path d="M82.992,10.413c-0.189-0.063-0.451-0.129-0.785-0.198c-0.335-0.07-0.723-0.105-1.164-0.105
				c-0.253,0-0.521,0.026-0.804,0.077c-0.284,0.05-0.483,0.094-0.596,0.133v7.932h-2.291V8.823c0.441-0.164,0.994-0.318,1.657-0.463
				c0.662-0.146,1.397-0.218,2.205-0.218c0.151,0,0.327,0.01,0.531,0.029c0.202,0.018,0.403,0.044,0.606,0.076
				c0.202,0.031,0.397,0.069,0.586,0.114c0.19,0.043,0.341,0.084,0.455,0.123L82.992,10.413z"/>
			<path d="M93.821,13.045c0,0.782-0.114,1.494-0.341,2.138s-0.549,1.193-0.966,1.647c-0.416,0.456-0.917,0.81-1.505,1.061
				c-0.585,0.252-1.233,0.377-1.939,0.377c-0.707,0-1.352-0.125-1.931-0.377c-0.581-0.252-1.079-0.606-1.496-1.061
				c-0.416-0.454-0.741-1.003-0.974-1.647c-0.234-0.643-0.351-1.355-0.351-2.138c0-0.783,0.117-1.493,0.351-2.13
				c0.233-0.636,0.562-1.183,0.984-1.638c0.423-0.454,0.925-0.805,1.506-1.049c0.58-0.247,1.216-0.37,1.911-0.37
				c0.694,0,1.334,0.123,1.921,0.37c0.586,0.245,1.089,0.595,1.505,1.049c0.417,0.455,0.741,1.001,0.975,1.638
				C93.704,11.551,93.821,12.262,93.821,13.045z M91.473,13.045c0-0.985-0.211-1.765-0.634-2.338
				c-0.423-0.574-1.012-0.862-1.77-0.862c-0.757,0-1.347,0.288-1.771,0.862c-0.422,0.573-0.632,1.353-0.632,2.338
				c0,0.997,0.21,1.786,0.632,2.366c0.424,0.58,1.013,0.869,1.771,0.869c0.757,0,1.346-0.289,1.77-0.869
				C91.262,14.831,91.473,14.042,91.473,13.045z"/>
			<path d="M104.989,13.31c0,0.756-0.098,1.451-0.293,2.082c-0.196,0.631-0.477,1.173-0.842,1.627
				c-0.366,0.455-0.823,0.808-1.373,1.061c-0.55,0.251-1.171,0.378-1.865,0.378c-0.466,0-0.896-0.057-1.288-0.17
				s-0.713-0.241-0.966-0.378v3.844h-2.291V8.671c0.466-0.125,1.042-0.245,1.723-0.36c0.682-0.112,1.4-0.17,2.159-0.17
				c0.781,0,1.482,0.12,2.102,0.359c0.618,0.24,1.144,0.583,1.58,1.032c0.436,0.448,0.771,0.99,1.004,1.627
				C104.872,11.798,104.989,12.515,104.989,13.31z M102.641,13.347c0-1.023-0.229-1.817-0.69-2.385
				c-0.46-0.568-1.201-0.853-2.224-0.853c-0.214,0-0.438,0.01-0.671,0.029c-0.234,0.019-0.464,0.06-0.691,0.123v5.66
				c0.203,0.138,0.47,0.268,0.804,0.388c0.335,0.121,0.691,0.18,1.07,0.18c0.834,0,1.441-0.283,1.827-0.852
				C102.451,15.07,102.641,14.306,102.641,13.347z"/>
			<path d="M106.693,13.12c0-0.872,0.129-1.634,0.388-2.291c0.258-0.656,0.604-1.202,1.033-1.637
				c0.429-0.436,0.919-0.764,1.477-0.985c0.555-0.221,1.123-0.332,1.702-0.332c1.364,0,2.427,0.424,3.19,1.268
				c0.763,0.847,1.146,2.108,1.146,3.787c0,0.126-0.005,0.267-0.011,0.426c-0.005,0.158-0.017,0.3-0.028,0.426h-6.529
				c0.063,0.793,0.343,1.409,0.842,1.845c0.498,0.436,1.22,0.653,2.168,0.653c0.555,0,1.063-0.05,1.523-0.15
				c0.461-0.102,0.822-0.209,1.088-0.322l0.305,1.874c-0.126,0.063-0.301,0.13-0.521,0.198c-0.22,0.069-0.473,0.133-0.756,0.19
				c-0.283,0.057-0.591,0.104-0.918,0.142c-0.329,0.039-0.663,0.057-1.003,0.057c-0.871,0-1.628-0.129-2.271-0.388
				c-0.645-0.258-1.174-0.618-1.592-1.079c-0.416-0.459-0.726-1.003-0.928-1.628C106.792,14.548,106.693,13.864,106.693,13.12z
				 M113.336,12.097c0-0.316-0.045-0.615-0.132-0.898c-0.089-0.285-0.218-0.531-0.39-0.739c-0.17-0.208-0.379-0.37-0.625-0.492
				c-0.246-0.119-0.539-0.18-0.879-0.18c-0.354,0-0.664,0.066-0.928,0.199c-0.266,0.132-0.49,0.307-0.672,0.521
				c-0.184,0.214-0.326,0.46-0.426,0.738c-0.102,0.277-0.171,0.562-0.209,0.852L113.336,12.097L113.336,12.097z"/>
			<path d="M116.667,21.77c-0.164,0-0.394-0.015-0.69-0.047c-0.295-0.031-0.559-0.091-0.787-0.181l0.304-1.873
				c0.278,0.088,0.612,0.132,1.004,0.132c0.531,0,0.903-0.156,1.117-0.465c0.214-0.31,0.321-0.773,0.321-1.392V8.347h2.291v9.635
				c0,1.288-0.307,2.241-0.918,2.859C118.697,21.462,117.817,21.77,116.667,21.77z M120.473,5.453c0,0.43-0.138,0.77-0.416,1.022
				c-0.277,0.253-0.606,0.379-0.983,0.379c-0.392,0-0.726-0.127-1.003-0.379c-0.278-0.253-0.418-0.592-0.418-1.022
				c0-0.44,0.14-0.788,0.418-1.041c0.275-0.252,0.611-0.379,1.003-0.379c0.377,0,0.706,0.126,0.983,0.379
				C120.334,4.664,120.473,5.012,120.473,5.453z"/>
			<path d="M125.508,16.376c0.605,0,1.049-0.073,1.325-0.217c0.277-0.146,0.417-0.394,0.417-0.748c0-0.328-0.148-0.599-0.445-0.813
				c-0.295-0.215-0.785-0.449-1.467-0.702c-0.416-0.153-0.797-0.313-1.144-0.482c-0.349-0.171-0.647-0.369-0.897-0.596
				c-0.254-0.228-0.453-0.502-0.598-0.824c-0.145-0.321-0.219-0.714-0.219-1.183c0-0.909,0.334-1.624,1.004-2.149
				c0.669-0.522,1.578-0.785,2.726-0.785c0.58,0,1.136,0.054,1.664,0.161c0.531,0.107,0.927,0.21,1.194,0.312l-0.416,1.855
				c-0.252-0.112-0.575-0.218-0.965-0.313c-0.394-0.096-0.846-0.142-1.363-0.142c-0.469,0-0.848,0.081-1.137,0.237
				c-0.289,0.157-0.436,0.401-0.436,0.729c0,0.164,0.029,0.31,0.086,0.435c0.055,0.128,0.153,0.243,0.293,0.351
				c0.139,0.107,0.32,0.214,0.549,0.322c0.228,0.107,0.504,0.216,0.832,0.331c0.543,0.201,1.006,0.401,1.383,0.595
				c0.377,0.196,0.69,0.417,0.938,0.663c0.245,0.246,0.426,0.526,0.539,0.842c0.113,0.317,0.172,0.695,0.172,1.136
				c0,0.947-0.351,1.663-1.05,2.149c-0.701,0.485-1.702,0.728-3.002,0.728c-0.871,0-1.569-0.072-2.103-0.216
				c-0.529-0.146-0.901-0.263-1.117-0.35l0.397-1.913c0.341,0.139,0.749,0.271,1.222,0.398
				C124.363,16.312,124.903,16.376,125.508,16.376z"/>
			<path d="M133.854,12.211c0.291-0.303,0.601-0.627,0.929-0.975c0.33-0.348,0.649-0.693,0.965-1.041
				c0.315-0.347,0.616-0.682,0.899-1.003c0.283-0.321,0.529-0.604,0.729-0.843h2.706c-0.63,0.707-1.296,1.438-1.997,2.196
				c-0.7,0.756-1.403,1.495-2.108,2.214c0.377,0.316,0.776,0.697,1.192,1.145c0.416,0.448,0.818,0.924,1.209,1.429
				c0.392,0.505,0.759,1.01,1.101,1.515c0.34,0.505,0.625,0.972,0.85,1.401h-2.648c-0.228-0.392-0.488-0.803-0.785-1.232
				c-0.299-0.428-0.616-0.844-0.955-1.249c-0.342-0.403-0.69-0.785-1.043-1.145c-0.354-0.359-0.7-0.665-1.043-0.918v4.544h-2.289
				V5.509l2.289-0.377V12.211L133.854,12.211L133.854,12.211z"/>
			<path d="M145.178,7.915c0.754,0,1.395,0.095,1.91,0.284c0.518,0.189,0.932,0.453,1.238,0.794c0.309,0.34,0.531,0.754,0.661,1.24
				c0.134,0.485,0.198,1.019,0.198,1.6v6.001c-0.353,0.076-0.885,0.167-1.598,0.273c-0.712,0.108-1.518,0.161-2.412,0.161
				c-0.596,0-1.138-0.057-1.627-0.17c-0.494-0.113-0.914-0.295-1.262-0.549c-0.348-0.251-0.619-0.579-0.814-0.984
				c-0.195-0.403-0.293-0.9-0.293-1.495c0-0.569,0.111-1.047,0.332-1.44c0.219-0.39,0.52-0.708,0.898-0.955
				c0.379-0.247,0.816-0.423,1.316-0.53c0.498-0.107,1.019-0.161,1.56-0.161c0.253,0,0.519,0.016,0.796,0.047
				c0.275,0.032,0.573,0.085,0.889,0.161v-0.379c0-0.265-0.031-0.517-0.095-0.757c-0.063-0.24-0.176-0.45-0.331-0.634
				c-0.158-0.184-0.367-0.325-0.626-0.426c-0.26-0.101-0.583-0.152-0.976-0.152c-0.531,0-1.016,0.038-1.458,0.114
				c-0.44,0.075-0.802,0.164-1.078,0.266l-0.284-1.856c0.291-0.1,0.713-0.202,1.27-0.302C143.953,7.964,144.549,7.915,145.178,7.915
				z M145.366,16.451c0.706,0,1.242-0.039,1.609-0.114V13.8c-0.127-0.038-0.311-0.076-0.551-0.113
				c-0.24-0.039-0.505-0.058-0.796-0.058c-0.25,0-0.506,0.019-0.765,0.058c-0.26,0.038-0.492,0.107-0.7,0.208
				c-0.209,0.101-0.374,0.243-0.502,0.425c-0.127,0.183-0.188,0.415-0.188,0.69c0,0.545,0.17,0.918,0.51,1.126
				C144.325,16.344,144.785,16.451,145.366,16.451z"/>
		</g>
	</g>
</g>
</svg>
