<?xml version="1.0" encoding="utf-8"?>
<!-- Generator: Adobe Illustrator 16.0.0, SVG Export Plug-In . SVG Version: 6.00 Build 0)  -->
<!DOCTYPE svg PUBLIC "-//W3C//DTD SVG 1.1//EN" "http://www.w3.org/Graphics/SVG/1.1/DTD/svg11.dtd">
<svg version="1.1" id="Layer_1" xmlns="http://www.w3.org/2000/svg" xmlns:xlink="http://www.w3.org/1999/xlink" x="0px" y="0px"
	 width="247.165px" height="55.629px" viewBox="19.124 9.463 247.165 55.629" enable-background="new 19.124 9.463 247.165 55.629"
	 xml:space="preserve">
<g>
	<g>
		<rect id="XMLID_533_" x="187.605" y="9.463" fill="#003399" width="78.684" height="52.457"/>
		<polygon id="XMLID_532_" fill="#FFCC00" points="225.267,20.896 226.933,19.683 228.592,20.896 227.958,18.937 229.647,17.726 
			227.567,17.726 226.933,15.742 226.298,17.726 224.212,17.726 225.897,18.937 		"/>
		<polygon id="XMLID_531_" fill="#FFCC00" points="216.676,23.201 218.34,21.989 219.996,23.201 219.365,21.243 221.054,20.031 
			218.973,20.031 218.335,18.043 217.7,20.035 215.625,20.031 217.309,21.243 		"/>
		<polygon id="XMLID_530_" fill="#FFCC00" points="212.047,24.347 211.415,26.336 209.333,26.332 211.019,27.545 210.387,29.504 
			212.047,28.296 213.711,29.504 213.08,27.545 214.766,26.332 212.687,26.332 		"/>
		<polygon id="XMLID_529_" fill="#FFCC00" points="209.746,36.866 211.4,38.086 210.772,36.125 212.459,34.913 210.381,34.913 
			209.746,32.927 209.101,34.919 207.027,34.913 208.713,36.125 208.083,38.086 		"/>
		<polygon id="XMLID_528_" fill="#FFCC00" points="212.687,43.517 212.046,41.536 211.415,43.517 209.333,43.517 211.018,44.737 
			210.387,46.691 212.046,45.476 213.71,46.691 213.078,44.737 214.765,43.517 		"/>
		<polygon id="XMLID_527_" fill="#FFCC00" points="218.983,49.818 218.35,47.836 217.71,49.823 215.628,49.818 217.319,51.031 
			216.689,52.99 218.35,51.775 220.011,52.99 219.379,51.031 221.067,49.818 		"/>
		<polygon id="XMLID_526_" fill="#FFCC00" points="227.566,52.101 226.933,50.113 226.296,52.101 224.212,52.101 225.903,53.31 
			225.266,55.273 226.933,54.058 228.595,55.273 227.958,53.31 229.65,52.101 		"/>
		<polygon id="XMLID_525_" fill="#FFCC00" points="236.151,49.818 235.511,47.836 234.871,49.823 232.799,49.818 234.482,51.031 
			233.851,52.99 235.511,51.775 237.173,52.99 236.541,51.031 238.234,49.818 		"/>
		<polygon id="XMLID_524_" fill="#FFCC00" points="242.451,43.517 241.811,41.536 241.176,43.517 239.101,43.517 240.785,44.737 
			240.146,46.691 241.811,45.476 243.475,46.691 242.838,44.737 244.53,43.517 		"/>
		<polygon id="XMLID_523_" fill="#FFCC00" points="246.807,34.89 244.729,34.89 244.095,32.902 243.453,34.89 241.382,34.89 
			243.068,36.103 242.426,38.059 244.095,36.847 245.756,38.059 245.122,36.103 		"/>
		<polygon id="XMLID_521_" fill="#FFCC00" points="240.146,29.473 241.811,28.267 243.477,29.473 242.839,27.515 244.53,26.309 
			242.453,26.309 241.811,24.317 241.178,26.314 239.102,26.309 240.785,27.515 		"/>
		<polygon id="XMLID_517_" fill="#FFCC00" points="235.536,18.043 234.906,20.036 232.819,20.031 234.51,21.243 233.879,23.206 
			235.545,21.988 237.199,23.206 236.572,21.243 238.253,20.031 236.174,20.031 		"/>
	</g>
	<g>
		<g>
			<path d="M64.133,43.609v-8.657h5.284v1.038h-4.072v2.572h3.623v1.013h-3.623v2.997h4.385v1.039h-5.597V43.609z"/>
			<path d="M76.063,43.286c-0.267,0.067-0.619,0.138-1.056,0.211c-0.437,0.074-0.943,0.111-1.517,0.111
				c-0.5,0-0.92-0.075-1.262-0.218c-0.342-0.146-0.616-0.353-0.825-0.619c-0.208-0.269-0.357-0.579-0.45-0.944
				c-0.092-0.362-0.138-0.763-0.138-1.205v-3.646h1.163v3.396c0,0.791,0.125,1.357,0.375,1.699c0.25,0.34,0.67,0.513,1.262,0.513
				c0.125,0,0.253-0.005,0.387-0.015c0.134-0.007,0.259-0.019,0.375-0.03c0.116-0.012,0.223-0.024,0.318-0.038
				c0.096-0.012,0.165-0.026,0.206-0.043v-5.484h1.162L76.063,43.286L76.063,43.286z"/>
			<path d="M80.398,36.975c0.1,0,0.214,0.007,0.343,0.019c0.129,0.013,0.257,0.028,0.382,0.048c0.125,0.021,0.239,0.045,0.342,0.063
				c0.105,0.022,0.181,0.041,0.231,0.058l-0.2,1.012c-0.092-0.033-0.244-0.074-0.456-0.117c-0.213-0.048-0.486-0.069-0.818-0.069
				c-0.217,0-0.432,0.021-0.643,0.069c-0.212,0.045-0.353,0.075-0.418,0.092v5.46H78v-6.22c0.274-0.1,0.616-0.193,1.024-0.282
				C79.433,37.02,79.889,36.975,80.398,36.975z"/>
			<path d="M88.493,40.211c0,0.517-0.076,0.983-0.226,1.398c-0.15,0.418-0.361,0.776-0.63,1.075c-0.271,0.3-0.595,0.529-0.968,0.693
				c-0.375,0.161-0.784,0.242-1.225,0.242c-0.441,0-0.85-0.081-1.225-0.242c-0.375-0.165-0.698-0.395-0.967-0.693
				c-0.271-0.299-0.482-0.657-0.631-1.075c-0.149-0.415-0.226-0.885-0.226-1.398c0-0.506,0.076-0.972,0.226-1.394
				c0.149-0.421,0.36-0.78,0.631-1.08c0.27-0.299,0.593-0.531,0.967-0.694c0.375-0.161,0.783-0.242,1.225-0.242
				c0.44,0,0.85,0.081,1.225,0.242c0.374,0.163,0.697,0.396,0.968,0.694c0.27,0.301,0.48,0.659,0.63,1.08
				C88.417,39.239,88.493,39.705,88.493,40.211z M87.28,40.211c0-0.733-0.164-1.313-0.493-1.741
				c-0.329-0.431-0.777-0.645-1.342-0.645c-0.567,0-1.014,0.214-1.343,0.645c-0.33,0.429-0.494,1.008-0.494,1.741
				c0,0.732,0.164,1.314,0.494,1.743c0.329,0.431,0.776,0.643,1.343,0.643c0.565,0,1.014-0.212,1.342-0.643
				C87.116,41.525,87.28,40.945,87.28,40.211z"/>
			<path d="M95.788,40.374c0,0.492-0.064,0.945-0.193,1.361c-0.129,0.417-0.318,0.775-0.568,1.074
				c-0.25,0.301-0.556,0.532-0.919,0.701c-0.362,0.166-0.776,0.248-1.243,0.248c-0.375,0-0.706-0.049-0.993-0.149
				c-0.287-0.099-0.501-0.195-0.643-0.286v2.599h-1.162v-8.607c0.274-0.065,0.618-0.141,1.03-0.219
				c0.411-0.079,0.889-0.118,1.43-0.118c0.5,0,0.95,0.079,1.35,0.239c0.399,0.157,0.741,0.383,1.024,0.674
				c0.283,0.291,0.502,0.648,0.655,1.067C95.711,39.378,95.788,39.85,95.788,40.374z M94.576,40.374c0-0.759-0.187-1.342-0.562-1.75
				c-0.375-0.405-0.875-0.614-1.5-0.614c-0.35,0-0.623,0.016-0.818,0.04c-0.196,0.023-0.353,0.053-0.468,0.086v4.098
				c0.142,0.118,0.346,0.23,0.612,0.337c0.266,0.107,0.558,0.162,0.874,0.162c0.333,0,0.619-0.058,0.856-0.18
				c0.238-0.119,0.432-0.288,0.581-0.5c0.15-0.211,0.259-0.462,0.325-0.748C94.543,41.016,94.576,40.706,94.576,40.374z"/>
			<path d="M97,40.222c0-0.572,0.084-1.074,0.25-1.504c0.167-0.429,0.388-0.786,0.662-1.069s0.591-0.494,0.949-0.637
				c0.357-0.14,0.724-0.212,1.098-0.212c0.876,0,1.546,0.272,2.012,0.819c0.466,0.546,0.699,1.376,0.699,2.49
				c0,0.05,0,0.114,0,0.194c0,0.079-0.004,0.151-0.011,0.219h-4.448c0.05,0.674,0.245,1.186,0.587,1.536
				c0.341,0.35,0.874,0.525,1.598,0.525c0.408,0,0.752-0.036,1.031-0.105c0.278-0.073,0.489-0.142,0.631-0.207l0.162,0.975
				c-0.142,0.075-0.39,0.154-0.743,0.237c-0.354,0.083-0.756,0.124-1.206,0.124c-0.566,0-1.056-0.084-1.468-0.254
				c-0.411-0.173-0.751-0.406-1.018-0.708c-0.267-0.3-0.464-0.655-0.593-1.068C97.064,41.169,97,40.717,97,40.222z M101.46,39.586
				c0.008-0.524-0.124-0.954-0.394-1.292c-0.271-0.337-0.643-0.505-1.118-0.505c-0.268,0-0.502,0.051-0.707,0.155
				c-0.205,0.104-0.377,0.239-0.519,0.404c-0.142,0.169-0.251,0.359-0.331,0.575c-0.079,0.216-0.13,0.438-0.155,0.66L101.46,39.586
				L101.46,39.586z"/>
			<path d="M103.221,45.945c-0.1,0-0.229-0.013-0.387-0.038c-0.158-0.024-0.291-0.058-0.4-0.1l0.149-0.948
				c0.083,0.024,0.179,0.046,0.287,0.063c0.108,0.016,0.208,0.024,0.299,0.024c0.401,0,0.686-0.124,0.856-0.369
				c0.17-0.245,0.256-0.605,0.256-1.08v-6.384h1.162v6.371c0,0.834-0.19,1.453-0.568,1.856S103.944,45.945,103.221,45.945z
				 M104.857,35.938c-0.208,0-0.386-0.069-0.531-0.207c-0.146-0.138-0.218-0.322-0.218-0.555s0.072-0.419,0.218-0.556
				c0.146-0.138,0.322-0.208,0.531-0.208c0.209,0,0.386,0.07,0.531,0.208c0.145,0.137,0.219,0.322,0.219,0.556
				c0,0.232-0.074,0.417-0.219,0.555C105.243,35.869,105.066,35.938,104.857,35.938z"/>
			<path d="M108.893,42.622c0.474,0,0.826-0.063,1.055-0.188c0.229-0.123,0.344-0.325,0.344-0.601c0-0.282-0.113-0.506-0.338-0.675
				c-0.224-0.165-0.595-0.353-1.111-0.561c-0.25-0.101-0.49-0.201-0.719-0.306c-0.229-0.104-0.426-0.229-0.594-0.37
				c-0.166-0.141-0.3-0.311-0.399-0.511c-0.101-0.201-0.15-0.446-0.15-0.737c0-0.575,0.212-1.031,0.637-1.367
				c0.424-0.339,1.004-0.507,1.736-0.507c0.184,0,0.367,0.012,0.55,0.033c0.183,0.02,0.354,0.045,0.512,0.075
				c0.158,0.029,0.298,0.058,0.418,0.093c0.121,0.034,0.215,0.063,0.282,0.088l-0.212,0.999c-0.125-0.066-0.32-0.137-0.587-0.209
				c-0.267-0.069-0.588-0.104-0.963-0.104c-0.323,0-0.608,0.064-0.85,0.193c-0.241,0.129-0.361,0.331-0.361,0.605
				c0,0.144,0.027,0.268,0.081,0.375c0.053,0.109,0.137,0.206,0.249,0.293c0.111,0.087,0.252,0.17,0.418,0.243
				c0.167,0.075,0.367,0.153,0.599,0.238c0.308,0.115,0.583,0.231,0.825,0.342c0.241,0.113,0.447,0.243,0.617,0.396
				c0.172,0.148,0.303,0.332,0.395,0.543c0.091,0.211,0.137,0.472,0.137,0.781c0,0.601-0.223,1.054-0.669,1.361
				c-0.445,0.309-1.079,0.463-1.904,0.463c-0.575,0-1.024-0.047-1.349-0.145c-0.326-0.094-0.546-0.167-0.663-0.218l0.212-1
				c0.133,0.051,0.346,0.124,0.637,0.226C108.022,42.571,108.41,42.622,108.893,42.622z"/>
			<path d="M115.239,40.038c0.25,0.189,0.513,0.429,0.793,0.712c0.279,0.28,0.553,0.588,0.824,0.917
				c0.271,0.328,0.527,0.66,0.768,0.999c0.242,0.338,0.446,0.653,0.613,0.943h-1.362c-0.176-0.29-0.377-0.591-0.606-0.893
				c-0.229-0.306-0.468-0.596-0.718-0.875c-0.25-0.278-0.502-0.534-0.762-0.767c-0.257-0.233-0.503-0.431-0.737-0.587v3.121h-1.162
				v-9.494l1.162-0.2v5.921c0.201-0.199,0.42-0.42,0.662-0.659c0.241-0.243,0.479-0.489,0.712-0.738
				c0.234-0.251,0.454-0.489,0.662-0.721c0.207-0.228,0.387-0.43,0.537-0.604h1.362c-0.192,0.209-0.401,0.436-0.625,0.688
				c-0.224,0.25-0.458,0.501-0.699,0.755c-0.242,0.253-0.486,0.507-0.731,0.761C115.686,39.573,115.456,39.811,115.239,40.038z"/>
			<path d="M119.923,35.938c-0.208,0-0.385-0.069-0.531-0.207s-0.218-0.322-0.218-0.555s0.072-0.419,0.218-0.556
				c0.146-0.138,0.322-0.208,0.531-0.208c0.209,0,0.386,0.07,0.532,0.208c0.144,0.137,0.218,0.322,0.218,0.556
				c0,0.232-0.074,0.417-0.218,0.555C120.309,35.869,120.131,35.938,119.923,35.938z M120.51,43.609h-1.161v-6.496h1.161V43.609z"/>
			<path d="M125.343,43.609v-8.657h5.223v1.038h-4.009v2.61h3.559v1.023h-3.559v3.985H125.343z"/>
			<path d="M136.775,43.286c-0.267,0.067-0.619,0.138-1.055,0.211c-0.437,0.074-0.943,0.111-1.518,0.111
				c-0.499,0-0.92-0.075-1.262-0.218c-0.342-0.146-0.617-0.353-0.825-0.619c-0.208-0.269-0.359-0.579-0.449-0.944
				c-0.092-0.362-0.138-0.763-0.138-1.205v-3.646h1.162v3.396c0,0.791,0.125,1.357,0.374,1.699c0.249,0.34,0.67,0.513,1.261,0.513
				c0.125,0,0.255-0.005,0.389-0.015c0.132-0.007,0.257-0.019,0.374-0.03s0.222-0.024,0.318-0.038
				c0.096-0.012,0.165-0.026,0.207-0.043v-5.484h1.161V43.286L136.775,43.286z"/>
			<path d="M138.711,37.3c0.267-0.065,0.622-0.136,1.063-0.21c0.441-0.077,0.949-0.113,1.524-0.113c0.515,0,0.944,0.074,1.286,0.22
				c0.342,0.146,0.615,0.348,0.819,0.611c0.205,0.264,0.347,0.575,0.432,0.943c0.082,0.366,0.125,0.771,0.125,1.211v3.647h-1.163
				v-3.397c0-0.4-0.027-0.74-0.081-1.024c-0.054-0.283-0.144-0.512-0.269-0.688c-0.125-0.174-0.292-0.303-0.5-0.382
				c-0.208-0.078-0.467-0.116-0.774-0.116c-0.125,0-0.254,0.003-0.387,0.012c-0.135,0.009-0.261,0.02-0.381,0.031
				c-0.122,0.013-0.231,0.028-0.326,0.045c-0.096,0.016-0.164,0.028-0.207,0.037v5.483h-1.162L138.711,37.3L138.711,37.3z"/>
			<path d="M150.015,33.965l1.164-0.2v9.506c-0.269,0.076-0.608,0.149-1.026,0.226c-0.415,0.074-0.894,0.111-1.437,0.111
				c-0.498,0-0.948-0.079-1.348-0.237c-0.4-0.159-0.742-0.385-1.025-0.677c-0.284-0.29-0.502-0.646-0.656-1.067
				c-0.154-0.42-0.232-0.892-0.232-1.419c0-0.498,0.065-0.955,0.195-1.374c0.128-0.416,0.317-0.775,0.567-1.074
				c0.249-0.3,0.556-0.532,0.918-0.699c0.364-0.166,0.777-0.248,1.243-0.248c0.375,0,0.707,0.048,0.994,0.149
				c0.286,0.099,0.501,0.194,0.643,0.287V33.965L150.015,33.965z M150.015,38.339c-0.141-0.117-0.344-0.229-0.611-0.338
				c-0.268-0.108-0.559-0.163-0.875-0.163c-0.333,0-0.619,0.059-0.856,0.181c-0.238,0.119-0.431,0.288-0.582,0.499
				c-0.149,0.211-0.257,0.465-0.323,0.755c-0.068,0.291-0.101,0.604-0.101,0.936c0,0.758,0.187,1.344,0.563,1.755
				c0.374,0.412,0.875,0.62,1.5,0.62c0.316,0,0.58-0.016,0.792-0.045c0.211-0.027,0.377-0.06,0.494-0.094V38.339L150.015,38.339z"/>
			<path d="M158.288,43.286c-0.269,0.067-0.62,0.138-1.056,0.211c-0.436,0.074-0.943,0.111-1.52,0.111
				c-0.498,0-0.918-0.075-1.262-0.218c-0.34-0.146-0.617-0.353-0.824-0.619c-0.209-0.269-0.357-0.579-0.449-0.944
				c-0.092-0.362-0.139-0.763-0.139-1.205v-3.646h1.164v3.396c0,0.791,0.124,1.357,0.374,1.699c0.247,0.34,0.67,0.513,1.261,0.513
				c0.125,0,0.254-0.005,0.389-0.015c0.133-0.007,0.258-0.019,0.373-0.03c0.116-0.012,0.222-0.024,0.319-0.038
				c0.095-0.012,0.163-0.026,0.208-0.043v-5.484h1.161V43.286L158.288,43.286z"/>
			<path d="M161.736,42.622c0.473,0,0.826-0.063,1.055-0.188c0.23-0.123,0.344-0.325,0.344-0.601c0-0.282-0.113-0.506-0.338-0.675
				c-0.225-0.165-0.594-0.353-1.111-0.561c-0.249-0.101-0.489-0.201-0.719-0.306c-0.229-0.104-0.428-0.229-0.594-0.37
				c-0.168-0.141-0.301-0.311-0.402-0.511c-0.099-0.201-0.147-0.446-0.147-0.737c0-0.575,0.212-1.031,0.636-1.367
				c0.425-0.338,1.004-0.507,1.736-0.507c0.184,0,0.368,0.012,0.55,0.033c0.183,0.02,0.356,0.045,0.513,0.075
				c0.158,0.029,0.298,0.058,0.418,0.093c0.122,0.034,0.214,0.063,0.281,0.088l-0.211,0.999c-0.125-0.066-0.321-0.137-0.59-0.209
				c-0.265-0.069-0.586-0.104-0.961-0.104c-0.325,0-0.607,0.064-0.85,0.193s-0.363,0.331-0.363,0.605
				c0,0.144,0.027,0.268,0.08,0.375c0.054,0.109,0.141,0.206,0.25,0.293c0.112,0.087,0.251,0.17,0.419,0.243
				c0.169,0.075,0.367,0.153,0.601,0.238c0.305,0.115,0.582,0.231,0.822,0.342c0.24,0.112,0.448,0.243,0.619,0.396
				c0.17,0.148,0.301,0.332,0.394,0.543c0.092,0.211,0.14,0.472,0.14,0.781c0,0.601-0.223,1.054-0.668,1.361
				c-0.447,0.309-1.082,0.463-1.907,0.463c-0.573,0-1.024-0.047-1.349-0.145c-0.324-0.094-0.546-0.167-0.662-0.218l0.211-1
				c0.135,0.051,0.346,0.124,0.637,0.226C160.865,42.571,161.253,42.622,161.736,42.622z"/>
			<path d="M170.042,37.988c-0.177,0.192-0.408,0.463-0.693,0.813c-0.286,0.349-0.594,0.737-0.923,1.162
				c-0.33,0.424-0.658,0.87-0.988,1.336c-0.327,0.466-0.616,0.911-0.866,1.336h3.571v0.975h-4.96v-0.773
				c0.201-0.369,0.445-0.771,0.738-1.211c0.291-0.442,0.596-0.883,0.917-1.319c0.32-0.438,0.631-0.852,0.937-1.237
				c0.305-0.387,0.569-0.714,0.792-0.979h-3.21v-0.976h4.686V37.988L170.042,37.988z"/>
			<path d="M47.667,55.292c0.133,0.168,0.302,0.387,0.505,0.658c0.205,0.271,0.415,0.572,0.631,0.899
				c0.217,0.329,0.431,0.673,0.643,1.031s0.394,0.702,0.543,1.037h-1.325c-0.166-0.317-0.348-0.639-0.543-0.963
				c-0.195-0.323-0.394-0.635-0.593-0.93c-0.199-0.296-0.397-0.572-0.593-0.831s-0.374-0.482-0.531-0.675
				c-0.109,0.011-0.219,0.014-0.332,0.014s-0.227,0-0.344,0h-1.086v3.387h-1.212v-8.535c0.342-0.084,0.724-0.141,1.144-0.17
				c0.42-0.028,0.806-0.043,1.155-0.043c1.217,0,2.143,0.229,2.78,0.686c0.637,0.46,0.955,1.142,0.955,2.052
				c0,0.573-0.151,1.064-0.456,1.472C48.706,54.79,48.259,55.094,47.667,55.292z M45.831,51.233c-0.516,0-0.913,0.013-1.187,0.037
				v3.262h0.861c0.417,0,0.792-0.021,1.125-0.063c0.333-0.041,0.614-0.121,0.843-0.237s0.405-0.28,0.53-0.495
				c0.125-0.212,0.188-0.493,0.188-0.844c0-0.323-0.063-0.593-0.188-0.813c-0.126-0.215-0.293-0.388-0.506-0.513
				c-0.212-0.123-0.462-0.211-0.749-0.262C46.462,51.257,46.156,51.233,45.831,51.233z"/>
			<path d="M56.886,55.518c0,0.516-0.074,0.983-0.224,1.399c-0.151,0.416-0.36,0.774-0.631,1.074
				c-0.271,0.302-0.594,0.53-0.968,0.693c-0.375,0.163-0.783,0.241-1.225,0.241s-0.849-0.079-1.224-0.241
				c-0.374-0.163-0.698-0.394-0.968-0.693c-0.271-0.3-0.481-0.658-0.63-1.074c-0.151-0.416-0.225-0.885-0.225-1.399
				c0-0.507,0.074-0.972,0.225-1.393c0.149-0.421,0.359-0.781,0.63-1.081c0.271-0.298,0.594-0.53,0.968-0.691
				c0.375-0.163,0.782-0.245,1.224-0.245s0.85,0.082,1.225,0.245c0.375,0.161,0.697,0.395,0.968,0.691
				c0.271,0.301,0.481,0.66,0.631,1.081S56.886,55.011,56.886,55.518z M55.676,55.518c0-0.73-0.165-1.313-0.494-1.743
				c-0.329-0.43-0.776-0.644-1.343-0.644c-0.566,0-1.014,0.214-1.342,0.644c-0.33,0.43-0.494,1.013-0.494,1.743
				c0,0.733,0.165,1.313,0.494,1.742c0.328,0.43,0.776,0.646,1.342,0.646s1.015-0.216,1.343-0.646
				C55.51,56.832,55.676,56.252,55.676,55.518z"/>
			<path d="M62.521,53.295c-0.175,0.19-0.406,0.463-0.693,0.813c-0.288,0.349-0.595,0.735-0.925,1.162
				c-0.33,0.425-0.659,0.87-0.987,1.336c-0.33,0.466-0.619,0.912-0.868,1.335h3.573v0.976h-4.96v-0.774
				c0.2-0.364,0.446-0.77,0.738-1.211c0.291-0.441,0.598-0.882,0.917-1.317c0.32-0.438,0.633-0.852,0.938-1.237
				c0.304-0.388,0.569-0.715,0.794-0.981h-3.211V52.42h4.686V53.295z"/>
			<path d="M69.341,58.916c-0.233-0.601-0.481-1.284-0.743-2.054c-0.262-0.771-0.501-1.572-0.718-2.406
				c-0.217,0.834-0.454,1.635-0.712,2.406c-0.258,0.77-0.504,1.453-0.737,2.054h-1.012c-0.383-0.856-0.758-1.836-1.125-2.936
				c-0.367-1.102-0.711-2.286-1.037-3.561h1.25c0.083,0.392,0.182,0.816,0.299,1.274c0.117,0.458,0.239,0.916,0.369,1.373
				c0.129,0.459,0.265,0.899,0.406,1.326c0.142,0.424,0.274,0.793,0.4,1.109c0.142-0.39,0.281-0.806,0.417-1.243
				c0.138-0.436,0.269-0.88,0.393-1.325c0.125-0.444,0.244-0.881,0.356-1.31c0.113-0.429,0.21-0.83,0.294-1.206h0.961
				c0.075,0.375,0.167,0.777,0.274,1.206c0.108,0.431,0.226,0.865,0.35,1.31c0.125,0.445,0.256,0.889,0.394,1.325
				c0.138,0.438,0.276,0.854,0.419,1.243c0.125-0.316,0.256-0.688,0.393-1.109c0.137-0.427,0.272-0.867,0.405-1.326
				c0.133-0.457,0.258-0.915,0.375-1.373c0.116-0.46,0.216-0.885,0.3-1.274h1.199c-0.325,1.274-0.671,2.459-1.037,3.561
				c-0.366,1.1-0.741,2.077-1.125,2.936H69.341z"/>
			<path d="M79.261,55.518c0,0.516-0.075,0.983-0.225,1.399s-0.36,0.774-0.631,1.074c-0.27,0.302-0.593,0.53-0.967,0.693
				c-0.375,0.163-0.784,0.241-1.225,0.241s-0.85-0.079-1.224-0.241c-0.374-0.162-0.697-0.394-0.968-0.693
				c-0.27-0.3-0.481-0.658-0.63-1.074s-0.225-0.885-0.225-1.399c0-0.507,0.076-0.972,0.225-1.393s0.36-0.781,0.63-1.081
				c0.271-0.298,0.594-0.53,0.968-0.691c0.375-0.163,0.783-0.245,1.224-0.245s0.85,0.082,1.225,0.245
				c0.375,0.161,0.698,0.395,0.967,0.691c0.272,0.301,0.482,0.66,0.631,1.081C79.186,54.547,79.261,55.011,79.261,55.518z
				 M78.048,55.518c0-0.73-0.164-1.313-0.493-1.743c-0.329-0.43-0.777-0.644-1.343-0.644c-0.565,0-1.014,0.214-1.342,0.644
				c-0.33,0.43-0.494,1.013-0.494,1.743c0,0.733,0.164,1.313,0.494,1.742c0.328,0.43,0.777,0.646,1.342,0.646
				c0.566,0,1.014-0.216,1.343-0.646C77.885,56.832,78.048,56.252,78.048,55.518z"/>
			<path d="M79.773,61.251c-0.099,0-0.229-0.013-0.387-0.037c-0.159-0.023-0.292-0.058-0.401-0.099l0.15-0.949
				c0.082,0.024,0.178,0.045,0.288,0.063c0.108,0.016,0.208,0.022,0.3,0.022c0.399,0,0.685-0.121,0.855-0.368
				c0.17-0.244,0.256-0.605,0.256-1.08V52.42h1.162v6.371c0,0.832-0.189,1.452-0.568,1.855
				C81.049,61.052,80.498,61.251,79.773,61.251z M81.41,51.246c-0.208,0-0.385-0.069-0.53-0.205
				c-0.146-0.139-0.219-0.324-0.219-0.559c0-0.232,0.073-0.417,0.219-0.556s0.322-0.206,0.53-0.206c0.208,0,0.385,0.067,0.53,0.206
				c0.146,0.139,0.219,0.323,0.219,0.556c0,0.234-0.073,0.42-0.219,0.559C81.795,51.177,81.618,51.246,81.41,51.246z"/>
			<path d="M89.105,58.591c-0.267,0.067-0.618,0.139-1.056,0.212c-0.438,0.075-0.943,0.112-1.518,0.112
				c-0.5,0-0.92-0.072-1.262-0.218c-0.342-0.145-0.617-0.352-0.825-0.618c-0.208-0.267-0.358-0.582-0.449-0.946
				c-0.092-0.36-0.138-0.762-0.138-1.204v-3.646h1.162v3.396c0,0.791,0.125,1.359,0.375,1.699c0.25,0.342,0.67,0.512,1.261,0.512
				c0.125,0,0.254-0.005,0.387-0.013c0.134-0.01,0.259-0.019,0.375-0.03c0.116-0.016,0.222-0.026,0.318-0.038
				c0.097-0.014,0.165-0.028,0.207-0.047v-5.48h1.162L89.105,58.591L89.105,58.591z"/>
			<path d="M98.174,55.292c0.133,0.168,0.302,0.387,0.505,0.658c0.205,0.271,0.415,0.572,0.631,0.899
				c0.216,0.329,0.431,0.673,0.643,1.031c0.211,0.358,0.393,0.702,0.543,1.037h-1.324c-0.166-0.317-0.347-0.639-0.543-0.963
				c-0.195-0.323-0.394-0.635-0.594-0.93c-0.199-0.296-0.397-0.572-0.593-0.831c-0.196-0.259-0.375-0.482-0.531-0.675
				c-0.108,0.011-0.219,0.014-0.332,0.014c-0.112,0-0.227,0-0.343,0H95.15v3.387h-1.212v-8.535c0.341-0.084,0.723-0.141,1.144-0.17
				c0.42-0.028,0.805-0.043,1.156-0.043c1.215,0,2.143,0.229,2.78,0.686c0.636,0.46,0.955,1.142,0.955,2.052
				c0,0.573-0.151,1.064-0.455,1.472C99.213,54.79,98.765,55.094,98.174,55.292z M96.337,51.233c-0.516,0-0.913,0.013-1.187,0.037
				v3.262h0.862c0.417,0,0.792-0.021,1.125-0.063c0.333-0.041,0.614-0.121,0.843-0.237c0.229-0.117,0.405-0.28,0.53-0.495
				c0.125-0.212,0.188-0.493,0.188-0.844c0-0.323-0.063-0.593-0.188-0.813c-0.125-0.215-0.292-0.388-0.505-0.513
				c-0.213-0.123-0.463-0.211-0.75-0.262C96.968,51.257,96.662,51.233,96.337,51.233z"/>
			<path d="M101.297,55.532c0-0.575,0.083-1.077,0.25-1.506c0.167-0.43,0.387-0.787,0.662-1.067c0.274-0.283,0.592-0.495,0.95-0.639
				c0.358-0.143,0.724-0.212,1.099-0.212c0.875,0,1.544,0.274,2.011,0.82c0.465,0.546,0.699,1.377,0.699,2.49
				c0,0.05,0,0.115,0,0.194c0,0.081-0.004,0.151-0.012,0.219h-4.448c0.05,0.675,0.245,1.187,0.588,1.536
				c0.34,0.35,0.874,0.524,1.598,0.524c0.409,0,0.752-0.034,1.031-0.105c0.279-0.071,0.489-0.14,0.631-0.206l0.162,0.974
				c-0.142,0.076-0.389,0.153-0.743,0.238c-0.354,0.083-0.755,0.125-1.205,0.125c-0.567,0-1.055-0.085-1.468-0.257
				c-0.413-0.17-0.752-0.402-1.018-0.706c-0.266-0.3-0.464-0.656-0.593-1.069C101.361,56.473,101.297,56.023,101.297,55.532z
				 M105.756,54.895c0.009-0.526-0.122-0.958-0.393-1.295c-0.27-0.338-0.643-0.507-1.119-0.507c-0.266,0-0.501,0.053-0.706,0.157
				c-0.204,0.104-0.377,0.24-0.518,0.405c-0.142,0.166-0.252,0.358-0.332,0.574c-0.08,0.217-0.131,0.436-0.155,0.662h3.223V54.895z"
				/>
			<path d="M112.653,58.266c-0.101,0.065-0.294,0.153-0.582,0.256c-0.288,0.104-0.623,0.157-1.005,0.157
				c-0.392,0-0.76-0.063-1.106-0.188c-0.346-0.124-0.648-0.318-0.906-0.58c-0.258-0.263-0.462-0.591-0.613-0.98
				c-0.149-0.391-0.225-0.857-0.225-1.398c0-0.475,0.071-0.91,0.212-1.305c0.141-0.396,0.347-0.738,0.619-1.025
				c0.27-0.286,0.6-0.512,0.993-0.674c0.391-0.162,0.833-0.242,1.325-0.242c0.541,0,1.012,0.038,1.418,0.117
				c0.403,0.079,0.743,0.151,1.018,0.22v5.797c0,1-0.258,1.722-0.775,2.172c-0.515,0.448-1.299,0.674-2.349,0.674
				c-0.408,0-0.792-0.033-1.154-0.1c-0.363-0.066-0.677-0.145-0.943-0.238l0.211-1.012c0.234,0.09,0.518,0.173,0.856,0.243
				s0.689,0.105,1.056,0.105c0.69,0,1.188-0.137,1.493-0.411c0.305-0.273,0.456-0.713,0.456-1.311v-0.275L112.653,58.266
				L112.653,58.266z M112.641,53.445c-0.117-0.034-0.273-0.066-0.468-0.094c-0.196-0.03-0.46-0.045-0.793-0.045
				c-0.625,0-1.105,0.206-1.443,0.611c-0.337,0.408-0.505,0.949-0.505,1.624c0,0.375,0.047,0.696,0.143,0.962
				c0.096,0.268,0.225,0.486,0.387,0.661c0.163,0.176,0.35,0.306,0.563,0.387c0.212,0.083,0.431,0.125,0.655,0.125
				c0.308,0,0.591-0.044,0.85-0.132c0.257-0.087,0.463-0.188,0.612-0.304L112.641,53.445L112.641,53.445L112.641,53.445z"/>
			<path d="M116.313,51.246c-0.208,0-0.385-0.069-0.53-0.205c-0.146-0.139-0.219-0.324-0.219-0.559c0-0.232,0.074-0.417,0.219-0.556
				c0.145-0.139,0.323-0.206,0.53-0.206c0.207,0,0.385,0.067,0.53,0.206c0.146,0.139,0.22,0.323,0.22,0.556
				c0,0.234-0.074,0.42-0.22,0.559C116.698,51.177,116.52,51.246,116.313,51.246z M116.9,58.916h-1.162V52.42h1.162V58.916z"/>
			<path d="M124.571,55.518c0,0.516-0.076,0.983-0.226,1.399c-0.149,0.416-0.361,0.774-0.631,1.074
				c-0.271,0.302-0.593,0.53-0.968,0.693c-0.375,0.163-0.783,0.241-1.225,0.241c-0.44,0-0.849-0.079-1.224-0.241
				c-0.375-0.163-0.697-0.394-0.969-0.693c-0.27-0.3-0.48-0.658-0.63-1.074c-0.148-0.416-0.225-0.885-0.225-1.399
				c0-0.507,0.076-0.972,0.225-1.393c0.15-0.421,0.361-0.781,0.63-1.081c0.272-0.299,0.594-0.53,0.969-0.691
				c0.375-0.163,0.784-0.245,1.224-0.245c0.442,0,0.85,0.082,1.225,0.245c0.375,0.161,0.697,0.395,0.968,0.691
				c0.271,0.301,0.481,0.66,0.631,1.081C124.496,54.547,124.571,55.011,124.571,55.518z M123.358,55.518
				c0-0.73-0.164-1.313-0.493-1.743s-0.776-0.644-1.343-0.644c-0.565,0-1.013,0.214-1.343,0.644
				c-0.329,0.43-0.493,1.013-0.493,1.743c0,0.733,0.164,1.313,0.493,1.742c0.33,0.43,0.778,0.646,1.343,0.646
				c0.567,0,1.014-0.216,1.343-0.646C123.194,56.832,123.358,56.252,123.358,55.518z"/>
			<path d="M126.144,52.607c0.267-0.064,0.621-0.137,1.062-0.211c0.442-0.076,0.949-0.112,1.525-0.112
				c0.516,0,0.945,0.073,1.287,0.217c0.341,0.146,0.613,0.351,0.817,0.614c0.205,0.262,0.349,0.576,0.432,0.943
				c0.083,0.367,0.125,0.769,0.125,1.212v3.646h-1.162v-3.397c0-0.399-0.026-0.742-0.08-1.024s-0.145-0.512-0.269-0.689
				c-0.125-0.173-0.291-0.299-0.499-0.378c-0.21-0.081-0.467-0.12-0.775-0.12c-0.125,0-0.253,0.006-0.387,0.014
				c-0.133,0.01-0.261,0.019-0.382,0.031c-0.12,0.014-0.229,0.026-0.323,0.045c-0.097,0.017-0.166,0.028-0.207,0.036v5.485h-1.162
				L126.144,52.607L126.144,52.607z"/>
			<path d="M135.351,52.134c0.466,0,0.86,0.06,1.18,0.18c0.32,0.119,0.579,0.293,0.774,0.513s0.336,0.481,0.418,0.787
				c0.084,0.304,0.125,0.64,0.125,1.006v4.062c-0.1,0.016-0.24,0.039-0.418,0.066c-0.178,0.031-0.38,0.057-0.606,0.082
				c-0.225,0.024-0.469,0.048-0.73,0.069c-0.262,0.021-0.522,0.03-0.78,0.03c-0.368,0-0.705-0.037-1.013-0.113
				c-0.309-0.073-0.575-0.194-0.8-0.355c-0.225-0.162-0.4-0.377-0.525-0.645c-0.123-0.266-0.187-0.587-0.187-0.96
				c0-0.358,0.073-0.667,0.218-0.924c0.146-0.26,0.344-0.466,0.594-0.625c0.25-0.16,0.543-0.275,0.875-0.351
				c0.333-0.077,0.682-0.113,1.05-0.113c0.115,0,0.237,0.009,0.362,0.02c0.125,0.012,0.244,0.029,0.356,0.05
				c0.112,0.021,0.21,0.039,0.293,0.055c0.084,0.017,0.143,0.031,0.175,0.037V54.68c0-0.192-0.02-0.381-0.063-0.568
				c-0.042-0.186-0.115-0.354-0.224-0.499c-0.108-0.147-0.256-0.262-0.443-0.35c-0.188-0.087-0.432-0.132-0.73-0.132
				c-0.382,0-0.719,0.028-1.006,0.083c-0.287,0.053-0.502,0.107-0.644,0.168l-0.137-0.963c0.149-0.065,0.4-0.132,0.75-0.194
				C134.564,52.163,134.943,52.134,135.351,52.134z M135.451,57.955c0.274,0,0.518-0.006,0.73-0.017
				c0.212-0.016,0.389-0.037,0.531-0.071v-1.936c-0.083-0.044-0.218-0.077-0.406-0.107c-0.188-0.029-0.415-0.046-0.681-0.046
				c-0.174,0-0.36,0.015-0.556,0.04c-0.196,0.023-0.375,0.078-0.538,0.155c-0.162,0.079-0.297,0.188-0.405,0.324
				c-0.108,0.139-0.162,0.318-0.162,0.546c0,0.415,0.132,0.704,0.399,0.867C134.631,57.874,134.994,57.955,135.451,57.955z"/>
			<path d="M141.66,58.916c-0.718-0.016-1.225-0.171-1.525-0.462c-0.3-0.293-0.45-0.745-0.45-1.363v-7.793l1.162-0.199v7.806
				c0,0.193,0.017,0.352,0.05,0.476c0.032,0.125,0.086,0.224,0.162,0.301c0.074,0.075,0.176,0.131,0.299,0.168
				c0.125,0.037,0.279,0.07,0.463,0.093L141.66,58.916z"/>
			<path d="M143.059,52.607c0.266-0.064,0.621-0.137,1.062-0.211c0.441-0.076,0.949-0.112,1.524-0.112
				c0.516,0,0.945,0.073,1.286,0.217c0.343,0.146,0.615,0.351,0.82,0.614c0.205,0.262,0.348,0.576,0.433,0.943
				c0.081,0.367,0.125,0.769,0.125,1.212v3.646h-1.164v-3.397c0-0.399-0.026-0.742-0.08-1.024s-0.144-0.512-0.268-0.689
				c-0.125-0.173-0.293-0.299-0.501-0.378c-0.207-0.08-0.465-0.12-0.774-0.12c-0.125,0-0.255,0.006-0.387,0.014
				c-0.134,0.01-0.261,0.019-0.381,0.031c-0.121,0.014-0.229,0.026-0.326,0.045c-0.094,0.017-0.164,0.028-0.206,0.036v5.485h-1.162
				L143.059,52.607L143.059,52.607z"/>
			<path d="M149.804,55.532c0-0.575,0.081-1.077,0.25-1.506c0.167-0.43,0.388-0.787,0.661-1.067
				c0.275-0.283,0.592-0.495,0.949-0.639c0.357-0.142,0.724-0.212,1.099-0.212c0.875,0,1.545,0.274,2.012,0.82
				c0.465,0.547,0.699,1.377,0.699,2.49c0,0.05,0,0.115,0,0.194c0,0.081-0.004,0.151-0.014,0.219h-4.448
				c0.051,0.675,0.246,1.187,0.588,1.536c0.34,0.35,0.875,0.524,1.598,0.524c0.408,0,0.753-0.034,1.032-0.105
				c0.278-0.071,0.489-0.14,0.629-0.206l0.162,0.974c-0.141,0.076-0.388,0.153-0.742,0.238c-0.354,0.083-0.754,0.125-1.205,0.125
				c-0.565,0-1.055-0.085-1.468-0.257c-0.409-0.17-0.752-0.402-1.017-0.706c-0.268-0.3-0.465-0.656-0.594-1.069
				C149.869,56.473,149.804,56.023,149.804,55.532z M154.263,54.895c0.01-0.526-0.123-0.958-0.395-1.295
				c-0.27-0.338-0.643-0.507-1.115-0.507c-0.268,0-0.503,0.053-0.707,0.157c-0.205,0.104-0.376,0.24-0.519,0.405
				c-0.143,0.166-0.252,0.358-0.331,0.574c-0.08,0.217-0.132,0.436-0.157,0.662h3.224V54.895z"/>
			<path d="M161.161,58.266c-0.099,0.065-0.294,0.153-0.58,0.256c-0.288,0.104-0.624,0.157-1.007,0.157
				c-0.391,0-0.76-0.063-1.106-0.188c-0.346-0.124-0.648-0.318-0.906-0.58c-0.259-0.263-0.462-0.591-0.612-0.98
				c-0.148-0.391-0.225-0.857-0.225-1.398c0-0.475,0.07-0.91,0.211-1.305c0.143-0.395,0.35-0.738,0.619-1.025
				c0.27-0.286,0.602-0.512,0.993-0.674s0.833-0.242,1.324-0.242c0.542,0,1.013,0.038,1.419,0.117
				c0.403,0.079,0.741,0.151,1.018,0.22v5.797c0,1-0.26,1.722-0.775,2.172c-0.516,0.448-1.297,0.674-2.35,0.674
				c-0.406,0-0.791-0.033-1.153-0.1c-0.364-0.066-0.677-0.145-0.944-0.238l0.211-1.012c0.235,0.09,0.521,0.173,0.857,0.243
				c0.336,0.07,0.689,0.105,1.053,0.105c0.691,0,1.189-0.137,1.496-0.411c0.303-0.273,0.455-0.713,0.455-1.311v-0.275
				L161.161,58.266L161.161,58.266z M161.148,53.445c-0.115-0.034-0.273-0.066-0.467-0.094c-0.196-0.03-0.461-0.045-0.794-0.045
				c-0.624,0-1.106,0.206-1.442,0.611c-0.338,0.408-0.506,0.949-0.506,1.624c0,0.375,0.046,0.696,0.143,0.962
				c0.098,0.268,0.225,0.486,0.387,0.661c0.164,0.176,0.351,0.306,0.563,0.387c0.212,0.083,0.432,0.125,0.657,0.125
				c0.307,0,0.592-0.044,0.852-0.132c0.256-0.087,0.463-0.188,0.609-0.304v-3.797L161.148,53.445L161.148,53.445z"/>
			<path d="M169.979,55.518c0,0.516-0.076,0.983-0.224,1.399c-0.151,0.416-0.362,0.774-0.63,1.074
				c-0.273,0.302-0.596,0.53-0.971,0.693c-0.373,0.163-0.782,0.241-1.224,0.241c-0.44,0-0.852-0.079-1.225-0.241
				c-0.371-0.162-0.697-0.394-0.969-0.693s-0.48-0.658-0.631-1.074c-0.146-0.416-0.223-0.885-0.223-1.399
				c0-0.507,0.076-0.972,0.223-1.393c0.15-0.421,0.362-0.781,0.631-1.081c0.271-0.298,0.596-0.53,0.969-0.691
				c0.373-0.163,0.784-0.245,1.225-0.245c0.441,0,0.851,0.082,1.224,0.245c0.375,0.161,0.697,0.395,0.971,0.691
				c0.271,0.301,0.479,0.66,0.63,1.081C169.903,54.547,169.979,55.011,169.979,55.518z M168.767,55.518
				c0-0.73-0.165-1.313-0.493-1.743c-0.329-0.43-0.778-0.644-1.343-0.644c-0.565,0-1.014,0.214-1.342,0.644
				c-0.33,0.43-0.494,1.013-0.494,1.743c0,0.733,0.164,1.313,0.494,1.742c0.328,0.43,0.776,0.646,1.342,0.646
				c0.564,0,1.014-0.216,1.343-0.646C168.602,56.832,168.767,56.252,168.767,55.518z"/>
		</g>
	</g>
	<g>
		<g>
			<path d="M38.366,26.145c-0.896,0-1.665-0.129-2.309-0.388c-0.644-0.258-1.177-0.622-1.601-1.088
				c-0.423-0.466-0.735-1.015-0.937-1.647c-0.202-0.631-0.303-1.324-0.303-2.082v-8.197h2.403v7.97c0,0.592,0.067,1.101,0.199,1.524
				c0.132,0.423,0.321,0.766,0.567,1.03c0.246,0.266,0.538,0.461,0.871,0.588c0.334,0.125,0.71,0.188,1.126,0.188
				c0.416,0,0.795-0.063,1.136-0.188c0.34-0.126,0.634-0.321,0.88-0.588c0.246-0.265,0.436-0.607,0.567-1.03
				c0.133-0.423,0.199-0.932,0.199-1.524v-7.97h2.404v8.196c0,0.758-0.104,1.452-0.312,2.083c-0.208,0.631-0.525,1.181-0.947,1.647
				c-0.422,0.466-0.962,0.83-1.619,1.088C40.039,26.016,39.262,26.145,38.366,26.145z"/>
			<path d="M46.392,16.548c0.442-0.125,1.016-0.245,1.723-0.36c0.707-0.112,1.489-0.17,2.347-0.17c0.808,0,1.484,0.11,2.025,0.331
				c0.542,0.222,0.976,0.531,1.297,0.929c0.322,0.396,0.549,0.877,0.683,1.439c0.132,0.561,0.199,1.176,0.199,1.845v5.565h-2.291
				v-5.205c0-0.53-0.035-0.981-0.104-1.354c-0.069-0.372-0.182-0.675-0.341-0.909c-0.158-0.233-0.372-0.404-0.643-0.511
				c-0.271-0.107-0.603-0.162-0.994-0.162c-0.291,0-0.593,0.02-0.909,0.058c-0.316,0.038-0.548,0.069-0.701,0.094v7.989h-2.291
				V16.548z"/>
			<path d="M59.908,13.33c0,0.43-0.139,0.77-0.417,1.022c-0.277,0.253-0.605,0.379-0.984,0.379c-0.391,0-0.726-0.127-1.003-0.379
				c-0.277-0.252-0.416-0.592-0.416-1.022c0-0.44,0.138-0.788,0.416-1.041c0.278-0.253,0.613-0.379,1.003-0.379
				c0.379,0,0.708,0.126,0.984,0.379C59.769,12.541,59.908,12.889,59.908,13.33z M59.662,26.127h-2.292v-9.9h2.292V26.127z"/>
			<path d="M65.757,15.792c0.758,0,1.395,0.095,1.912,0.284c0.518,0.189,0.931,0.453,1.241,0.794c0.309,0.34,0.53,0.754,0.663,1.24
				c0.132,0.485,0.198,1.019,0.198,1.6v6.001c-0.353,0.076-0.886,0.167-1.6,0.273c-0.713,0.108-1.517,0.161-2.414,0.161
				c-0.593,0-1.135-0.057-1.627-0.17c-0.493-0.113-0.912-0.295-1.258-0.549c-0.348-0.251-0.619-0.579-0.814-0.984
				c-0.196-0.403-0.294-0.9-0.294-1.495c0-0.569,0.11-1.047,0.332-1.44c0.221-0.39,0.521-0.708,0.9-0.955
				c0.378-0.247,0.816-0.423,1.315-0.53c0.498-0.107,1.019-0.161,1.561-0.161c0.253,0,0.518,0.016,0.795,0.047
				s0.575,0.085,0.891,0.161V19.69c0-0.265-0.032-0.517-0.095-0.757c-0.063-0.24-0.173-0.45-0.331-0.634s-0.366-0.325-0.625-0.426
				c-0.259-0.101-0.583-0.152-0.975-0.152c-0.53,0-1.016,0.038-1.458,0.114c-0.441,0.075-0.801,0.164-1.079,0.266l-0.284-1.856
				c0.29-0.1,0.712-0.202,1.269-0.302C64.534,15.841,65.126,15.792,65.757,15.792z M65.947,24.328c0.706,0,1.242-0.039,1.608-0.114
				v-2.537c-0.127-0.038-0.309-0.076-0.549-0.113c-0.24-0.039-0.505-0.058-0.795-0.058c-0.253,0-0.508,0.019-0.767,0.058
				c-0.258,0.038-0.492,0.107-0.7,0.208c-0.208,0.101-0.375,0.243-0.501,0.425c-0.126,0.183-0.19,0.415-0.19,0.69
				c0,0.545,0.17,0.918,0.512,1.126C64.906,24.223,65.367,24.328,65.947,24.328z"/>
			<path d="M76.869,26.127V13.009h8.424v2.024h-6.039v3.238h5.376v1.987h-5.376v3.845h6.493v2.024H76.869z"/>
			<path d="M95.534,25.617c-0.442,0.112-1.016,0.229-1.723,0.35c-0.707,0.12-1.483,0.179-2.328,0.179
				c-0.795,0-1.461-0.112-1.998-0.34c-0.537-0.227-0.965-0.542-1.287-0.947c-0.322-0.403-0.552-0.886-0.691-1.446
				c-0.138-0.561-0.208-1.178-0.208-1.847v-5.547h2.291v5.188c0,1.06,0.155,1.816,0.464,2.271c0.309,0.454,0.849,0.681,1.619,0.681
				c0.277,0,0.57-0.012,0.879-0.037c0.31-0.025,0.54-0.057,0.692-0.095v-8.008h2.29V25.617z"/>
			<path d="M103.976,18.29c-0.189-0.063-0.451-0.129-0.785-0.198c-0.335-0.07-0.723-0.105-1.164-0.105
				c-0.253,0-0.521,0.026-0.804,0.077c-0.284,0.05-0.483,0.094-0.596,0.133v7.932h-2.291v-9.429
				c0.441-0.164,0.994-0.318,1.657-0.463c0.662-0.146,1.397-0.218,2.205-0.218c0.151,0,0.327,0.01,0.531,0.029
				c0.202,0.018,0.403,0.044,0.606,0.076c0.202,0.031,0.397,0.069,0.586,0.114c0.19,0.043,0.341,0.084,0.455,0.123L103.976,18.29z"
				/>
			<path d="M114.805,20.922c0,0.782-0.114,1.494-0.341,2.138c-0.227,0.644-0.549,1.193-0.966,1.647
				c-0.416,0.456-0.917,0.81-1.505,1.061c-0.585,0.252-1.233,0.377-1.939,0.377c-0.707,0-1.352-0.125-1.931-0.377
				c-0.581-0.252-1.079-0.606-1.496-1.061c-0.416-0.454-0.741-1.003-0.974-1.647c-0.234-0.643-0.351-1.355-0.351-2.138
				c0-0.783,0.117-1.493,0.351-2.13c0.233-0.636,0.562-1.183,0.984-1.638c0.423-0.454,0.925-0.805,1.506-1.049
				c0.58-0.247,1.216-0.37,1.911-0.37c0.694,0,1.334,0.123,1.921,0.37c0.586,0.245,1.089,0.595,1.505,1.049
				c0.417,0.455,0.741,1.001,0.975,1.638C114.688,19.428,114.805,20.139,114.805,20.922z M112.457,20.922
				c0-0.985-0.211-1.765-0.634-2.338c-0.423-0.574-1.012-0.862-1.77-0.862c-0.757,0-1.347,0.288-1.771,0.862
				c-0.422,0.573-0.632,1.353-0.632,2.338c0,0.997,0.21,1.786,0.632,2.366c0.424,0.58,1.013,0.869,1.771,0.869
				c0.757,0,1.346-0.289,1.77-0.869C112.246,22.708,112.457,21.919,112.457,20.922z"/>
			<path d="M125.973,21.187c0,0.756-0.097,1.451-0.293,2.082c-0.196,0.631-0.476,1.173-0.842,1.627
				c-0.366,0.455-0.823,0.808-1.372,1.061c-0.55,0.251-1.171,0.378-1.865,0.378c-0.466,0-0.896-0.057-1.288-0.17
				s-0.713-0.241-0.966-0.378v3.844h-2.291V16.548c0.466-0.125,1.042-0.245,1.723-0.36c0.682-0.112,1.4-0.17,2.159-0.17
				c0.781,0,1.482,0.12,2.102,0.359c0.618,0.24,1.144,0.583,1.58,1.032c0.435,0.448,0.77,0.99,1.004,1.627
				C125.856,19.675,125.973,20.392,125.973,21.187z M123.625,21.224c0-1.023-0.229-1.817-0.69-2.385
				c-0.46-0.568-1.201-0.853-2.224-0.853c-0.214,0-0.438,0.01-0.671,0.029c-0.234,0.019-0.464,0.06-0.691,0.123v5.66
				c0.203,0.138,0.47,0.268,0.804,0.388c0.335,0.121,0.691,0.18,1.07,0.18c0.834,0,1.441-0.283,1.827-0.852
				C123.435,22.947,123.625,22.183,123.625,21.224z"/>
			<path d="M127.677,20.997c0-0.872,0.129-1.634,0.388-2.291c0.258-0.656,0.603-1.202,1.033-1.637
				c0.429-0.436,0.919-0.764,1.476-0.985c0.556-0.221,1.124-0.332,1.703-0.332c1.364,0,2.426,0.424,3.191,1.268
				c0.762,0.847,1.146,2.108,1.146,3.787c0,0.126-0.005,0.267-0.011,0.426c-0.005,0.158-0.016,0.3-0.028,0.426h-6.53
				c0.063,0.793,0.343,1.409,0.842,1.845c0.498,0.436,1.22,0.653,2.168,0.653c0.555,0,1.063-0.05,1.523-0.15
				c0.462-0.102,0.823-0.209,1.089-0.322l0.304,1.874c-0.126,0.063-0.301,0.13-0.521,0.198c-0.22,0.069-0.473,0.133-0.756,0.19
				s-0.591,0.104-0.918,0.142c-0.329,0.039-0.663,0.057-1.003,0.057c-0.871,0-1.628-0.129-2.271-0.388
				c-0.644-0.258-1.174-0.618-1.591-1.079c-0.417-0.459-0.726-1.003-0.928-1.628C127.777,22.425,127.677,21.741,127.677,20.997z
				 M134.321,19.974c0-0.316-0.045-0.615-0.132-0.898c-0.089-0.285-0.218-0.531-0.389-0.739c-0.171-0.208-0.379-0.37-0.625-0.492
				c-0.247-0.119-0.54-0.18-0.88-0.18c-0.354,0-0.663,0.066-0.927,0.199c-0.266,0.132-0.49,0.307-0.672,0.521
				c-0.184,0.214-0.326,0.46-0.426,0.738c-0.102,0.277-0.171,0.562-0.209,0.852H134.321z"/>
			<path d="M137.652,29.647c-0.164,0-0.394-0.015-0.69-0.047c-0.296-0.031-0.559-0.091-0.787-0.181l0.303-1.873
				c0.279,0.088,0.613,0.132,1.004,0.132c0.531,0,0.903-0.156,1.117-0.465c0.214-0.31,0.322-0.773,0.322-1.392v-9.597h2.291v9.635
				c0,1.288-0.307,2.241-0.918,2.859C139.681,29.339,138.801,29.647,137.652,29.647z M141.458,13.33c0,0.43-0.138,0.77-0.417,1.022
				c-0.277,0.253-0.606,0.379-0.983,0.379c-0.392,0-0.726-0.127-1.003-0.379c-0.278-0.253-0.418-0.592-0.418-1.022
				c0-0.44,0.14-0.788,0.418-1.041c0.276-0.252,0.611-0.379,1.003-0.379c0.377,0,0.706,0.126,0.983,0.379
				C141.319,12.541,141.458,12.889,141.458,13.33z"/>
			<path d="M146.492,24.253c0.606,0,1.049-0.073,1.326-0.217c0.277-0.146,0.417-0.394,0.417-0.748c0-0.328-0.148-0.599-0.445-0.813
				c-0.296-0.215-0.785-0.449-1.467-0.702c-0.416-0.153-0.797-0.313-1.144-0.482c-0.348-0.171-0.647-0.369-0.898-0.596
				c-0.253-0.228-0.453-0.502-0.597-0.824c-0.145-0.321-0.218-0.714-0.218-1.183c0-0.909,0.334-1.624,1.003-2.149
				c0.669-0.522,1.578-0.785,2.726-0.785c0.58,0,1.136,0.054,1.664,0.161c0.531,0.107,0.927,0.21,1.194,0.312l-0.416,1.855
				c-0.252-0.112-0.575-0.218-0.965-0.313c-0.393-0.096-0.846-0.142-1.363-0.142c-0.468,0-0.847,0.081-1.137,0.237
				c-0.289,0.157-0.435,0.401-0.435,0.729c0,0.164,0.029,0.31,0.085,0.435c0.056,0.128,0.154,0.243,0.293,0.351
				c0.139,0.107,0.321,0.214,0.549,0.322c0.228,0.107,0.505,0.216,0.833,0.331c0.543,0.201,1.006,0.401,1.382,0.595
				c0.377,0.196,0.691,0.417,0.938,0.663c0.245,0.246,0.426,0.526,0.539,0.842c0.113,0.317,0.172,0.695,0.172,1.136
				c0,0.947-0.351,1.663-1.05,2.149c-0.701,0.485-1.702,0.728-3.002,0.728c-0.871,0-1.57-0.072-2.102-0.216
				c-0.53-0.146-0.902-0.263-1.117-0.35l0.397-1.913c0.341,0.139,0.749,0.271,1.222,0.398
				C145.347,24.189,145.887,24.253,146.492,24.253z"/>
			<path d="M154.839,20.088c0.291-0.303,0.6-0.627,0.928-0.975c0.33-0.348,0.65-0.693,0.965-1.041
				c0.316-0.347,0.616-0.682,0.9-1.003c0.283-0.321,0.528-0.604,0.729-0.843h2.706c-0.63,0.707-1.296,1.438-1.997,2.196
				c-0.7,0.756-1.404,1.495-2.109,2.214c0.378,0.316,0.777,0.697,1.193,1.145c0.416,0.448,0.818,0.924,1.209,1.429
				c0.392,0.505,0.758,1.01,1.1,1.515c0.34,0.505,0.625,0.972,0.85,1.401h-2.648c-0.228-0.392-0.489-0.803-0.786-1.232
				c-0.298-0.428-0.616-0.844-0.954-1.249c-0.342-0.403-0.691-0.785-1.044-1.145c-0.353-0.359-0.7-0.665-1.043-0.918v4.544h-2.289
				V13.386l2.289-0.377v7.08H154.839z"/>
			<path d="M166.162,15.792c0.755,0,1.395,0.095,1.911,0.284c0.517,0.189,0.931,0.453,1.238,0.794
				c0.309,0.34,0.531,0.754,0.661,1.24c0.134,0.485,0.199,1.019,0.199,1.6v6.001c-0.353,0.076-0.885,0.167-1.598,0.273
				c-0.712,0.108-1.518,0.161-2.413,0.161c-0.595,0-1.137-0.057-1.627-0.17c-0.494-0.113-0.913-0.295-1.261-0.549
				c-0.348-0.251-0.619-0.579-0.814-0.984c-0.196-0.403-0.293-0.9-0.293-1.495c0-0.569,0.111-1.047,0.332-1.44
				c0.219-0.39,0.519-0.708,0.898-0.955c0.379-0.247,0.816-0.423,1.316-0.53c0.498-0.107,1.019-0.161,1.56-0.161
				c0.253,0,0.519,0.016,0.796,0.047c0.275,0.032,0.573,0.085,0.889,0.161V19.69c0-0.265-0.031-0.517-0.095-0.757
				c-0.063-0.24-0.176-0.45-0.331-0.634c-0.158-0.184-0.367-0.325-0.626-0.426c-0.26-0.101-0.583-0.152-0.976-0.152
				c-0.531,0-1.016,0.038-1.458,0.114c-0.44,0.075-0.802,0.164-1.078,0.266l-0.284-1.856c0.291-0.1,0.713-0.202,1.269-0.302
				C164.937,15.841,165.533,15.792,166.162,15.792z M166.35,24.328c0.706,0,1.243-0.039,1.609-0.114v-2.537
				c-0.127-0.038-0.31-0.076-0.55-0.113c-0.241-0.039-0.505-0.058-0.796-0.058c-0.25,0-0.506,0.019-0.765,0.058
				c-0.26,0.038-0.492,0.107-0.7,0.208c-0.209,0.101-0.374,0.243-0.502,0.425c-0.127,0.183-0.188,0.415-0.188,0.69
				c0,0.545,0.169,0.918,0.51,1.126S165.769,24.328,166.35,24.328z"/>
		</g>
	</g>
</g>
</svg>
