<?xml version="1.0" encoding="utf-8"?>
<!-- Generator: Adobe Illustrator 16.0.0, SVG Export Plug-In . SVG Version: 6.00 Build 0)  -->
<!DOCTYPE svg PUBLIC "-//W3C//DTD SVG 1.1//EN" "http://www.w3.org/Graphics/SVG/1.1/DTD/svg11.dtd">
<svg version="1.1" id="Layer_1" xmlns="http://www.w3.org/2000/svg" xmlns:xlink="http://www.w3.org/1999/xlink" x="0px" y="0px"
	 width="168.196px" height="72.712px" viewBox="19.771 7.354 168.196 72.712" enable-background="new 19.771 7.354 168.196 72.712"
	 xml:space="preserve">
<polygon id="XMLID_2607_" fill="#003399" points="56.132,80.066 19.771,73.25 19.771,18.714 56.132,7.354 "/>
<path id="XMLID_2606_" fill="#FFCC00" d="M19.776,60.144V45.984c1.831,0.499,3.868,0.732,5.211-0.08
	c2.937-1.751,7.385-7.114,7.385-7.114s-2.346,5.783-1.46,7.908c0.935,2.254,6.491,2.375,6.491,2.375s-6.281,3.819-9.205,6.352
	c-3.007,2.583-5.094,12.074-5.094,12.074S21.645,61.416,19.776,60.144"/>
<path id="XMLID_2605_" fill="#E21E2C" d="M56.132,35.164c-1.258,0.792-2.492,1.417-3.42,1.597c-2.921,0.563-6.048-2.792-6.048-2.792
	s0.734,4.906-1.103,7.93c-1.935,3.188-8.157,7.175-8.157,7.175s6.878-1.331,8.215,0.802c1.422,2.288,1.612,10.257,1.612,10.257
	s3.504-9.568,6.683-10.87c0.62-0.264,1.394-0.508,2.219-0.741V35.164L56.132,35.164z"/>
<path id="XMLID_2604_" fill="#FFFFFF" d="M32.372,38.791c0,0,3.514-5.507,3.302-7.466c-0.208-1.86-3.852-2.531-3.852-2.531
	s4.771-1.171,6.853-3.042c2.007-1.808,3.763-5.559,3.763-5.559s0.444,3.103,2.229,3.548c1.842,0.464,6.764-1.523,6.764-1.523
	s-3.886,3.675-5.41,5.68c-1.593,2.091,0.645,6.07,0.645,6.07s-4.123-1.435-6.431-1.003C37.962,33.396,32.372,38.791,32.372,38.791"
	/>
<g>
	<path d="M74.3,34.619V20.982h8.618v2.105H76.78v3.484h5.451v2.105H76.78v5.943H74.3z"/>
	<path d="M92.916,34.088c-0.459,0.118-1.056,0.241-1.791,0.364c-0.736,0.125-1.542,0.188-2.421,0.188
		c-0.827,0-1.519-0.118-2.077-0.354c-0.558-0.235-1.003-0.563-1.338-0.984c-0.334-0.419-0.574-0.922-0.719-1.504
		c-0.144-0.584-0.217-1.223-0.217-1.92v-5.764h2.382v5.392c0,1.102,0.161,1.889,0.482,2.361s0.883,0.708,1.683,0.708
		c0.288,0,0.593-0.013,0.915-0.038c0.322-0.027,0.561-0.06,0.718-0.099v-8.325h2.381L92.916,34.088L92.916,34.088z"/>
	<path d="M95.828,24.662c0.459-0.13,1.057-0.255,1.791-0.375c0.735-0.118,1.547-0.177,2.44-0.177c0.839,0,1.542,0.115,2.105,0.345
		c0.563,0.23,1.013,0.552,1.347,0.964c0.335,0.413,0.571,0.912,0.709,1.496c0.138,0.584,0.207,1.222,0.207,1.918v5.786h-2.381
		v-5.411c0-0.551-0.037-1.02-0.108-1.407c-0.072-0.386-0.189-0.702-0.354-0.944c-0.165-0.243-0.388-0.418-0.668-0.532
		c-0.283-0.111-0.628-0.167-1.033-0.167c-0.302,0-0.618,0.02-0.946,0.06c-0.327,0.039-0.57,0.071-0.728,0.098v8.304h-2.381
		L95.828,24.662L95.828,24.662z"/>
	<path d="M115.917,34.07c-0.472,0.143-1.066,0.274-1.78,0.393c-0.716,0.117-1.466,0.178-2.254,0.178
		c-0.814,0-1.543-0.125-2.185-0.374c-0.644-0.25-1.19-0.607-1.643-1.073c-0.454-0.466-0.802-1.03-1.044-1.692
		c-0.243-0.663-0.364-1.407-0.364-2.234c0-0.813,0.102-1.55,0.306-2.213s0.501-1.23,0.896-1.702
		c0.394-0.473,0.872-0.837,1.437-1.092c0.563-0.256,1.215-0.384,1.949-0.384c0.497,0,0.938,0.059,1.318,0.178
		c0.382,0.118,0.709,0.25,0.984,0.394v-3.07l2.38-0.394V34.07L115.917,34.07z M109.091,29.208c0,1.05,0.249,1.873,0.748,2.469
		c0.498,0.597,1.187,0.895,2.065,0.895c0.382,0,0.706-0.016,0.976-0.049c0.268-0.032,0.488-0.069,0.658-0.109v-5.902
		c-0.211-0.146-0.489-0.28-0.837-0.403c-0.348-0.125-0.718-0.188-1.112-0.188c-0.865,0-1.499,0.296-1.898,0.885
		C109.291,27.397,109.091,28.198,109.091,29.208z"/>
	<path d="M127.273,34.088c-0.459,0.118-1.057,0.241-1.791,0.364c-0.734,0.125-1.541,0.188-2.421,0.188
		c-0.826,0-1.52-0.118-2.076-0.354c-0.558-0.235-1.003-0.563-1.337-0.984c-0.335-0.419-0.576-0.922-0.719-1.504
		c-0.144-0.584-0.216-1.223-0.216-1.92v-5.764h2.38v5.392c0,1.102,0.161,1.889,0.482,2.361c0.32,0.472,0.883,0.708,1.683,0.708
		c0.289,0,0.594-0.013,0.917-0.038c0.32-0.027,0.56-0.06,0.718-0.099v-8.325h2.38V34.088L127.273,34.088z"/>
	<path d="M132.763,32.671c0.63,0,1.088-0.076,1.377-0.226c0.29-0.149,0.433-0.41,0.433-0.778c0-0.341-0.153-0.622-0.462-0.846
		c-0.309-0.223-0.816-0.466-1.524-0.728c-0.433-0.158-0.829-0.325-1.189-0.501c-0.36-0.178-0.672-0.384-0.936-0.621
		c-0.261-0.235-0.469-0.52-0.618-0.855c-0.151-0.334-0.227-0.745-0.227-1.229c0-0.945,0.348-1.69,1.044-2.234
		c0.695-0.543,1.64-0.818,2.834-0.818c0.603,0,1.181,0.056,1.729,0.167c0.552,0.113,0.965,0.219,1.241,0.324l-0.433,1.93
		c-0.263-0.119-0.597-0.227-1.005-0.326c-0.406-0.099-0.879-0.147-1.416-0.147c-0.485,0-0.88,0.082-1.182,0.245
		c-0.302,0.164-0.451,0.417-0.451,0.758c0,0.171,0.029,0.321,0.087,0.451c0.06,0.132,0.16,0.253,0.306,0.365
		c0.145,0.112,0.335,0.223,0.571,0.334c0.235,0.112,0.523,0.226,0.866,0.346c0.563,0.209,1.043,0.416,1.436,0.618
		c0.394,0.203,0.718,0.433,0.974,0.688s0.443,0.548,0.561,0.876c0.117,0.328,0.179,0.721,0.179,1.181
		c0,0.985-0.365,1.728-1.092,2.234c-0.729,0.504-1.769,0.758-3.12,0.758c-0.904,0-1.633-0.077-2.186-0.227
		c-0.551-0.151-0.938-0.272-1.16-0.364l0.414-1.987c0.354,0.146,0.777,0.282,1.27,0.414
		C131.575,32.605,132.133,32.671,132.763,32.671z"/>
	<path d="M146.261,26c-0.263,0.276-0.607,0.663-1.033,1.161c-0.427,0.5-0.883,1.053-1.368,1.664
		c-0.484,0.61-0.974,1.246-1.465,1.908c-0.493,0.663-0.935,1.296-1.329,1.9h5.313v1.987h-8.185v-1.477
		c0.287-0.524,0.649-1.094,1.082-1.711s0.881-1.236,1.338-1.859c0.46-0.623,0.916-1.217,1.367-1.781
		c0.452-0.564,0.856-1.056,1.212-1.476h-4.743v-1.987h7.813L146.261,26L146.261,26z"/>
	<path d="M147.56,29.288c0-0.906,0.134-1.699,0.403-2.382c0.269-0.682,0.626-1.25,1.072-1.702c0.445-0.452,0.957-0.793,1.535-1.023
		c0.577-0.229,1.167-0.343,1.771-0.343c1.417,0,2.522,0.439,3.316,1.318c0.793,0.879,1.189,2.191,1.189,3.937
		c0,0.131-0.003,0.278-0.01,0.442c-0.008,0.165-0.017,0.312-0.029,0.442h-6.79c0.065,0.827,0.358,1.467,0.877,1.92
		c0.518,0.452,1.27,0.678,2.254,0.678c0.576,0,1.104-0.051,1.584-0.157c0.479-0.104,0.855-0.216,1.131-0.334l0.316,1.949
		c-0.132,0.065-0.313,0.135-0.542,0.206c-0.229,0.072-0.491,0.138-0.785,0.196c-0.295,0.059-0.615,0.108-0.955,0.147
		c-0.34,0.04-0.688,0.06-1.043,0.06c-0.905,0-1.691-0.134-2.36-0.403c-0.67-0.269-1.219-0.643-1.652-1.122s-0.756-1.043-0.965-1.692
		C147.665,30.772,147.56,30.062,147.56,29.288z M154.466,28.225c0-0.329-0.046-0.64-0.139-0.935
		c-0.091-0.296-0.225-0.552-0.403-0.768c-0.177-0.217-0.393-0.386-0.65-0.513c-0.255-0.123-0.559-0.186-0.915-0.186
		c-0.367,0-0.688,0.068-0.964,0.206c-0.276,0.139-0.51,0.317-0.698,0.542c-0.188,0.224-0.338,0.479-0.444,0.767
		c-0.104,0.289-0.177,0.584-0.217,0.886h4.43L154.466,28.225L154.466,28.225z"/>
	<path d="M74.3,52.798V39.161h8.757v2.105H76.78v3.365h5.588v2.067H76.78v3.992h6.75v2.107L74.3,52.798L74.3,52.798z"/>
	<path d="M93.703,52.267c-0.46,0.116-1.056,0.24-1.791,0.364c-0.735,0.125-1.542,0.186-2.42,0.186c-0.827,0-1.52-0.118-2.077-0.354
		c-0.558-0.234-1.004-0.563-1.338-0.983c-0.334-0.42-0.574-0.92-0.718-1.507c-0.144-0.583-0.217-1.222-0.217-1.917v-5.767h2.382
		v5.393c0,1.101,0.161,1.888,0.482,2.36c0.321,0.472,0.883,0.708,1.683,0.708c0.288,0,0.592-0.013,0.914-0.039
		c0.321-0.026,0.561-0.06,0.718-0.099V42.29h2.382V52.267z"/>
	<path d="M102.479,44.651c-0.197-0.066-0.47-0.135-0.817-0.207c-0.348-0.073-0.751-0.11-1.21-0.11c-0.263,0-0.542,0.026-0.836,0.081
		c-0.296,0.051-0.502,0.099-0.62,0.139v8.244h-2.381v-9.801c0.46-0.17,1.033-0.332,1.722-0.482s1.454-0.227,2.293-0.227
		c0.157,0,0.34,0.009,0.552,0.031c0.21,0.018,0.419,0.045,0.629,0.078c0.21,0.033,0.413,0.072,0.61,0.119
		c0.197,0.045,0.354,0.087,0.471,0.127L102.479,44.651z"/>
	<path d="M113.735,47.387c0,0.813-0.117,1.554-0.354,2.222c-0.237,0.669-0.57,1.24-1.004,1.713c-0.432,0.474-0.953,0.84-1.563,1.103
		c-0.611,0.262-1.283,0.393-2.018,0.393s-1.404-0.131-2.007-0.393c-0.604-0.263-1.122-0.629-1.554-1.103
		c-0.434-0.473-0.773-1.044-1.014-1.713c-0.244-0.668-0.365-1.41-0.365-2.222c0-0.813,0.121-1.553,0.365-2.216
		c0.241-0.661,0.583-1.228,1.022-1.701c0.439-0.472,0.961-0.837,1.564-1.091c0.604-0.256,1.267-0.384,1.987-0.384
		c0.72,0,1.387,0.128,1.996,0.384c0.61,0.254,1.132,0.619,1.565,1.091c0.433,0.473,0.771,1.04,1.013,1.701
		C113.613,45.834,113.735,46.571,113.735,47.387z M111.294,47.387c0-1.023-0.218-1.833-0.658-2.429
		c-0.439-0.598-1.052-0.896-1.84-0.896c-0.786,0-1.4,0.297-1.839,0.896c-0.441,0.596-0.659,1.406-0.659,2.429
		c0,1.036,0.218,1.854,0.659,2.459c0.438,0.603,1.052,0.904,1.839,0.904c0.788,0,1.4-0.302,1.84-0.904
		C111.077,49.241,111.294,48.423,111.294,47.387z"/>
	<path d="M125.344,47.663c0,0.785-0.102,1.508-0.304,2.163c-0.206,0.654-0.496,1.22-0.877,1.691
		c-0.382,0.474-0.855,0.84-1.427,1.104c-0.571,0.262-1.216,0.392-1.938,0.392c-0.485,0-0.931-0.059-1.338-0.178
		c-0.406-0.117-0.741-0.25-1.004-0.393v3.995h-2.38V42.84c0.484-0.13,1.082-0.254,1.789-0.375c0.708-0.116,1.455-0.177,2.243-0.177
		c0.815,0,1.543,0.125,2.186,0.374c0.643,0.25,1.189,0.607,1.644,1.073c0.452,0.466,0.798,1.03,1.043,1.692
		C125.223,46.091,125.344,46.835,125.344,47.663z M122.905,47.702c0-1.063-0.241-1.888-0.719-2.48
		c-0.479-0.59-1.25-0.886-2.313-0.886c-0.223,0-0.456,0.012-0.698,0.03c-0.243,0.02-0.482,0.064-0.719,0.128v5.884
		c0.211,0.144,0.488,0.278,0.836,0.403c0.35,0.126,0.719,0.187,1.114,0.187c0.865,0,1.498-0.296,1.898-0.886
		C122.705,49.492,122.905,48.699,122.905,47.702z"/>
	<path d="M127.116,47.466c0-0.905,0.134-1.699,0.403-2.382c0.269-0.682,0.626-1.25,1.072-1.702c0.445-0.454,0.958-0.793,1.535-1.023
		c0.578-0.23,1.167-0.345,1.771-0.345c1.417,0,2.522,0.441,3.316,1.319c0.793,0.88,1.189,2.19,1.189,3.936
		c0,0.131-0.003,0.278-0.011,0.442c-0.006,0.163-0.017,0.313-0.028,0.443h-6.788c0.064,0.826,0.355,1.466,0.875,1.92
		c0.518,0.451,1.27,0.679,2.254,0.679c0.577,0,1.104-0.051,1.584-0.158c0.48-0.104,0.856-0.217,1.132-0.333l0.316,1.947
		c-0.132,0.066-0.313,0.135-0.543,0.209c-0.229,0.071-0.491,0.137-0.786,0.195c-0.293,0.058-0.613,0.108-0.952,0.148
		c-0.342,0.04-0.689,0.059-1.045,0.059c-0.904,0-1.691-0.135-2.36-0.402c-0.67-0.27-1.22-0.644-1.653-1.121
		c-0.433-0.48-0.753-1.044-0.963-1.692C127.222,48.952,127.116,48.237,127.116,47.466z M134.022,46.401
		c0-0.328-0.045-0.639-0.138-0.935c-0.092-0.296-0.226-0.551-0.404-0.767c-0.178-0.217-0.393-0.384-0.649-0.512
		c-0.255-0.124-0.559-0.186-0.916-0.186c-0.368,0-0.688,0.069-0.964,0.207c-0.276,0.139-0.509,0.319-0.698,0.542
		c-0.189,0.222-0.339,0.48-0.443,0.767c-0.105,0.287-0.177,0.583-0.217,0.885L134.022,46.401L134.022,46.401z"/>
	<path d="M137.485,56.457c-0.17,0-0.409-0.018-0.718-0.051c-0.309-0.034-0.581-0.094-0.816-0.186l0.314-1.948
		c0.288,0.091,0.637,0.137,1.043,0.137c0.551,0,0.938-0.16,1.161-0.482c0.223-0.322,0.335-0.803,0.335-1.446v-9.974h2.381v10.014
		c0,1.339-0.318,2.328-0.954,2.974C139.594,56.136,138.679,56.457,137.485,56.457z M141.441,39.495c0,0.446-0.146,0.798-0.434,1.062
		c-0.288,0.263-0.629,0.395-1.022,0.395c-0.407,0-0.754-0.132-1.043-0.395c-0.289-0.263-0.433-0.616-0.433-1.062
		c0-0.459,0.144-0.819,0.433-1.082c0.287-0.263,0.636-0.394,1.043-0.394c0.394,0,0.734,0.132,1.022,0.394
		C141.295,38.676,141.441,39.036,141.441,39.495z"/>
	<path d="M146.675,50.849c0.63,0,1.087-0.075,1.377-0.226c0.289-0.151,0.432-0.411,0.432-0.777c0-0.342-0.153-0.623-0.461-0.848
		c-0.31-0.222-0.816-0.463-1.525-0.728c-0.433-0.157-0.829-0.324-1.189-0.501c-0.36-0.178-0.673-0.384-0.936-0.619
		c-0.261-0.237-0.469-0.521-0.618-0.855c-0.15-0.334-0.225-0.745-0.225-1.229c0-0.946,0.347-1.688,1.043-2.234
		c0.695-0.543,1.639-0.817,2.834-0.817c0.603,0,1.179,0.057,1.729,0.167c0.552,0.113,0.964,0.22,1.24,0.326l-0.432,1.927
		c-0.264-0.118-0.597-0.226-1.004-0.323c-0.408-0.099-0.881-0.149-1.419-0.149c-0.483,0-0.88,0.083-1.182,0.247
		c-0.301,0.164-0.451,0.417-0.451,0.757c0,0.17,0.03,0.321,0.088,0.452c0.06,0.132,0.16,0.252,0.306,0.364
		c0.145,0.112,0.334,0.221,0.571,0.334c0.235,0.112,0.522,0.226,0.865,0.344c0.563,0.21,1.043,0.419,1.437,0.62
		c0.393,0.204,0.718,0.434,0.974,0.689c0.255,0.253,0.443,0.547,0.561,0.873c0.117,0.329,0.178,0.724,0.178,1.183
		c0,0.984-0.363,1.729-1.091,2.233c-0.729,0.505-1.768,0.757-3.12,0.757c-0.905,0-1.633-0.075-2.186-0.227
		c-0.552-0.151-0.938-0.271-1.159-0.362l0.413-1.988c0.354,0.146,0.778,0.282,1.269,0.414
		C145.485,50.783,146.044,50.849,146.675,50.849z"/>
	<path d="M155.352,46.521c0.302-0.316,0.623-0.652,0.964-1.014c0.342-0.36,0.677-0.721,1.004-1.083
		c0.328-0.36,0.641-0.708,0.935-1.042c0.295-0.334,0.548-0.626,0.758-0.875h2.813c-0.656,0.734-1.348,1.493-2.076,2.282
		c-0.728,0.786-1.459,1.554-2.193,2.303c0.394,0.328,0.807,0.725,1.24,1.188c0.432,0.468,0.853,0.962,1.259,1.486
		c0.407,0.524,0.786,1.049,1.142,1.573c0.354,0.526,0.65,1.01,0.885,1.457h-2.755c-0.236-0.407-0.51-0.834-0.817-1.281
		c-0.31-0.445-0.642-0.879-0.994-1.298c-0.354-0.419-0.717-0.816-1.083-1.19c-0.368-0.373-0.728-0.69-1.083-0.953v4.724h-2.381
		V39.553l2.381-0.392v7.36H155.352z"/>
	<path d="M166.35,39.495c0,0.446-0.144,0.798-0.432,1.062c-0.288,0.263-0.629,0.395-1.022,0.395c-0.407,0-0.755-0.132-1.043-0.395
		c-0.289-0.263-0.433-0.616-0.433-1.062c0-0.459,0.144-0.819,0.433-1.082c0.288-0.263,0.636-0.394,1.043-0.394
		c0.394,0,0.734,0.132,1.022,0.394C166.208,38.676,166.35,39.036,166.35,39.495z M166.096,52.798h-2.382V42.506h2.382V52.798z"/>
	<path d="M168.438,47.466c0-0.905,0.134-1.699,0.403-2.382c0.27-0.682,0.626-1.25,1.072-1.702c0.446-0.454,0.958-0.793,1.536-1.023
		c0.576-0.23,1.166-0.345,1.771-0.345c1.418,0,2.522,0.441,3.316,1.319c0.792,0.88,1.188,2.19,1.188,3.936
		c0,0.131-0.003,0.278-0.009,0.442c-0.007,0.163-0.017,0.313-0.03,0.443h-6.788c0.063,0.826,0.356,1.466,0.875,1.92
		c0.518,0.451,1.27,0.679,2.254,0.679c0.578,0,1.105-0.051,1.585-0.158c0.479-0.104,0.855-0.217,1.131-0.333l0.315,1.947
		c-0.13,0.066-0.312,0.135-0.541,0.209c-0.229,0.071-0.491,0.137-0.785,0.195c-0.296,0.058-0.615,0.108-0.954,0.148
		c-0.343,0.04-0.688,0.059-1.044,0.059c-0.905,0-1.691-0.135-2.361-0.402c-0.669-0.27-1.219-0.644-1.653-1.121
		c-0.434-0.48-0.753-1.044-0.964-1.692C168.543,48.952,168.438,48.237,168.438,47.466z M175.345,46.401
		c0-0.328-0.047-0.639-0.138-0.935c-0.093-0.296-0.227-0.551-0.406-0.767c-0.175-0.217-0.391-0.384-0.648-0.512
		c-0.255-0.124-0.56-0.186-0.915-0.186c-0.367,0-0.689,0.069-0.965,0.207c-0.277,0.139-0.509,0.319-0.698,0.542
		c-0.189,0.222-0.338,0.48-0.442,0.767c-0.107,0.287-0.179,0.583-0.218,0.885L175.345,46.401L175.345,46.401z"/>
</g>
<g>
	<path d="M74.315,61.99h1.26v8.999h-1.26V61.99z"/>
	<path d="M77.667,64.431c0.277-0.069,0.645-0.144,1.104-0.221s0.987-0.116,1.585-0.116c0.536,0,0.983,0.075,1.337,0.227
		c0.355,0.151,0.638,0.362,0.851,0.637c0.212,0.272,0.361,0.6,0.448,0.981c0.086,0.38,0.129,0.8,0.129,1.258v3.791h-1.208v-3.532
		c0-0.415-0.029-0.771-0.084-1.063c-0.056-0.294-0.15-0.532-0.28-0.717c-0.13-0.182-0.303-0.313-0.52-0.396
		c-0.216-0.082-0.485-0.121-0.805-0.121c-0.13,0-0.265,0.005-0.402,0.013c-0.139,0.009-0.271,0.019-0.396,0.033
		c-0.125,0.013-0.238,0.028-0.337,0.045c-0.1,0.018-0.171,0.031-0.214,0.04v5.7h-1.208V64.431z"/>
	<path d="M86.186,64.079h2.558v1.013h-2.558v3.118c0,0.338,0.025,0.617,0.078,0.838c0.051,0.22,0.129,0.395,0.234,0.519
		c0.104,0.125,0.234,0.214,0.39,0.267c0.155,0.051,0.337,0.077,0.546,0.077c0.363,0,0.656-0.041,0.876-0.122
		c0.221-0.083,0.374-0.141,0.461-0.176l0.234,1.001c-0.122,0.06-0.333,0.135-0.637,0.227c-0.303,0.09-0.649,0.135-1.039,0.135
		c-0.458,0-0.837-0.056-1.136-0.175c-0.299-0.116-0.539-0.291-0.721-0.524c-0.182-0.235-0.309-0.521-0.383-0.864
		c-0.073-0.342-0.11-0.737-0.11-1.188v-6.025l1.208-0.208L86.186,64.079L86.186,64.079z"/>
	<path d="M89.704,67.47c0-0.597,0.086-1.12,0.26-1.564c0.172-0.447,0.402-0.817,0.688-1.111c0.285-0.293,0.615-0.516,0.986-0.661
		c0.373-0.148,0.754-0.222,1.144-0.222c0.909,0,1.605,0.284,2.091,0.853c0.484,0.567,0.727,1.431,0.727,2.588
		c0,0.054,0,0.121,0,0.202c0,0.083-0.005,0.158-0.013,0.228h-4.623c0.052,0.701,0.254,1.233,0.61,1.599
		c0.354,0.363,0.909,0.545,1.661,0.545c0.424,0,0.782-0.037,1.073-0.111c0.29-0.072,0.508-0.146,0.656-0.215l0.167,1.015
		c-0.147,0.076-0.405,0.159-0.772,0.246c-0.368,0.087-0.785,0.13-1.253,0.13c-0.588,0-1.097-0.089-1.526-0.267
		c-0.429-0.177-0.782-0.422-1.057-0.734c-0.277-0.312-0.483-0.681-0.618-1.109C89.771,68.448,89.704,67.979,89.704,67.47z
		 M94.34,66.806c0.009-0.545-0.127-0.992-0.409-1.345c-0.282-0.351-0.668-0.524-1.163-0.524c-0.277,0-0.521,0.054-0.734,0.161
		c-0.212,0.109-0.392,0.251-0.539,0.423c-0.147,0.174-0.261,0.372-0.344,0.597c-0.082,0.225-0.136,0.453-0.162,0.687L94.34,66.806
		L94.34,66.806z"/>
	<path d="M99.3,70.987c-0.744-0.018-1.272-0.177-1.585-0.48c-0.31-0.305-0.467-0.775-0.467-1.417v-8.101l1.208-0.208v8.116
		c0,0.199,0.017,0.364,0.053,0.493c0.034,0.128,0.09,0.233,0.167,0.313c0.078,0.077,0.182,0.137,0.312,0.176
		c0.129,0.039,0.289,0.07,0.48,0.097L99.3,70.987z"/>
	<path d="M101.352,63.014c-0.217,0-0.4-0.07-0.552-0.215c-0.151-0.143-0.227-0.335-0.227-0.578c0-0.242,0.076-0.436,0.227-0.578
		c0.151-0.143,0.335-0.215,0.552-0.215c0.216,0,0.401,0.072,0.551,0.215s0.228,0.336,0.228,0.578c0,0.243-0.076,0.436-0.228,0.578
		C101.753,62.943,101.568,63.014,101.352,63.014z M101.963,70.987h-1.208v-6.752h1.208V70.987z"/>
	<path d="M108.208,70.313c-0.103,0.069-0.306,0.156-0.604,0.267c-0.299,0.107-0.647,0.162-1.046,0.162
		c-0.406,0-0.789-0.065-1.149-0.195c-0.359-0.13-0.673-0.33-0.942-0.604c-0.268-0.272-0.48-0.612-0.636-1.019
		c-0.156-0.407-0.234-0.89-0.234-1.453c0-0.493,0.074-0.946,0.22-1.356c0.147-0.41,0.361-0.766,0.644-1.065
		c0.282-0.299,0.625-0.532,1.032-0.7c0.406-0.17,0.865-0.252,1.377-0.252c0.563,0,1.054,0.041,1.474,0.121
		c0.421,0.084,0.773,0.159,1.059,0.228v6.026c0,1.04-0.268,1.792-0.805,2.259c-0.537,0.468-1.353,0.702-2.442,0.702
		c-0.425,0-0.824-0.035-1.201-0.105c-0.376-0.068-0.703-0.15-0.981-0.245l0.22-1.054c0.244,0.094,0.54,0.18,0.891,0.253
		c0.351,0.072,0.717,0.11,1.097,0.11c0.718,0,1.235-0.143,1.553-0.429c0.316-0.284,0.475-0.741,0.475-1.363V70.313L108.208,70.313z
		 M108.197,65.301c-0.122-0.034-0.284-0.065-0.486-0.097c-0.204-0.031-0.479-0.046-0.825-0.046c-0.649,0-1.149,0.213-1.5,0.635
		c-0.351,0.424-0.526,0.986-0.526,1.688c0,0.39,0.051,0.724,0.15,1c0.1,0.277,0.234,0.507,0.403,0.689
		c0.168,0.182,0.364,0.314,0.583,0.402c0.221,0.084,0.449,0.129,0.682,0.129c0.32,0,0.616-0.046,0.884-0.136
		c0.27-0.091,0.481-0.197,0.638-0.319V65.3L108.197,65.301L108.197,65.301z"/>
	<path d="M111.039,67.47c0-0.597,0.085-1.12,0.26-1.564c0.173-0.447,0.402-0.817,0.687-1.111c0.286-0.293,0.616-0.516,0.987-0.661
		c0.371-0.148,0.752-0.222,1.143-0.222c0.909,0,1.605,0.284,2.091,0.853c0.484,0.567,0.726,1.431,0.726,2.588
		c0,0.054,0,0.121,0,0.202c0,0.083-0.003,0.158-0.014,0.228h-4.621c0.051,0.701,0.255,1.233,0.611,1.599
		c0.354,0.363,0.91,0.545,1.663,0.545c0.423,0,0.781-0.037,1.071-0.111c0.288-0.072,0.509-0.146,0.654-0.215l0.169,1.015
		c-0.148,0.076-0.405,0.159-0.773,0.246s-0.784,0.13-1.253,0.13c-0.588,0-1.098-0.089-1.526-0.267
		c-0.427-0.177-0.781-0.422-1.058-0.734c-0.276-0.312-0.482-0.681-0.617-1.109C111.106,68.448,111.039,67.979,111.039,67.47z
		 M115.676,66.806c0.008-0.545-0.129-0.992-0.409-1.345c-0.283-0.351-0.671-0.524-1.163-0.524c-0.277,0-0.521,0.054-0.732,0.161
		c-0.214,0.109-0.394,0.251-0.541,0.423c-0.147,0.174-0.261,0.372-0.343,0.597c-0.084,0.225-0.138,0.453-0.163,0.687L115.676,66.806
		L115.676,66.806z"/>
	<path d="M118.609,64.431c0.278-0.069,0.646-0.144,1.104-0.221s0.987-0.116,1.586-0.116c0.537,0,0.982,0.075,1.338,0.227
		c0.354,0.151,0.638,0.362,0.852,0.637c0.211,0.272,0.36,0.6,0.447,0.981c0.086,0.38,0.13,0.8,0.13,1.258v3.791h-1.207v-3.532
		c0-0.415-0.028-0.771-0.084-1.063c-0.057-0.294-0.15-0.532-0.28-0.717c-0.13-0.182-0.303-0.313-0.519-0.396
		c-0.218-0.082-0.483-0.121-0.807-0.121c-0.13,0-0.263,0.005-0.402,0.013c-0.139,0.009-0.271,0.019-0.396,0.033
		c-0.125,0.013-0.238,0.028-0.337,0.045c-0.101,0.018-0.172,0.031-0.216,0.04v5.7h-1.209L118.609,64.431L118.609,64.431z"/>
	<path d="M127.13,64.079h2.558v1.013h-2.558v3.118c0,0.338,0.025,0.617,0.078,0.838c0.051,0.22,0.13,0.395,0.233,0.519
		c0.104,0.125,0.233,0.214,0.39,0.267c0.154,0.051,0.337,0.077,0.545,0.077c0.363,0,0.656-0.041,0.877-0.122
		c0.221-0.083,0.375-0.141,0.462-0.176l0.233,1.001c-0.122,0.06-0.333,0.135-0.638,0.227c-0.302,0.09-0.649,0.135-1.038,0.135
		c-0.458,0-0.838-0.056-1.137-0.175c-0.299-0.118-0.538-0.291-0.719-0.524c-0.183-0.235-0.312-0.521-0.385-0.864
		c-0.073-0.342-0.111-0.737-0.111-1.188v-6.025l1.209-0.208V64.079L127.13,64.079z"/>
	<path d="M131.155,64.431c0.277-0.069,0.645-0.144,1.104-0.221c0.458-0.077,0.987-0.116,1.585-0.116
		c0.537,0,0.984,0.075,1.339,0.227c0.353,0.151,0.637,0.362,0.851,0.637c0.213,0.272,0.362,0.6,0.449,0.981
		c0.085,0.38,0.129,0.8,0.129,1.258v3.791h-1.207v-3.532c0-0.415-0.029-0.771-0.084-1.063c-0.056-0.294-0.151-0.532-0.281-0.717
		c-0.129-0.182-0.302-0.313-0.518-0.396c-0.217-0.082-0.484-0.121-0.806-0.121c-0.13,0-0.264,0.005-0.402,0.013
		c-0.138,0.009-0.271,0.019-0.396,0.033c-0.124,0.013-0.238,0.028-0.337,0.045c-0.1,0.018-0.172,0.031-0.215,0.04v5.7h-1.209
		L131.155,64.431L131.155,64.431z"/>
	<path d="M137.52,72.248c0.094,0.044,0.217,0.084,0.369,0.122c0.151,0.04,0.301,0.06,0.448,0.06c0.477,0,0.85-0.106,1.119-0.318
		c0.268-0.213,0.51-0.556,0.726-1.031c-0.545-1.04-1.053-2.141-1.524-3.306c-0.473-1.163-0.864-2.344-1.178-3.538h1.299
		c0.096,0.39,0.211,0.81,0.346,1.258c0.135,0.452,0.283,0.915,0.448,1.39c0.164,0.478,0.343,0.952,0.532,1.428
		c0.19,0.477,0.39,0.935,0.598,1.378c0.329-0.909,0.616-1.81,0.856-2.701c0.242-0.891,0.473-1.811,0.688-2.753h1.247
		c-0.313,1.272-0.657,2.494-1.038,3.668c-0.383,1.173-0.792,2.27-1.235,3.291c-0.173,0.388-0.352,0.725-0.537,1.007
		c-0.186,0.281-0.393,0.513-0.618,0.693c-0.225,0.183-0.479,0.317-0.76,0.403c-0.281,0.087-0.6,0.129-0.953,0.129
		c-0.095,0-0.195-0.007-0.299-0.019c-0.104-0.015-0.207-0.03-0.307-0.052c-0.1-0.02-0.189-0.044-0.271-0.07
		c-0.084-0.027-0.141-0.048-0.176-0.064L137.52,72.248z"/>
	<path d="M152.116,67.222c0.138,0.174,0.314,0.4,0.525,0.683c0.212,0.282,0.431,0.593,0.656,0.935
		c0.223,0.342,0.446,0.7,0.668,1.071c0.221,0.373,0.409,0.732,0.564,1.079h-1.378c-0.172-0.329-0.361-0.662-0.563-1.001
		c-0.203-0.336-0.41-0.658-0.617-0.967c-0.208-0.308-0.414-0.593-0.618-0.863c-0.203-0.269-0.387-0.502-0.552-0.701
		c-0.113,0.009-0.226,0.014-0.344,0.014c-0.117,0-0.236,0-0.357,0h-1.128v3.52h-1.261v-8.871c0.354-0.086,0.752-0.146,1.188-0.176
		c0.438-0.029,0.837-0.046,1.201-0.046c1.265,0,2.228,0.238,2.89,0.714c0.662,0.477,0.992,1.187,0.992,2.131
		c0,0.597-0.158,1.107-0.475,1.531C153.196,66.699,152.729,67.013,152.116,67.222z M150.208,63.001c-0.538,0-0.95,0.013-1.233,0.039
		v3.39h0.895c0.432,0,0.821-0.021,1.168-0.065c0.348-0.043,0.639-0.125,0.877-0.247c0.238-0.121,0.422-0.292,0.552-0.514
		s0.193-0.514,0.193-0.877c0-0.338-0.063-0.618-0.193-0.844s-0.305-0.403-0.525-0.532c-0.22-0.13-0.48-0.221-0.78-0.274
		C150.861,63.026,150.544,63.001,150.208,63.001z"/>
	<path d="M161.699,67.455c0,0.538-0.079,1.021-0.233,1.455c-0.156,0.432-0.376,0.805-0.655,1.116
		c-0.282,0.313-0.617,0.553-1.007,0.72c-0.39,0.171-0.815,0.253-1.273,0.253s-0.884-0.084-1.272-0.253
		c-0.389-0.167-0.725-0.409-1.008-0.72c-0.28-0.312-0.498-0.685-0.653-1.116c-0.155-0.434-0.234-0.919-0.234-1.455
		c0-0.526,0.079-1.011,0.234-1.448c0.155-0.437,0.375-0.811,0.653-1.121c0.283-0.314,0.618-0.552,1.008-0.722
		c0.389-0.169,0.814-0.253,1.272-0.253s0.884,0.084,1.273,0.253c0.388,0.17,0.725,0.409,1.007,0.722
		c0.28,0.312,0.499,0.685,0.655,1.121C161.62,66.444,161.699,66.929,161.699,67.455z M160.437,67.455
		c0-0.761-0.171-1.365-0.514-1.812c-0.342-0.446-0.807-0.67-1.395-0.67s-1.053,0.224-1.396,0.67
		c-0.342,0.446-0.512,1.051-0.512,1.812s0.17,1.365,0.512,1.813c0.344,0.445,0.809,0.669,1.396,0.669s1.053-0.224,1.395-0.669
		C160.268,68.82,160.437,68.216,160.437,67.455z"/>
	<path d="M167.553,65.143c-0.183,0.201-0.421,0.483-0.72,0.847c-0.299,0.362-0.617,0.765-0.961,1.207
		c-0.342,0.442-0.684,0.905-1.025,1.388c-0.343,0.485-0.644,0.95-0.901,1.391h3.714v1.013h-5.156v-0.805
		c0.209-0.383,0.464-0.802,0.766-1.261c0.304-0.457,0.621-0.914,0.954-1.369c0.334-0.453,0.657-0.884,0.975-1.286
		c0.316-0.402,0.589-0.741,0.825-1.019h-3.338v-1.013h4.868V65.143L167.553,65.143z"/>
	<path d="M174.644,70.987c-0.243-0.623-0.499-1.335-0.773-2.137c-0.272-0.801-0.521-1.633-0.747-2.499
		c-0.224,0.866-0.472,1.698-0.739,2.499c-0.27,0.802-0.524,1.514-0.768,2.137h-1.053c-0.397-0.891-0.787-1.908-1.168-3.052
		s-0.741-2.377-1.077-3.7h1.298c0.085,0.406,0.189,0.848,0.312,1.323c0.12,0.477,0.249,0.953,0.385,1.428
		c0.133,0.476,0.274,0.936,0.421,1.377c0.147,0.443,0.285,0.827,0.417,1.154c0.147-0.406,0.29-0.838,0.435-1.291
		c0.143-0.453,0.28-0.914,0.409-1.377c0.13-0.462,0.252-0.918,0.369-1.361c0.117-0.448,0.218-0.864,0.307-1.253h1
		c0.078,0.389,0.172,0.806,0.284,1.253c0.113,0.445,0.235,0.899,0.363,1.361c0.131,0.463,0.267,0.922,0.41,1.377
		c0.143,0.453,0.287,0.885,0.436,1.291c0.13-0.327,0.266-0.713,0.408-1.154c0.144-0.441,0.283-0.901,0.423-1.377
		c0.138-0.477,0.268-0.952,0.388-1.428c0.121-0.477,0.225-0.918,0.313-1.323h1.247c-0.338,1.323-0.695,2.557-1.078,3.7
		c-0.382,1.144-0.771,2.159-1.168,3.052H174.644z"/>
	<path d="M184.953,67.455c0,0.538-0.076,1.021-0.232,1.455c-0.154,0.432-0.375,0.805-0.655,1.116
		c-0.281,0.313-0.618,0.553-1.007,0.72c-0.39,0.171-0.813,0.253-1.271,0.253c-0.46,0-0.884-0.084-1.273-0.253
		c-0.39-0.167-0.725-0.409-1.007-0.72c-0.282-0.312-0.499-0.685-0.655-1.116c-0.155-0.434-0.233-0.919-0.233-1.455
		c0-0.526,0.078-1.011,0.233-1.448c0.156-0.437,0.374-0.811,0.655-1.121c0.282-0.314,0.617-0.552,1.007-0.722
		c0.39-0.169,0.813-0.253,1.273-0.253c0.458,0,0.882,0.084,1.271,0.253c0.389,0.17,0.726,0.409,1.007,0.722
		c0.282,0.312,0.501,0.685,0.655,1.121C184.878,66.444,184.953,66.929,184.953,67.455z M183.695,67.455
		c0-0.761-0.17-1.365-0.514-1.812c-0.342-0.446-0.807-0.67-1.395-0.67c-0.59,0-1.055,0.224-1.396,0.67
		c-0.344,0.446-0.515,1.051-0.515,1.812s0.171,1.365,0.515,1.813c0.342,0.445,0.807,0.669,1.396,0.669
		c0.588,0,1.053-0.224,1.395-0.669C183.525,68.82,183.695,68.216,183.695,67.455z M183.357,61.677l-1.83,1.779l-0.611-0.546
		l1.662-1.998L183.357,61.677z"/>
	<path d="M185.486,73.417c-0.104,0-0.238-0.013-0.402-0.039c-0.165-0.026-0.303-0.061-0.416-0.104l0.154-0.986
		c0.088,0.026,0.186,0.049,0.299,0.065s0.217,0.026,0.313,0.026c0.417,0,0.713-0.128,0.889-0.384
		c0.179-0.255,0.266-0.631,0.266-1.124v-6.635h1.209v6.623c0,0.866-0.196,1.508-0.591,1.929
		C186.815,73.207,186.24,73.417,185.486,73.417z M187.187,63.014c-0.216,0-0.4-0.07-0.551-0.215
		c-0.15-0.143-0.228-0.335-0.228-0.578c0-0.242,0.079-0.436,0.228-0.578c0.15-0.143,0.337-0.215,0.551-0.215
		c0.217,0,0.401,0.072,0.552,0.215c0.151,0.143,0.229,0.336,0.229,0.578c0,0.243-0.077,0.436-0.229,0.578
		C187.588,62.943,187.404,63.014,187.187,63.014z"/>
</g>
</svg>
