<?xml version="1.0" encoding="utf-8"?>
<!-- Generator: Adobe Illustrator 16.0.0, SVG Export Plug-In . SVG Version: 6.00 Build 0)  -->
<!DOCTYPE svg PUBLIC "-//W3C//DTD SVG 1.1//EN" "http://www.w3.org/Graphics/SVG/1.1/DTD/svg11.dtd">
<svg version="1.1" id="Layer_1" xmlns="http://www.w3.org/2000/svg" xmlns:xlink="http://www.w3.org/1999/xlink" x="0px" y="0px"
	 width="145px" height="100px" viewBox="0 0 145 100" enable-background="new 0 0 145 100" xml:space="preserve">
<g id="Layer_15">
	<path fill="#DADAFF" d="M74.73,37.495c-7.745,0-14.022,6.278-14.022,14.022c0,7.744,6.278,14.022,14.022,14.022
		c7.744,0,14.021-6.278,14.021-14.022C88.752,43.774,82.475,37.495,74.73,37.495z M74.752,57.68c-3.313,0-6-2.688-6-6
		c0-3.313,2.687-6,6-6c3.313,0,6,2.687,6,6C80.752,54.992,78.064,57.68,74.752,57.68z"/>
</g>
<g id="Layer_14">
	<path fill="none" stroke="#5E60FF" stroke-width="2" stroke-miterlimit="10" d="M115.05,49.109c0,0-18,18-42,18s-42-18-42-18
		s18-18,42-18S115.05,49.109,115.05,49.109z"/>
	<circle fill="none" stroke="#5E60FF" stroke-width="2" stroke-miterlimit="10" cx="73.05" cy="49.109" r="14"/>
	<circle fill="none" stroke="#5E60FF" stroke-width="3" stroke-miterlimit="10" cx="73.05" cy="49.109" r="6"/>
	<path fill="none" stroke="#5E60FF" stroke-width="2" stroke-miterlimit="10" d="M31.05,55.109c0,0,22.667,25.332,50.667,19.332"/>
	<line fill="none" stroke="#5E60FF" stroke-width="2" stroke-miterlimit="10" x1="73.05" y1="22.775" x2="73.05" y2="31.109"/>
	<line fill="none" stroke="#5E60FF" stroke-width="2" stroke-miterlimit="10" x1="51.05" y1="26.942" x2="54.045" y2="34.75"/>
	<line fill="none" stroke="#5E60FF" stroke-width="2" stroke-miterlimit="10" x1="95.083" y1="26.942" x2="91.878" y2="34.75"/>
	<line fill="none" stroke="#5E60FF" stroke-width="2" stroke-miterlimit="10" x1="33.083" y1="37.771" x2="37.89" y2="43.376"/>
	<line fill="none" stroke="#5E60FF" stroke-width="2" stroke-miterlimit="10" x1="112.327" y1="36.495" x2="107.881" y2="42.496"/>
</g>
</svg>
