<?xml version="1.0" encoding="utf-8"?>
<!-- Generator: Adobe Illustrator 16.0.0, SVG Export Plug-In . SVG Version: 6.00 Build 0)  -->
<!DOCTYPE svg PUBLIC "-//W3C//DTD SVG 1.1//EN" "http://www.w3.org/Graphics/SVG/1.1/DTD/svg11.dtd">
<svg version="1.1" id="Layer_1" xmlns="http://www.w3.org/2000/svg" xmlns:xlink="http://www.w3.org/1999/xlink" x="0px" y="0px"
	 width="145px" height="100px" viewBox="0 0 145 100" enable-background="new 0 0 145 100" xml:space="preserve">
<g id="Layer_11">
	<g>
		<path fill="#DADAFF" d="M130.662,60.561c-0.458-0.858-1-1.653-1.581-2.42c-0.545-0.72-0.247-2.104-1.004-3.004
			c-0.659-0.783-1.854-1.293-2.356-2.195c-1.137-2.049,1.93-3.988,2.338-5.989c0.85-4.164-3.922-5.126-4.781-8.426
			c-0.965-3.702-3.393-5.697-7.473-5.142c-2.356,0.321-4.479,1.336-6.847,1.536c-1.925,0.163-3.851,0.508-5.604-0.419
			c-1.776-0.939-3.155-1.122-5.226-1.006c-3.329,0.187-8.116-1.5-10.798,1.229c-1.479,1.503-1.639,3.494-1.553,5.492
			c0.039,0.896,0.422,2.213,0.228,3.07c-0.139,0.612-1.882,1.603-1.883,2.027c0.001-0.947-0.146-1.873-0.585-2.751
			c-1.271-2.541-3.816-3.607-6.405-4.345c-1.004-0.287-1.778-0.419-2.563-1.13c-1.152-1.043-1.862-2.293-3.381-2.923
			c-1.735-0.72-5.779-1.174-7.627-0.603c-1.79,0.553-2.161,3.003-3.814,3.644c-1.754,0.679-4.159,0.256-5.98,0.044
			c-2.257-0.263-4.478-0.088-6.672,0.663c-1.027,0.352-2.183,0.642-2.983,1.417c-0.771,0.748-0.954,1.971-1.789,2.654
			c-1.439,1.178-4.403,1.329-6.159,1.58c-3.037,0.372-6.011,0.746-8.959,1.589c-1.238,0.354-1.843-0.071-3.062,0.07
			c-1.127,0.13-2.344,0.915-3.126,1.705c-0.838,0.848-0.919,1.903-1.188,3c-0.848,3.459-3.397,5.348-5.534,7.846
			c-2.467,2.884-4.659,7.209-4.88,11.041c-0.5,7.75,7.125,8.875,13.375,9.125c10.25,0.375,20.375-1.5,30.75-0.375
			c6.375,0.75,12.375,3,18.875,3c4.875,0,9.375-1.375,14.125-2.5c3.75-0.875,8.5-1.25,9.5-5.375c1.125-4.125,0.125-9-2.25-12.625
			c-0.559-0.727-1.171-1.424-1.852-2.043c0.515,0.127,1.012,0.263,1.477,0.418c1.875,0.625,4.625,1.25,5.5,3
			c0.625,1.375,0.25,3.25,1,4.75c0.686,1.307,1.779,2.187,3.115,2.773c0.973,2.734,2.891,3.506,5.76,3.852
			c4.125,0.5,8.75,0.75,12.875,0c2.215-0.492,4.264-1.099,5.661-2.512c0.112,0.004,0.228,0.008,0.339,0.012
			c2.125,0.125,4,0.5,4.625-1.875C133.037,65.936,131.912,62.811,130.662,60.561z"/>
	</g>
</g>
<g id="Layer_10">
	<path fill="none" stroke="#5E60FF" stroke-width="2" stroke-miterlimit="10" d="M2.552,69.221c5.126-5.127,0-15.379,5.126-15.379
		S17.93,43.59,17.93,43.59l5.126-5.126l5.126,5.126h5.126c0,0,5.126,0,5.126-5.126s5.126-5.126,5.126-5.126s0-5.127,5.126,0
		c5.126,5.126,10.252-5.127,10.252-5.127s5.126-5.126,10.252,0c5.126,5.127,5.126,5.127,10.251,10.253c5.127,5.126,0,0,5.127,5.126
		c5.125,5.126,0,10.252,0,10.252s10.252,0,10.252,5.127c0,5.125,10.252,5.125,5.125,5.125c-5.125,0,0,10.254,0,10.254"/>
	<path fill="none" stroke="#5E60FF" stroke-width="2" stroke-miterlimit="10" d="M79.443,38.464
		c5.125-5.126,5.125-15.379,15.377-10.253c10.252,5.127,25.632,0,25.632,0c0,5.127,5.126,0,5.126,5.127
		c0,5.126,5.126,5.126,5.126,10.252s-5.126,5.126,0,10.252s5.126,10.252,5.126,10.252"/>
	<path fill="none" stroke="#5E60FF" stroke-width="3.8446" stroke-miterlimit="10" d="M17.93,58.968
		c0,5.126,5.126,5.126,5.126,5.126"/>
	<path fill="none" stroke="#5E60FF" stroke-width="3.8446" stroke-miterlimit="10" d="M43.561,69.221
		c5.126,5.127,5.126,10.252,5.126,10.252"/>
	<line fill="none" stroke="#5E60FF" stroke-width="3.8446" stroke-miterlimit="10" x1="58.939" y1="43.59" x2="69.191" y2="43.59"/>
	
		<line fill="none" stroke="#5E60FF" stroke-width="3.8446" stroke-miterlimit="10" x1="69.191" y1="69.221" x2="69.191" y2="74.348"/>
	<circle fill="none" stroke="#5E60FF" stroke-miterlimit="10" cx="46.124" cy="51.279" r="2.563"/>
	<circle fill="none" stroke="#5E60FF" stroke-miterlimit="10" cx="102.512" cy="46.153" r="2.563"/>
	<circle fill="none" stroke="#5E60FF" stroke-miterlimit="10" cx="123.016" cy="66.658" r="2.563"/>
	<circle fill="none" stroke="#5E60FF" stroke-miterlimit="10" cx="61.502" cy="56.406" r="2.563"/>
	<circle fill="none" stroke="#5E60FF" stroke-miterlimit="10" cx="102.512" cy="15.397" r="2.563"/>
	<circle fill="none" stroke="#5E60FF" stroke-miterlimit="10" cx="141.354" cy="51.279" r="2.563"/>
	<circle fill="none" stroke="#5E60FF" stroke-miterlimit="10" cx="15.367" cy="76.91" r="2.563"/>
	<path fill="none" stroke="#5E60FF" stroke-width="1.2815" stroke-miterlimit="10" d="M115.326,38.464
		c0,5.126,5.126,5.126,5.126,5.126"/>
	<path fill="none" stroke="#5E60FF" stroke-width="1.2815" stroke-miterlimit="10" d="M28.183,28.211
		c5.126,0,5.126,5.127,5.126,5.127"/>
	<g>
		<g>
			<path fill="#5E60FF" d="M29.68,59.743c2.061,0.45,3.549,1.702,4.647,3.476c0.542,0.877,1.929,0.072,1.383-0.809
				c-1.305-2.105-3.148-3.674-5.604-4.213C29.099,57.979,28.671,59.521,29.68,59.743L29.68,59.743z"/>
		</g>
	</g>
	<path fill="none" stroke="#5E60FF" stroke-width="3" stroke-miterlimit="10" d="M112.338,50c1.281,1.281,2.137,2.563,2.563,4.271"
		/>
	<g>
		<g>
			<path fill="#5E60FF" d="M82.296,78.759c1.74,1.718,3.642,3.11,5.906,4.052c0.954,0.396,1.366-1.154,0.426-1.545
				c-1.996-0.83-3.67-2.131-5.198-3.64C82.693,76.9,81.561,78.033,82.296,78.759L82.296,78.759z"/>
		</g>
	</g>
	<g>
		<g>
			<path fill="#5E60FF" d="M10.08,40.151c0.491-0.931,1.274-1.664,2.011-2.4c0.73-0.731-0.402-1.864-1.133-1.133
				c-0.829,0.83-1.708,1.676-2.261,2.725C8.215,40.255,9.598,41.065,10.08,40.151L10.08,40.151z"/>
		</g>
	</g>
	<g>
		<g>
			<path fill="#5E60FF" d="M86.141,22.798c2.396,2.07,4.017,4.728,5.428,7.527c0.466,0.922,1.848,0.111,1.384-0.809
				c-1.47-2.914-3.187-5.699-5.679-7.852C86.496,20.994,85.357,22.122,86.141,22.798L86.141,22.798z"/>
		</g>
	</g>
</g>
</svg>
