<?xml version="1.0" encoding="utf-8"?>
<!-- Generator: Adobe Illustrator 16.0.0, SVG Export Plug-In . SVG Version: 6.00 Build 0)  -->
<!DOCTYPE svg PUBLIC "-//W3C//DTD SVG 1.1//EN" "http://www.w3.org/Graphics/SVG/1.1/DTD/svg11.dtd">
<svg version="1.1" id="Layer_1" xmlns="http://www.w3.org/2000/svg" xmlns:xlink="http://www.w3.org/1999/xlink" x="0px" y="0px"
	 width="145px" height="100px" viewBox="0 0 145 100" enable-background="new 0 0 145 100" xml:space="preserve">
<g id="Layer_13">
	<g>
		<path fill="#DADAFF" d="M90.163,62.292c-4.249,0-8.134-1.545-11.138-4.095l2.121,21.207H69.546l4-4c0,0,0-2.342,0-8
			c0-4,0.25-4.5,0.25-4.5l3.312-6.618c-0.484-0.562-0.937-1.152-1.344-1.772l-14.218-7.109v-16h-8l-8,12l-8,4v4l-4,4v8v8l4,4l16,8h8
			h20l10.378-3.459l1.622,0.084l-0.231-0.547l0.231-0.078l4-8v-8l-0.806-2.418C94.713,61.824,92.493,62.292,90.163,62.292z
			 M61.546,74.07l-4-2.666l4-16V74.07z"/>
		<path fill="#DADAFF" d="M72.929,45.058c0-1.606,0.236-3.155,0.647-4.63l-12.03-9.022L73.477,49.3
			C73.132,47.94,72.929,46.524,72.929,45.058z"/>
	</g>
	<path fill="none" stroke="#5E60FF" stroke-width="2" stroke-miterlimit="10" d="M74.891,40.353
		c3.139,0.998,10.646,3.771,12.576,4.875c1.75,1,2.174,3.517,3.049,5.133s2.375,6.511,2.375,6.511"/>
</g>
<g id="Layer_12">
	<circle fill="none" stroke="#5E60FF" stroke-width="2" stroke-miterlimit="10" cx="88.41" cy="39.87" r="17.803"/>
	<path fill="none" stroke="#5E60FF" stroke-width="2" stroke-miterlimit="10" d="M82.168,28.289
		c3.948-2.404,8.742-2.23,12.421,0.044"/>
	<line fill="none" stroke="#5E60FF" stroke-width="2" stroke-miterlimit="10" x1="103.701" y1="48.933" x2="124.564" y2="61.876"/>
	<path fill="#5E60FF" d="M90.52,57.557l1.768,2.354l-4.325,8.454l-4.149-8.111l5.209-2.604c-0.17,0.004-0.334,0.023-0.506,0.023
		c-1.15,0-2.272-0.117-3.363-0.326l-2.926,1.463H72.079l3.276-6.554c0.047-0.096,0.067-0.194,0.082-0.295
		c-0.731-0.784-1.396-1.633-1.979-2.54v0.77l-14-7V29.811l11.246,8.435c0.065-0.765,0.175-1.516,0.334-2.249l-11.98-8.985
		l-0.01,0.014c-0.167-0.126-0.364-0.214-0.59-0.214h-8c-0.334,0-0.646,0.167-0.832,0.445l-7.853,11.779l-7.763,3.881
		c-0.339,0.17-0.553,0.516-0.553,0.895v3.586l-3.707,3.708c-0.188,0.188-0.293,0.44-0.293,0.707v16c0,0.267,0.105,0.521,0.293,0.707
		l4,4c0.077,0.076,0.17,0.129,0.266,0.176l-0.006,0.013l16.211,8.104h8.236h0.236H78.46c0.11,0,0.213-0.028,0.313-0.063l0.004,0.014
		L91.17,76.63l4.291-8.581V59.65l-1.002-3.006C93.202,57.085,91.887,57.402,90.52,57.557z M59.43,52.053
		c0.021-0.078,0.03-0.16,0.03-0.242v-6.38l13.658,6.829l-3.303,6.604c-0.088,0.177-0.355,0.712-0.355,4.947v7.586l-3.127,3.127
		L55.601,67.37L59.43,52.053z M31.46,67.396V52.225l3.707-3.707c0.188-0.188,0.293-0.441,0.293-0.707v-3.382l7.447-3.724
		c0.155-0.078,0.288-0.195,0.385-0.34l7.703-11.555h6.465v22.877l-3.816,15.267L34.79,70.725L31.46,67.396z M58.224,78.811h-7.527
		l-13.182-6.59l16.735-3.349l10.222,6.813L58.224,78.811z M77.46,78.811H62.697l4-2H77.46V78.811z M78.204,74.811h-9.329
		l2.293-2.293c0.188-0.188,0.293-0.439,0.293-0.707v-8c0-1.422,0.032-2.365,0.07-3H81.85l4.779,9.344L78.204,74.811z M79.46,78.424
		V76.4l8.015-4.428l1.408,3.311L79.46,78.424z M93.46,67.575l-3.069,6.142L89.064,70.6l4.396-8.593V67.575z"/>
	<path fill="#DADAFF" d="M110.605,51.027"/>
	<path fill="#DADAFF" d="M89.221,51.729"/>
</g>
</svg>
