<?xml version="1.0" encoding="utf-8"?>
<!-- Generator: Adobe Illustrator 16.0.0, SVG Export Plug-In . SVG Version: 6.00 Build 0)  -->
<!DOCTYPE svg PUBLIC "-//W3C//DTD SVG 1.1//EN" "http://www.w3.org/Graphics/SVG/1.1/DTD/svg11.dtd">
<svg version="1.1" id="Layer_1" xmlns="http://www.w3.org/2000/svg" xmlns:xlink="http://www.w3.org/1999/xlink" x="0px" y="0px"
	 width="145px" height="100px" viewBox="0 0 145 100" enable-background="new 0 0 145 100" xml:space="preserve">
<g>
	<polygon fill="#DADAFF" points="51.833,53.259 40.083,45.425 28.083,53.425 28.083,85.425 51.833,85.425 	"/>
	<rect x="100.083" y="41.425" fill="#DADAFF" width="16" height="44"/>
</g>
<g>
	<polygon fill="none" stroke="#5E60FF" stroke-width="2" stroke-miterlimit="10" points="49.083,25.425 97.083,9.425 97.083,81.425 
		49.083,81.425 	"/>
	<g>
		<line fill="none" stroke="#5E60FF" stroke-width="2" stroke-miterlimit="10" x1="57.083" y1="33.425" x2="57.083" y2="37.425"/>
		<line fill="none" stroke="#5E60FF" stroke-width="2" stroke-miterlimit="10" x1="65.083" y1="33.425" x2="65.083" y2="37.425"/>
		<line fill="none" stroke="#5E60FF" stroke-width="2" stroke-miterlimit="10" x1="73.083" y1="33.425" x2="73.083" y2="37.425"/>
		<line fill="none" stroke="#5E60FF" stroke-width="2" stroke-miterlimit="10" x1="81.083" y1="33.425" x2="81.083" y2="37.425"/>
		<line fill="none" stroke="#5E60FF" stroke-width="2" stroke-miterlimit="10" x1="89.083" y1="33.425" x2="89.083" y2="37.425"/>
	</g>
	<g>
		<line fill="none" stroke="#5E60FF" stroke-width="2" stroke-miterlimit="10" x1="57.083" y1="41.425" x2="57.083" y2="45.425"/>
		<line fill="none" stroke="#5E60FF" stroke-width="2" stroke-miterlimit="10" x1="65.083" y1="41.425" x2="65.083" y2="45.425"/>
		<line fill="none" stroke="#5E60FF" stroke-width="2" stroke-miterlimit="10" x1="73.083" y1="41.425" x2="73.083" y2="45.425"/>
		<line fill="none" stroke="#5E60FF" stroke-width="2" stroke-miterlimit="10" x1="81.083" y1="41.425" x2="81.083" y2="45.425"/>
		<line fill="none" stroke="#5E60FF" stroke-width="2" stroke-miterlimit="10" x1="89.083" y1="41.425" x2="89.083" y2="45.425"/>
	</g>
	<g>
		<line fill="none" stroke="#5E60FF" stroke-width="2" stroke-miterlimit="10" x1="57.083" y1="49.425" x2="57.083" y2="53.425"/>
		<line fill="none" stroke="#5E60FF" stroke-width="2" stroke-miterlimit="10" x1="65.083" y1="49.425" x2="65.083" y2="53.425"/>
		<line fill="none" stroke="#5E60FF" stroke-width="2" stroke-miterlimit="10" x1="73.083" y1="49.425" x2="73.083" y2="53.425"/>
		<line fill="none" stroke="#5E60FF" stroke-width="2" stroke-miterlimit="10" x1="81.083" y1="49.425" x2="81.083" y2="53.425"/>
		<line fill="none" stroke="#5E60FF" stroke-width="2" stroke-miterlimit="10" x1="89.083" y1="49.425" x2="89.083" y2="53.425"/>
	</g>
	<g>
		<line fill="none" stroke="#5E60FF" stroke-width="2" stroke-miterlimit="10" x1="57.083" y1="57.425" x2="57.083" y2="61.425"/>
		<line fill="none" stroke="#5E60FF" stroke-width="2" stroke-miterlimit="10" x1="65.083" y1="57.425" x2="65.083" y2="61.425"/>
		<line fill="none" stroke="#5E60FF" stroke-width="2" stroke-miterlimit="10" x1="73.083" y1="57.425" x2="73.083" y2="61.425"/>
		<line fill="none" stroke="#5E60FF" stroke-width="2" stroke-miterlimit="10" x1="81.083" y1="57.425" x2="81.083" y2="61.425"/>
		<line fill="none" stroke="#5E60FF" stroke-width="2" stroke-miterlimit="10" x1="89.083" y1="57.425" x2="89.083" y2="61.425"/>
	</g>
	<g>
		<line fill="none" stroke="#5E60FF" stroke-width="2" stroke-miterlimit="10" x1="57.083" y1="65.425" x2="57.083" y2="69.425"/>
		<line fill="none" stroke="#5E60FF" stroke-width="2" stroke-miterlimit="10" x1="65.083" y1="65.425" x2="65.083" y2="69.425"/>
		<line fill="none" stroke="#5E60FF" stroke-width="2" stroke-miterlimit="10" x1="73.083" y1="65.425" x2="73.083" y2="69.425"/>
		<line fill="none" stroke="#5E60FF" stroke-width="2" stroke-miterlimit="10" x1="81.083" y1="65.425" x2="81.083" y2="69.425"/>
		<line fill="none" stroke="#5E60FF" stroke-width="2" stroke-miterlimit="10" x1="89.083" y1="65.425" x2="89.083" y2="69.425"/>
	</g>
	<polyline fill="none" stroke="#5E60FF" stroke-width="2" stroke-miterlimit="10" points="97.083,37.425 113.083,37.425 
		113.083,81.425 97.083,81.425 	"/>
	<line fill="none" stroke="#5E60FF" stroke-width="2" stroke-miterlimit="10" x1="17.083" y1="81.425" x2="121.083" y2="81.425"/>
	<g>
		<line fill="none" stroke="#5E60FF" stroke-width="2" stroke-miterlimit="10" x1="105.083" y1="45.425" x2="109.083" y2="45.425"/>
		<line fill="none" stroke="#5E60FF" stroke-width="2" stroke-miterlimit="10" x1="97.083" y1="45.425" x2="101.083" y2="45.425"/>
	</g>
	<g>
		<line fill="none" stroke="#5E60FF" stroke-width="2" stroke-miterlimit="10" x1="105.083" y1="53.425" x2="109.083" y2="53.425"/>
		<line fill="none" stroke="#5E60FF" stroke-width="2" stroke-miterlimit="10" x1="97.083" y1="53.425" x2="101.083" y2="53.425"/>
	</g>
	<g>
		<line fill="none" stroke="#5E60FF" stroke-width="2" stroke-miterlimit="10" x1="105.083" y1="61.425" x2="109.083" y2="61.425"/>
		<line fill="none" stroke="#5E60FF" stroke-width="2" stroke-miterlimit="10" x1="97.083" y1="61.425" x2="101.083" y2="61.425"/>
	</g>
	<g>
		<line fill="none" stroke="#5E60FF" stroke-width="2" stroke-miterlimit="10" x1="105.083" y1="69.425" x2="109.083" y2="69.425"/>
		<line fill="none" stroke="#5E60FF" stroke-width="2" stroke-miterlimit="10" x1="97.083" y1="69.425" x2="101.083" y2="69.425"/>
	</g>
	<polyline fill="none" stroke="#5E60FF" stroke-width="2" stroke-miterlimit="10" points="49.083,49.425 37.083,41.425 
		25.083,49.425 25.083,81.425 49.083,81.425 	"/>
	<line fill="none" stroke="#5E60FF" stroke-width="2" stroke-miterlimit="10" x1="37.083" y1="53.425" x2="37.083" y2="57.425"/>
	<line fill="none" stroke="#5E60FF" stroke-width="2" stroke-miterlimit="10" x1="37.083" y1="61.425" x2="37.083" y2="65.425"/>
	<line fill="none" stroke="#5E60FF" stroke-width="2" stroke-miterlimit="10" x1="37.083" y1="69.425" x2="37.083" y2="73.425"/>
</g>
</svg>
