<?xml version="1.0" encoding="utf-8"?>
<!-- Generator: Adobe Illustrator 16.0.0, SVG Export Plug-In . SVG Version: 6.00 Build 0)  -->
<!DOCTYPE svg PUBLIC "-//W3C//DTD SVG 1.1//EN" "http://www.w3.org/Graphics/SVG/1.1/DTD/svg11.dtd">
<svg version="1.1" id="Layer_1" xmlns="http://www.w3.org/2000/svg" xmlns:xlink="http://www.w3.org/1999/xlink" x="0px" y="0px"
	 width="145px" height="100px" viewBox="0 0 145 100" enable-background="new 0 0 145 100" xml:space="preserve">
<g>
	<polygon fill="#DADAFF" points="50.833,54.259 39.083,46.425 27.083,54.425 27.083,86.425 50.833,86.425 	"/>
	<rect x="99.083" y="42.425" fill="#DADAFF" width="16" height="44"/>
</g>
<g>
	<polygon fill="none" stroke="#5E60FF" stroke-width="2" stroke-miterlimit="10" points="49.083,27.425 97.083,11.425 
		97.083,83.425 49.083,83.425 	"/>
	<g>
		<line fill="none" stroke="#5E60FF" stroke-width="2" stroke-miterlimit="10" x1="57.083" y1="35.425" x2="57.083" y2="39.425"/>
		<line fill="none" stroke="#5E60FF" stroke-width="2" stroke-miterlimit="10" x1="65.083" y1="35.425" x2="65.083" y2="39.425"/>
		<line fill="none" stroke="#5E60FF" stroke-width="2" stroke-miterlimit="10" x1="73.083" y1="35.425" x2="73.083" y2="39.425"/>
		<line fill="none" stroke="#5E60FF" stroke-width="2" stroke-miterlimit="10" x1="81.083" y1="35.425" x2="81.083" y2="39.425"/>
		<line fill="none" stroke="#5E60FF" stroke-width="2" stroke-miterlimit="10" x1="89.083" y1="35.425" x2="89.083" y2="39.425"/>
	</g>
	<g>
		<line fill="none" stroke="#5E60FF" stroke-width="2" stroke-miterlimit="10" x1="57.083" y1="43.425" x2="57.083" y2="47.425"/>
		<line fill="none" stroke="#5E60FF" stroke-width="2" stroke-miterlimit="10" x1="65.083" y1="43.425" x2="65.083" y2="47.425"/>
		<line fill="none" stroke="#5E60FF" stroke-width="2" stroke-miterlimit="10" x1="73.083" y1="43.425" x2="73.083" y2="47.425"/>
		<line fill="none" stroke="#5E60FF" stroke-width="2" stroke-miterlimit="10" x1="81.083" y1="43.425" x2="81.083" y2="47.425"/>
		<line fill="none" stroke="#5E60FF" stroke-width="2" stroke-miterlimit="10" x1="89.083" y1="43.425" x2="89.083" y2="47.425"/>
	</g>
	<g>
		<line fill="none" stroke="#5E60FF" stroke-width="2" stroke-miterlimit="10" x1="57.083" y1="51.425" x2="57.083" y2="55.425"/>
		<line fill="none" stroke="#5E60FF" stroke-width="2" stroke-miterlimit="10" x1="65.083" y1="51.425" x2="65.083" y2="55.425"/>
		<line fill="none" stroke="#5E60FF" stroke-width="2" stroke-miterlimit="10" x1="73.083" y1="51.425" x2="73.083" y2="55.425"/>
		<line fill="none" stroke="#5E60FF" stroke-width="2" stroke-miterlimit="10" x1="81.083" y1="51.425" x2="81.083" y2="55.425"/>
		<line fill="none" stroke="#5E60FF" stroke-width="2" stroke-miterlimit="10" x1="89.083" y1="51.425" x2="89.083" y2="55.425"/>
	</g>
	<g>
		<line fill="none" stroke="#5E60FF" stroke-width="2" stroke-miterlimit="10" x1="57.083" y1="59.425" x2="57.083" y2="63.425"/>
		<line fill="none" stroke="#5E60FF" stroke-width="2" stroke-miterlimit="10" x1="65.083" y1="59.425" x2="65.083" y2="63.425"/>
		<line fill="none" stroke="#5E60FF" stroke-width="2" stroke-miterlimit="10" x1="73.083" y1="59.425" x2="73.083" y2="63.425"/>
		<line fill="none" stroke="#5E60FF" stroke-width="2" stroke-miterlimit="10" x1="81.083" y1="59.425" x2="81.083" y2="63.425"/>
		<line fill="none" stroke="#5E60FF" stroke-width="2" stroke-miterlimit="10" x1="89.083" y1="59.425" x2="89.083" y2="63.425"/>
	</g>
	<g>
		<line fill="none" stroke="#5E60FF" stroke-width="2" stroke-miterlimit="10" x1="57.083" y1="67.425" x2="57.083" y2="71.425"/>
		<line fill="none" stroke="#5E60FF" stroke-width="2" stroke-miterlimit="10" x1="65.083" y1="67.425" x2="65.083" y2="71.425"/>
		<line fill="none" stroke="#5E60FF" stroke-width="2" stroke-miterlimit="10" x1="73.083" y1="67.425" x2="73.083" y2="71.425"/>
		<line fill="none" stroke="#5E60FF" stroke-width="2" stroke-miterlimit="10" x1="81.083" y1="67.425" x2="81.083" y2="71.425"/>
		<line fill="none" stroke="#5E60FF" stroke-width="2" stroke-miterlimit="10" x1="89.083" y1="67.425" x2="89.083" y2="71.425"/>
	</g>
	<polyline fill="none" stroke="#5E60FF" stroke-width="2" stroke-miterlimit="10" points="97.083,39.425 113.083,39.425 
		113.083,83.425 97.083,83.425 	"/>
	<line fill="none" stroke="#5E60FF" stroke-width="2" stroke-miterlimit="10" x1="17.083" y1="83.425" x2="121.083" y2="83.425"/>
	<g>
		<line fill="none" stroke="#5E60FF" stroke-width="2" stroke-miterlimit="10" x1="105.083" y1="47.425" x2="109.083" y2="47.425"/>
		<line fill="none" stroke="#5E60FF" stroke-width="2" stroke-miterlimit="10" x1="97.083" y1="47.425" x2="101.083" y2="47.425"/>
	</g>
	<g>
		<line fill="none" stroke="#5E60FF" stroke-width="2" stroke-miterlimit="10" x1="105.083" y1="55.425" x2="109.083" y2="55.425"/>
		<line fill="none" stroke="#5E60FF" stroke-width="2" stroke-miterlimit="10" x1="97.083" y1="55.425" x2="101.083" y2="55.425"/>
	</g>
	<g>
		<line fill="none" stroke="#5E60FF" stroke-width="2" stroke-miterlimit="10" x1="105.083" y1="63.425" x2="109.083" y2="63.425"/>
		<line fill="none" stroke="#5E60FF" stroke-width="2" stroke-miterlimit="10" x1="97.083" y1="63.425" x2="101.083" y2="63.425"/>
	</g>
	<g>
		<line fill="none" stroke="#5E60FF" stroke-width="2" stroke-miterlimit="10" x1="105.083" y1="71.425" x2="109.083" y2="71.425"/>
		<line fill="none" stroke="#5E60FF" stroke-width="2" stroke-miterlimit="10" x1="97.083" y1="71.425" x2="101.083" y2="71.425"/>
	</g>
	<polyline fill="none" stroke="#5E60FF" stroke-width="2" stroke-miterlimit="10" points="49.083,51.425 37.083,43.425 
		25.083,51.425 25.083,83.425 49.083,83.425 	"/>
	<line fill="none" stroke="#5E60FF" stroke-width="2" stroke-miterlimit="10" x1="37.083" y1="55.425" x2="37.083" y2="59.425"/>
	<line fill="none" stroke="#5E60FF" stroke-width="2" stroke-miterlimit="10" x1="37.083" y1="63.425" x2="37.083" y2="67.425"/>
	<line fill="none" stroke="#5E60FF" stroke-width="2" stroke-miterlimit="10" x1="37.083" y1="71.425" x2="37.083" y2="75.425"/>
</g>
</svg>
