<?xml version="1.0" encoding="utf-8"?>
<!-- Generator: Adobe Illustrator 16.0.0, SVG Export Plug-In . SVG Version: 6.00 Build 0)  -->
<!DOCTYPE svg PUBLIC "-//W3C//DTD SVG 1.1//EN" "http://www.w3.org/Graphics/SVG/1.1/DTD/svg11.dtd">
<svg version="1.1" id="Layer_1" xmlns="http://www.w3.org/2000/svg" xmlns:xlink="http://www.w3.org/1999/xlink" x="0px" y="0px"
	 width="302.243px" height="68.024px" viewBox="0 0 302.243 68.024" enable-background="new 0 0 302.243 68.024"
	 xml:space="preserve">
<g>
	<path id="XMLID_14_" fill="#FFFFFF" d="M299.521,2.721v62.583h-96.594V2.721H299.521 M302.243,0H200.207v68.024h102.036V0
		L302.243,0z"/>
	<polygon id="XMLID_26_" fill="#FFFFFF" points="249.05,14.826 251.208,13.253 253.359,14.826 252.537,12.285 254.726,10.714 
		252.031,10.714 251.208,8.143 250.386,10.714 247.681,10.714 249.865,12.285 	"/>
	<polygon id="XMLID_25_" fill="#FFFFFF" points="237.906,17.816 240.064,16.243 242.215,17.816 241.394,15.277 243.583,13.704 
		240.886,13.704 240.058,11.126 239.236,13.71 236.546,13.704 238.728,15.277 	"/>
	<polygon id="XMLID_24_" fill="#FFFFFF" points="231.906,19.302 231.083,21.881 228.387,21.876 230.57,23.449 229.754,25.988 
		231.906,24.421 234.062,25.988 233.242,23.449 235.431,21.876 232.735,21.876 	"/>
	<polygon id="XMLID_23_" fill="#FFFFFF" points="228.921,35.536 231.066,37.117 230.25,34.575 232.439,33.004 229.744,33.004 
		228.921,30.426 228.085,33.01 225.394,33.004 227.578,34.575 226.763,37.117 	"/>
	<polygon id="XMLID_22_" fill="#FFFFFF" points="232.734,44.163 231.904,41.592 231.083,44.163 228.386,44.163 230.57,45.743 
		229.753,48.276 231.904,46.703 234.062,48.276 233.242,45.743 235.431,44.163 	"/>
	<polygon id="XMLID_21_" fill="#FFFFFF" points="240.898,52.333 240.076,49.762 239.246,52.339 236.55,52.333 238.74,53.906 
		237.924,56.445 240.076,54.872 242.234,56.445 241.413,53.906 243.602,52.333 	"/>
	<polygon id="XMLID_20_" fill="#FFFFFF" points="252.029,55.292 251.207,52.713 250.384,55.292 247.681,55.292 249.871,56.86 
		249.048,59.404 251.207,57.831 253.365,59.404 252.535,56.86 254.733,55.292 	"/>
	<polygon id="XMLID_19_" fill="#FFFFFF" points="263.16,52.333 262.331,49.762 261.5,52.339 258.817,52.333 260.996,53.906 
		260.179,56.445 262.331,54.872 264.488,56.445 263.666,53.906 265.864,52.333 	"/>
	<polygon id="XMLID_18_" fill="#FFFFFF" points="271.331,44.163 270.5,41.592 269.68,44.163 266.988,44.163 269.172,45.743 
		268.343,48.276 270.5,46.703 272.659,48.276 271.836,45.743 274.028,44.163 	"/>
	<polygon id="XMLID_17_" fill="#FFFFFF" points="276.98,32.972 274.283,32.972 273.466,30.395 272.632,32.972 269.945,32.972 
		272.132,34.545 271.302,37.084 273.466,35.512 275.618,37.084 274.796,34.545 	"/>
	<polygon id="XMLID_16_" fill="#FFFFFF" points="268.345,25.95 270.503,24.386 272.661,25.95 271.837,23.41 274.027,21.846 
		271.332,21.846 270.503,19.263 269.682,21.852 266.99,21.846 269.173,23.41 	"/>
	<polygon id="XMLID_15_" fill="#FFFFFF" points="262.363,11.126 261.548,13.712 258.844,13.704 261.034,15.277 260.218,17.822 
		262.375,16.242 264.521,17.822 263.705,15.277 265.888,13.704 263.192,13.704 	"/>
	<g>
		<path fill="#FFFFFF" d="M6.677,41.911c-1.162,0-2.16-0.168-2.995-0.504c-0.835-0.334-1.526-0.805-2.075-1.412
			C1.06,39.39,0.655,38.678,0.393,37.86C0.131,37.042,0,36.141,0,35.159V24.53h3.118v10.335c0,0.769,0.086,1.428,0.258,1.977
			c0.172,0.547,0.417,0.993,0.736,1.337c0.319,0.343,0.696,0.598,1.129,0.761c0.434,0.164,0.92,0.246,1.46,0.246
			s1.031-0.082,1.473-0.246c0.442-0.163,0.822-0.418,1.142-0.761c0.319-0.344,0.564-0.79,0.736-1.337
			c0.172-0.549,0.258-1.208,0.258-1.977V24.53h3.117v10.628c0,0.982-0.135,1.883-0.405,2.701s-0.679,1.53-1.227,2.135
			c-0.548,0.607-1.248,1.078-2.099,1.412C8.846,41.743,7.839,41.911,6.677,41.911z"/>
		<path fill="#FFFFFF" d="M17.085,29.465c0.573-0.163,1.317-0.319,2.234-0.466c0.917-0.148,1.931-0.222,3.044-0.222
			c1.047,0,1.923,0.144,2.626,0.43c0.704,0.287,1.265,0.688,1.682,1.203c0.417,0.515,0.712,1.138,0.884,1.866
			s0.257,1.526,0.257,2.393v7.217h-2.97v-6.75c0-0.687-0.045-1.272-0.135-1.755c-0.09-0.482-0.237-0.875-0.442-1.178
			c-0.205-0.302-0.483-0.523-0.834-0.663c-0.352-0.139-0.782-0.208-1.289-0.208c-0.377,0-0.77,0.024-1.179,0.073
			c-0.409,0.048-0.711,0.09-0.908,0.123v10.359h-2.97V29.465z"/>
		<path fill="#FFFFFF" d="M34.612,25.292c0,0.555-0.18,0.998-0.54,1.325c-0.36,0.328-0.786,0.491-1.276,0.491
			c-0.507,0-0.941-0.163-1.301-0.491c-0.36-0.327-0.54-0.77-0.54-1.325c0-0.573,0.18-1.023,0.54-1.351
			c0.36-0.327,0.794-0.491,1.301-0.491c0.491,0,0.917,0.164,1.276,0.491C34.432,24.269,34.612,24.719,34.612,25.292z M34.293,41.885
			h-2.971V29.047h2.971V41.885z"/>
		<path fill="#FFFFFF" d="M42.197,28.482c0.982,0,1.808,0.123,2.479,0.368c0.67,0.246,1.207,0.589,1.608,1.031
			c0.4,0.443,0.687,0.978,0.859,1.608c0.172,0.629,0.258,1.322,0.258,2.074v7.782c-0.458,0.098-1.15,0.217-2.074,0.355
			c-0.925,0.139-1.968,0.209-3.13,0.209c-0.77,0-1.473-0.074-2.112-0.221c-0.638-0.147-1.182-0.385-1.632-0.713
			c-0.45-0.326-0.802-0.752-1.056-1.275s-0.38-1.17-0.38-1.939c0-0.736,0.143-1.359,0.43-1.866c0.286-0.507,0.675-0.921,1.166-1.239
			c0.49-0.319,1.059-0.548,1.706-0.687c0.646-0.139,1.321-0.209,2.025-0.209c0.327,0,0.67,0.021,1.031,0.062
			c0.36,0.042,0.745,0.11,1.154,0.208v-0.49c0-0.344-0.041-0.672-0.123-0.982c-0.083-0.311-0.226-0.585-0.43-0.822
			c-0.206-0.237-0.476-0.421-0.811-0.553c-0.335-0.13-0.757-0.196-1.264-0.196c-0.688,0-1.318,0.049-1.891,0.148
			c-0.573,0.098-1.039,0.213-1.399,0.343l-0.368-2.405c0.376-0.131,0.924-0.262,1.645-0.393
			C40.61,28.549,41.379,28.482,42.197,28.482z M42.443,39.553c0.916,0,1.611-0.049,2.086-0.146v-3.289
			c-0.164-0.05-0.402-0.1-0.712-0.148c-0.311-0.049-0.655-0.073-1.031-0.073c-0.328,0-0.659,0.024-0.995,0.073
			c-0.335,0.049-0.638,0.14-0.908,0.271c-0.27,0.131-0.487,0.314-0.65,0.551c-0.164,0.238-0.246,0.537-0.246,0.896
			c0,0.704,0.221,1.19,0.663,1.461C41.093,39.418,41.69,39.553,42.443,39.553z"/>
		<path fill="#FFFFFF" d="M56.606,41.885V24.875h10.924v2.626H59.7v4.197h6.972v2.578H59.7v4.983h8.42v2.626H56.606z"/>
		<path fill="#FFFFFF" d="M80.811,41.223c-0.573,0.146-1.317,0.299-2.233,0.455c-0.917,0.155-1.923,0.232-3.02,0.232
			c-1.031,0-1.895-0.147-2.59-0.441c-0.696-0.295-1.252-0.704-1.669-1.228c-0.417-0.524-0.716-1.15-0.896-1.878
			c-0.18-0.729-0.27-1.526-0.27-2.395v-7.192h2.97v6.728c0,1.374,0.201,2.355,0.602,2.945c0.4,0.589,1.101,0.883,2.099,0.883
			c0.36,0,0.74-0.016,1.142-0.048c0.401-0.033,0.699-0.074,0.896-0.124V28.777h2.97V41.223z"/>
		<path fill="#FFFFFF" d="M91.759,31.723c-0.246-0.082-0.585-0.167-1.019-0.257c-0.434-0.09-0.938-0.135-1.51-0.135
			c-0.327,0-0.675,0.033-1.043,0.098c-0.368,0.065-0.626,0.123-0.773,0.171v10.285h-2.97V29.66c0.573-0.212,1.289-0.412,2.148-0.6
			c0.859-0.189,1.813-0.283,2.86-0.283c0.196,0,0.425,0.013,0.688,0.038c0.262,0.024,0.523,0.057,0.786,0.098
			c0.261,0.041,0.515,0.09,0.761,0.148c0.246,0.057,0.442,0.11,0.589,0.159L91.759,31.723z"/>
		<path fill="#FFFFFF" d="M105.801,35.135c0,1.016-0.147,1.939-0.442,2.773s-0.712,1.547-1.252,2.137
			c-0.54,0.588-1.19,1.047-1.951,1.374c-0.761,0.327-1.6,0.491-2.516,0.491s-1.751-0.164-2.504-0.491
			c-0.753-0.327-1.399-0.786-1.939-1.374c-0.54-0.59-0.961-1.303-1.264-2.137s-0.454-1.758-0.454-2.773
			c0-1.015,0.151-1.935,0.454-2.762c0.303-0.826,0.728-1.534,1.277-2.123c0.548-0.59,1.198-1.044,1.951-1.362
			c0.753-0.319,1.579-0.479,2.479-0.479c0.9,0,1.73,0.16,2.492,0.479c0.761,0.318,1.412,0.772,1.952,1.362
			c0.54,0.589,0.961,1.297,1.264,2.123C105.649,33.2,105.801,34.12,105.801,35.135z M102.757,35.135
			c0-1.277-0.274-2.287-0.822-3.031c-0.549-0.745-1.313-1.118-2.295-1.118s-1.747,0.373-2.295,1.118
			c-0.548,0.744-0.822,1.754-0.822,3.031c0,1.293,0.274,2.316,0.822,3.068c0.548,0.754,1.313,1.129,2.295,1.129
			s1.747-0.375,2.295-1.129C102.482,37.452,102.757,36.428,102.757,35.135z"/>
		<path fill="#FFFFFF" d="M120.284,35.479c0,0.982-0.127,1.882-0.38,2.7c-0.254,0.818-0.618,1.522-1.093,2.111
			s-1.067,1.047-1.779,1.375c-0.712,0.327-1.518,0.491-2.418,0.491c-0.605,0-1.162-0.074-1.669-0.222s-0.925-0.312-1.252-0.491
			v4.983h-2.97V29.465c0.605-0.163,1.35-0.319,2.234-0.466c0.884-0.148,1.816-0.222,2.798-0.222c1.015,0,1.923,0.155,2.725,0.466
			c0.802,0.312,1.485,0.758,2.05,1.338c0.564,0.581,0.998,1.285,1.301,2.111C120.132,33.519,120.284,34.448,120.284,35.479z
			 M117.24,35.528c0-1.326-0.299-2.356-0.896-3.093c-0.598-0.736-1.559-1.104-2.884-1.104c-0.278,0-0.569,0.012-0.872,0.037
			c-0.303,0.024-0.601,0.078-0.896,0.159v7.339c0.262,0.181,0.61,0.349,1.043,0.504c0.433,0.156,0.896,0.232,1.387,0.232
			c1.081,0,1.87-0.367,2.369-1.104C116.99,37.762,117.24,36.772,117.24,35.528z"/>
		<path fill="#FFFFFF" d="M122.493,35.233c0-1.129,0.167-2.119,0.503-2.97c0.335-0.851,0.781-1.559,1.337-2.124
			c0.557-0.564,1.195-0.99,1.915-1.276c0.72-0.287,1.457-0.43,2.209-0.43c1.768,0,3.146,0.549,4.137,1.645
			c0.99,1.097,1.485,2.734,1.485,4.91c0,0.163-0.004,0.349-0.012,0.552c-0.009,0.205-0.021,0.391-0.037,0.553h-8.47
			c0.083,1.031,0.446,1.829,1.093,2.395c0.646,0.563,1.583,0.846,2.811,0.846c0.72,0,1.378-0.064,1.976-0.196
			c0.597-0.13,1.068-0.271,1.412-0.417l0.393,2.43c-0.164,0.083-0.389,0.17-0.675,0.258c-0.287,0.091-0.614,0.172-0.982,0.246
			s-0.765,0.135-1.19,0.184c-0.426,0.049-0.859,0.074-1.301,0.074c-1.129,0-2.111-0.168-2.946-0.504
			c-0.835-0.334-1.522-0.801-2.062-1.398s-0.942-1.302-1.203-2.111C122.624,37.086,122.493,36.2,122.493,35.233z M131.109,33.909
			c0-0.41-0.057-0.798-0.171-1.167c-0.115-0.368-0.283-0.688-0.503-0.958c-0.221-0.27-0.491-0.482-0.811-0.638
			c-0.319-0.155-0.699-0.234-1.141-0.234c-0.459,0-0.859,0.086-1.203,0.258c-0.344,0.172-0.635,0.397-0.872,0.675
			c-0.237,0.278-0.421,0.598-0.553,0.958c-0.131,0.36-0.221,0.728-0.27,1.105H131.109z"/>
		<path fill="#FFFFFF" d="M135.43,46.452c-0.213,0-0.511-0.021-0.896-0.062c-0.384-0.041-0.724-0.118-1.019-0.232l0.393-2.431
			c0.36,0.115,0.794,0.172,1.301,0.172c0.687,0,1.17-0.201,1.448-0.602c0.278-0.401,0.417-1.003,0.417-1.805V29.047h2.97v12.495
			c0,1.669-0.397,2.905-1.191,3.707C138.06,46.05,136.918,46.452,135.43,46.452z M140.364,25.292c0,0.555-0.18,0.998-0.54,1.325
			c-0.36,0.328-0.786,0.491-1.276,0.491c-0.508,0-0.942-0.163-1.301-0.491c-0.36-0.327-0.54-0.77-0.54-1.325
			c0-0.573,0.18-1.023,0.54-1.351c0.359-0.327,0.793-0.491,1.301-0.491c0.491,0,0.916,0.164,1.276,0.491
			C140.184,24.269,140.364,24.719,140.364,25.292z"/>
		<path fill="#FFFFFF" d="M146.894,39.456c0.786,0,1.358-0.094,1.718-0.281c0.36-0.188,0.54-0.512,0.54-0.971
			c0-0.426-0.192-0.777-0.577-1.056c-0.385-0.278-1.019-0.58-1.902-0.907c-0.54-0.197-1.036-0.406-1.485-0.627
			c-0.45-0.221-0.839-0.479-1.166-0.773c-0.328-0.294-0.586-0.65-0.774-1.067c-0.188-0.417-0.282-0.928-0.282-1.535
			c0-1.178,0.434-2.107,1.301-2.786c0.867-0.679,2.045-1.019,3.535-1.019c0.752,0,1.473,0.07,2.16,0.209
			c0.688,0.139,1.203,0.274,1.547,0.405l-0.54,2.405c-0.328-0.146-0.745-0.282-1.252-0.404c-0.508-0.123-1.097-0.184-1.768-0.184
			c-0.605,0-1.097,0.102-1.473,0.306c-0.376,0.206-0.564,0.52-0.564,0.946c0,0.211,0.037,0.399,0.11,0.563
			c0.074,0.165,0.201,0.315,0.381,0.454c0.18,0.139,0.417,0.278,0.712,0.418c0.294,0.139,0.654,0.282,1.08,0.429
			c0.703,0.262,1.301,0.52,1.792,0.773c0.491,0.254,0.896,0.54,1.215,0.859c0.319,0.318,0.552,0.684,0.7,1.093
			c0.146,0.409,0.221,0.899,0.221,1.473c0,1.228-0.455,2.157-1.363,2.787c-0.908,0.629-2.206,0.944-3.891,0.944
			c-1.129,0-2.038-0.094-2.726-0.283c-0.687-0.188-1.169-0.338-1.448-0.453l0.516-2.48c0.442,0.182,0.97,0.353,1.583,0.517
			C145.408,39.375,146.108,39.456,146.894,39.456z"/>
		<path fill="#FFFFFF" d="M157.718,34.055c0.377-0.393,0.777-0.813,1.203-1.265c0.426-0.45,0.844-0.9,1.252-1.35
			c0.409-0.45,0.799-0.885,1.166-1.302c0.368-0.417,0.684-0.781,0.945-1.092h3.511c-0.819,0.917-1.682,1.865-2.59,2.847
			c-0.909,0.982-1.821,1.94-2.737,2.872c0.491,0.41,1.006,0.906,1.547,1.486c0.539,0.581,1.063,1.199,1.57,1.854
			c0.508,0.654,0.982,1.309,1.424,1.965c0.442,0.653,0.811,1.259,1.105,1.814h-3.438c-0.295-0.506-0.635-1.038-1.019-1.595
			c-0.386-0.556-0.798-1.097-1.239-1.62s-0.893-1.02-1.351-1.484c-0.458-0.468-0.908-0.864-1.351-1.191v5.891h-2.97V25.365
			l2.97-0.49V34.055z"/>
		<path fill="#FFFFFF" d="M172.398,28.482c0.982,0,1.809,0.123,2.479,0.368c0.671,0.246,1.207,0.589,1.608,1.031
			c0.4,0.443,0.688,0.978,0.859,1.608c0.172,0.629,0.258,1.322,0.258,2.074v7.782c-0.459,0.098-1.15,0.217-2.074,0.355
			c-0.926,0.139-1.969,0.209-3.131,0.209c-0.77,0-1.473-0.074-2.111-0.221c-0.639-0.147-1.182-0.385-1.632-0.713
			c-0.45-0.326-0.802-0.752-1.056-1.275s-0.381-1.17-0.381-1.939c0-0.736,0.144-1.359,0.43-1.866
			c0.287-0.507,0.676-0.921,1.166-1.239c0.491-0.319,1.06-0.548,1.707-0.687c0.646-0.139,1.32-0.209,2.025-0.209
			c0.326,0,0.67,0.021,1.03,0.062c0.36,0.042,0.745,0.11,1.153,0.208v-0.49c0-0.344-0.041-0.672-0.122-0.982
			c-0.083-0.311-0.226-0.585-0.43-0.822c-0.205-0.237-0.476-0.421-0.81-0.553c-0.336-0.13-0.758-0.196-1.266-0.196
			c-0.687,0-1.316,0.049-1.89,0.148c-0.573,0.098-1.039,0.213-1.399,0.343l-0.367-2.405c0.375-0.131,0.924-0.262,1.645-0.393
			C170.81,28.549,171.58,28.482,172.398,28.482z M172.644,39.553c0.916,0,1.611-0.049,2.086-0.146v-3.289
			c-0.163-0.05-0.4-0.1-0.711-0.148c-0.312-0.049-0.655-0.073-1.031-0.073c-0.328,0-0.659,0.024-0.994,0.073
			c-0.336,0.049-0.639,0.14-0.909,0.271c-0.271,0.131-0.486,0.314-0.649,0.551c-0.164,0.238-0.246,0.537-0.246,0.896
			c0,0.704,0.221,1.19,0.663,1.461C171.293,39.418,171.891,39.553,172.644,39.553z"/>
	</g>
</g>
</svg>
