<?xml version="1.0" encoding="utf-8"?>
<!-- Generator: Adobe Illustrator 16.0.0, SVG Export Plug-In . SVG Version: 6.00 Build 0)  -->
<!DOCTYPE svg PUBLIC "-//W3C//DTD SVG 1.1//EN" "http://www.w3.org/Graphics/SVG/1.1/DTD/svg11.dtd">
<svg version="1.1" id="Layer_1" xmlns="http://www.w3.org/2000/svg" xmlns:xlink="http://www.w3.org/1999/xlink" x="0px" y="0px"
	 width="130.171px" height="45.332px" viewBox="4.819 -0.57 130.171 45.332" enable-background="new 4.819 -0.57 130.171 45.332"
	 xml:space="preserve">
<polyline fill="none" stroke="#5E60FF" stroke-width="4" stroke-miterlimit="10" points="46.819,13.762 26.819,1.762 6.819,13.762 
	6.819,42.763 46.819,42.763 "/>
<g>
	<path fill="#3D3D3D" d="M23.031,31.851V20.976h4.444c1.279,0,2.293,0.345,3.041,1.036c0.749,0.689,1.123,1.599,1.123,2.726v0.03
		c0,0.613-0.114,1.163-0.341,1.653c-0.228,0.492-0.542,0.893-0.944,1.207c-0.402,0.312-0.867,0.553-1.396,0.716
		c-0.528,0.164-1.101,0.246-1.718,0.246h-1.82v3.261H23.031z M25.42,26.46h1.896c0.586,0,1.049-0.154,1.388-0.464
		c0.338-0.308,0.508-0.702,0.508-1.183v-0.03c0-0.524-0.172-0.932-0.516-1.218c-0.344-0.284-0.819-0.427-1.426-0.427H25.42V26.46z"
		/>
	<path fill="#3D3D3D" d="M39.619,31.851V20.976h4.967c1.376,0,2.432,0.37,3.17,1.107c0.622,0.621,0.933,1.449,0.933,2.481v0.036
		c0,0.845-0.208,1.549-0.622,2.117c-0.414,0.565-0.983,0.983-1.707,1.251l2.655,3.882h-2.799l-2.329-3.479h-1.88v3.479H39.619z
		 M42.008,26.263h2.427c0.577,0,1.027-0.141,1.35-0.422c0.323-0.28,0.485-0.652,0.485-1.119v-0.03c0-0.505-0.166-0.891-0.497-1.156
		c-0.331-0.265-0.792-0.397-1.384-0.397h-2.381V26.263z"/>
	<path fill="#3D3D3D" d="M64.648,31.594c-0.723,0.299-1.494,0.448-2.313,0.448s-1.589-0.147-2.31-0.439
		c-0.721-0.295-1.331-0.691-1.832-1.196c-0.5-0.503-0.895-1.097-1.183-1.786c-0.288-0.687-0.432-1.413-0.432-2.175v-0.031
		c0-0.765,0.145-1.49,0.436-2.182c0.291-0.689,0.689-1.287,1.195-1.793c0.505-0.506,1.12-0.907,1.842-1.201
		c0.724-0.297,1.494-0.444,2.313-0.444c1.092,0,2.081,0.25,2.965,0.751c0.884,0.5,1.573,1.177,2.063,2.028
		c0.49,0.852,0.736,1.788,0.736,2.811v0.03c0,0.764-0.147,1.489-0.44,2.181c-0.293,0.688-0.692,1.287-1.198,1.794
		C65.986,30.894,65.372,31.297,64.648,31.594z M60.667,29.367c0.506,0.311,1.072,0.467,1.699,0.467s1.192-0.151,1.695-0.459
		c0.504-0.306,0.892-0.716,1.164-1.231c0.273-0.516,0.41-1.083,0.41-1.698v-0.031c0-0.946-0.312-1.75-0.937-2.416
		c-0.625-0.665-1.412-0.997-2.362-0.997c-0.626,0-1.191,0.152-1.691,0.456c-0.501,0.303-0.888,0.713-1.161,1.229
		s-0.41,1.081-0.41,1.698v0.03c0,0.615,0.139,1.186,0.417,1.706C59.77,28.643,60.161,29.056,60.667,29.367z"/>
	<path fill="#3D3D3D" d="M74.866,31.851l3.792-5.526l-3.634-5.348h2.8l2.266,3.527l2.315-3.527h2.715l-3.635,5.317l3.793,5.558
		H82.48l-2.442-3.73l-2.45,3.73H74.866z"/>
	<path fill="#3D3D3D" d="M93.38,31.851V20.976h2.396v10.875H93.38z"/>
	<path fill="#3D3D3D" d="M104.706,31.851V20.976h2.579l2.858,4.604l2.859-4.604h2.578v10.875H113.2v-7.098l-3.057,4.641h-0.061
		l-3.034-4.596v7.053H104.706z"/>
	<path fill="#3D3D3D" d="M123.463,31.851l4.664-10.95h2.199l4.664,10.95h-2.503l-0.993-2.441h-4.596l-0.993,2.441H123.463z
		 M127.748,27.301h2.89l-1.441-3.525L127.748,27.301z"/>
</g>
</svg>
