<?xml version="1.0" encoding="utf-8"?>
<!-- Generator: Adobe Illustrator 16.0.0, SVG Export Plug-In . SVG Version: 6.00 Build 0)  -->
<!DOCTYPE svg PUBLIC "-//W3C//DTD SVG 1.1//EN" "http://www.w3.org/Graphics/SVG/1.1/DTD/svg11.dtd">
<svg version="1.1" id="Layer_1" xmlns="http://www.w3.org/2000/svg" xmlns:xlink="http://www.w3.org/1999/xlink" x="0px" y="0px"
	 width="302.243px" height="68.023px" viewBox="0 0 302.243 68.023" enable-background="new 0 0 302.243 68.023"
	 xml:space="preserve">
<g>
	<path id="XMLID_14_" fill="#1E1E1E" d="M299.521,2.721v62.583h-96.594V2.721H299.521 M302.243,0H200.208v68.023h102.035V0
		L302.243,0z"/>
	<polygon id="XMLID_26_" fill="#1E1E1E" points="249.049,14.826 251.208,13.253 253.359,14.826 252.538,12.285 254.726,10.714 
		252.031,10.714 251.208,8.143 250.386,10.714 247.681,10.714 249.865,12.285 	"/>
	<polygon id="XMLID_25_" fill="#1E1E1E" points="237.906,17.816 240.064,16.243 242.215,17.816 241.394,15.277 243.583,13.704 
		240.886,13.704 240.058,11.126 239.236,13.71 236.545,13.704 238.728,15.277 	"/>
	<polygon id="XMLID_24_" fill="#1E1E1E" points="231.906,19.302 231.083,21.881 228.387,21.876 230.57,23.448 229.754,25.988 
		231.906,24.421 234.062,25.988 233.243,23.448 235.431,21.876 232.735,21.876 	"/>
	<polygon id="XMLID_23_" fill="#1E1E1E" points="228.92,35.536 231.066,37.117 230.25,34.575 232.439,33.004 229.745,33.004 
		228.92,30.426 228.084,33.01 225.394,33.004 227.579,34.575 226.763,37.117 	"/>
	<polygon id="XMLID_22_" fill="#1E1E1E" points="232.734,44.163 231.904,41.592 231.083,44.163 228.386,44.163 230.57,45.743 
		229.752,48.276 231.904,46.703 234.062,48.276 233.243,45.743 235.431,44.163 	"/>
	<polygon id="XMLID_21_" fill="#1E1E1E" points="240.898,52.333 240.077,49.762 239.247,52.339 236.549,52.333 238.74,53.906 
		237.924,56.445 240.077,54.872 242.234,56.445 241.413,53.906 243.602,52.333 	"/>
	<polygon id="XMLID_20_" fill="#1E1E1E" points="252.029,55.292 251.208,52.713 250.383,55.292 247.681,55.292 249.872,56.86 
		249.047,59.404 251.208,57.831 253.365,59.404 252.536,56.86 254.733,55.292 	"/>
	<polygon id="XMLID_19_" fill="#1E1E1E" points="263.161,52.333 262.331,49.762 261.5,52.339 258.817,52.333 260.997,53.906 
		260.179,56.445 262.331,54.872 264.488,56.445 263.667,53.906 265.864,52.333 	"/>
	<polygon id="XMLID_18_" fill="#1E1E1E" points="271.331,44.163 270.5,41.592 269.68,44.163 266.988,44.163 269.172,45.743 
		268.342,48.276 270.5,46.703 272.659,48.276 271.836,45.743 274.028,44.163 	"/>
	<polygon id="XMLID_17_" fill="#1E1E1E" points="276.98,32.972 274.284,32.972 273.465,30.395 272.631,32.972 269.945,32.972 
		272.131,34.545 271.302,37.084 273.465,35.512 275.618,37.084 274.795,34.545 	"/>
	<polygon id="XMLID_16_" fill="#1E1E1E" points="268.345,25.95 270.502,24.386 272.661,25.95 271.836,23.41 274.027,21.846 
		271.333,21.846 270.502,19.263 269.682,21.852 266.99,21.846 269.172,23.41 	"/>
	<polygon id="XMLID_15_" fill="#1E1E1E" points="262.363,11.126 261.547,13.712 258.844,13.704 261.034,15.277 260.217,17.822 
		262.375,16.242 264.521,17.822 263.706,15.277 265.888,13.704 263.192,13.704 	"/>
	<g>
		<path fill="#1E1E1E" d="M6.677,41.911c-1.162,0-2.16-0.168-2.995-0.505c-0.835-0.334-1.526-0.805-2.075-1.411
			C1.06,39.39,0.655,38.678,0.393,37.86C0.131,37.042,0,36.141,0,35.159V24.53h3.118v10.335c0,0.77,0.086,1.429,0.258,1.978
			c0.172,0.547,0.417,0.993,0.736,1.337c0.319,0.343,0.696,0.598,1.129,0.761c0.434,0.164,0.92,0.246,1.46,0.246
			s1.031-0.082,1.473-0.246c0.442-0.163,0.822-0.418,1.142-0.761c0.319-0.344,0.564-0.79,0.736-1.337
			c0.172-0.549,0.258-1.208,0.258-1.978V24.53h3.117v10.629c0,0.981-0.135,1.883-0.405,2.7c-0.27,0.818-0.679,1.53-1.227,2.136
			c-0.548,0.606-1.248,1.077-2.099,1.411C8.846,41.743,7.839,41.911,6.677,41.911z"/>
		<path fill="#1E1E1E" d="M17.085,29.465c0.573-0.163,1.317-0.319,2.234-0.466c0.917-0.148,1.931-0.223,3.044-0.223
			c1.047,0,1.923,0.145,2.626,0.431c0.704,0.287,1.265,0.688,1.682,1.203c0.417,0.515,0.712,1.138,0.884,1.865
			c0.172,0.729,0.257,1.526,0.257,2.394v7.217h-2.97v-6.75c0-0.688-0.045-1.272-0.135-1.755s-0.237-0.875-0.442-1.178
			s-0.483-0.523-0.834-0.663c-0.352-0.14-0.782-0.208-1.289-0.208c-0.377,0-0.77,0.023-1.179,0.072
			c-0.409,0.049-0.711,0.091-0.908,0.123v10.359h-2.97V29.465z"/>
		<path fill="#1E1E1E" d="M34.612,25.292c0,0.555-0.18,0.998-0.54,1.325c-0.36,0.327-0.786,0.49-1.276,0.49
			c-0.507,0-0.941-0.163-1.301-0.49c-0.36-0.327-0.54-0.771-0.54-1.325c0-0.573,0.18-1.023,0.54-1.352
			c0.36-0.327,0.794-0.49,1.301-0.49c0.491,0,0.917,0.163,1.276,0.49C34.432,24.269,34.612,24.719,34.612,25.292z M34.293,41.885
			h-2.971V29.047h2.971V41.885z"/>
		<path fill="#1E1E1E" d="M42.197,28.482c0.982,0,1.808,0.123,2.479,0.368c0.67,0.246,1.207,0.589,1.608,1.031
			c0.4,0.442,0.687,0.978,0.859,1.607s0.258,1.322,0.258,2.074v7.782c-0.458,0.098-1.15,0.217-2.074,0.355
			c-0.925,0.139-1.968,0.209-3.13,0.209c-0.77,0-1.473-0.074-2.112-0.222c-0.638-0.146-1.182-0.385-1.632-0.713
			c-0.45-0.326-0.802-0.752-1.056-1.274c-0.254-0.523-0.38-1.171-0.38-1.939c0-0.736,0.143-1.359,0.43-1.866
			c0.286-0.507,0.675-0.921,1.166-1.239c0.49-0.318,1.059-0.548,1.706-0.687c0.646-0.139,1.321-0.209,2.025-0.209
			c0.327,0,0.67,0.021,1.031,0.062c0.36,0.042,0.745,0.11,1.154,0.208V33.54c0-0.345-0.041-0.672-0.123-0.982
			c-0.083-0.311-0.226-0.585-0.43-0.822c-0.206-0.236-0.476-0.421-0.811-0.553c-0.335-0.13-0.757-0.196-1.264-0.196
			c-0.688,0-1.318,0.05-1.891,0.148c-0.573,0.098-1.039,0.213-1.399,0.343l-0.368-2.405c0.376-0.131,0.924-0.262,1.645-0.393
			C40.61,28.549,41.379,28.482,42.197,28.482z M42.443,39.553c0.916,0,1.611-0.049,2.086-0.146v-3.288
			c-0.164-0.051-0.402-0.101-0.712-0.148c-0.311-0.049-0.655-0.073-1.031-0.073c-0.328,0-0.659,0.024-0.995,0.073
			c-0.335,0.049-0.638,0.14-0.908,0.271c-0.27,0.131-0.487,0.313-0.65,0.551c-0.164,0.237-0.246,0.537-0.246,0.896
			c0,0.704,0.221,1.19,0.663,1.461C41.093,39.418,41.69,39.553,42.443,39.553z"/>
		<path fill="#1E1E1E" d="M56.606,41.885v-17.01H67.53v2.626H59.7v4.196h6.972v2.578H59.7v4.983h8.42v2.626H56.606z"/>
		<path fill="#1E1E1E" d="M80.811,41.223c-0.573,0.146-1.317,0.299-2.233,0.455c-0.917,0.155-1.923,0.232-3.02,0.232
			c-1.031,0-1.895-0.147-2.59-0.441c-0.696-0.295-1.252-0.704-1.669-1.229c-0.417-0.523-0.716-1.149-0.896-1.878
			c-0.18-0.729-0.27-1.525-0.27-2.395v-7.192h2.97v6.729c0,1.374,0.201,2.354,0.602,2.944c0.4,0.59,1.101,0.884,2.099,0.884
			c0.36,0,0.74-0.017,1.142-0.048c0.401-0.033,0.699-0.074,0.896-0.124V28.777h2.97L80.811,41.223L80.811,41.223z"/>
		<path fill="#1E1E1E" d="M91.759,31.723c-0.246-0.082-0.585-0.167-1.019-0.257c-0.434-0.09-0.938-0.135-1.51-0.135
			c-0.327,0-0.675,0.032-1.043,0.098s-0.626,0.123-0.773,0.171v10.285h-2.97V29.66c0.573-0.213,1.289-0.412,2.148-0.601
			c0.859-0.188,1.813-0.283,2.86-0.283c0.196,0,0.425,0.014,0.688,0.038c0.262,0.024,0.523,0.058,0.786,0.099
			c0.261,0.041,0.515,0.09,0.761,0.147s0.442,0.11,0.589,0.159L91.759,31.723z"/>
		<path fill="#1E1E1E" d="M105.801,35.135c0,1.016-0.147,1.938-0.442,2.773c-0.295,0.834-0.712,1.547-1.252,2.137
			c-0.54,0.588-1.19,1.047-1.951,1.374c-0.761,0.327-1.6,0.491-2.516,0.491s-1.751-0.164-2.504-0.491
			c-0.753-0.327-1.399-0.786-1.939-1.374c-0.54-0.59-0.961-1.303-1.264-2.137c-0.303-0.835-0.454-1.759-0.454-2.773
			s0.151-1.935,0.454-2.762c0.303-0.826,0.728-1.534,1.277-2.123c0.548-0.59,1.198-1.044,1.951-1.362
			c0.753-0.319,1.579-0.479,2.479-0.479s1.73,0.159,2.492,0.479c0.761,0.318,1.412,0.772,1.952,1.362
			c0.54,0.589,0.961,1.297,1.264,2.123C105.649,33.2,105.801,34.12,105.801,35.135z M102.757,35.135
			c0-1.277-0.274-2.287-0.822-3.031c-0.549-0.745-1.313-1.118-2.295-1.118s-1.747,0.373-2.295,1.118
			c-0.548,0.744-0.822,1.754-0.822,3.031c0,1.293,0.274,2.316,0.822,3.068c0.548,0.754,1.313,1.129,2.295,1.129
			s1.747-0.375,2.295-1.129C102.482,37.452,102.757,36.428,102.757,35.135z"/>
		<path fill="#1E1E1E" d="M120.284,35.479c0,0.982-0.127,1.882-0.38,2.7c-0.254,0.818-0.618,1.522-1.093,2.111
			s-1.067,1.047-1.779,1.375c-0.712,0.327-1.518,0.49-2.418,0.49c-0.605,0-1.162-0.073-1.669-0.222
			c-0.507-0.147-0.925-0.312-1.252-0.491v4.983h-2.97V29.465c0.605-0.163,1.35-0.319,2.234-0.466
			c0.884-0.148,1.816-0.223,2.798-0.223c1.015,0,1.923,0.155,2.725,0.467c0.802,0.312,1.485,0.758,2.05,1.338
			c0.564,0.581,0.998,1.285,1.301,2.11C120.132,33.519,120.284,34.448,120.284,35.479z M117.24,35.528
			c0-1.325-0.299-2.355-0.896-3.093c-0.598-0.736-1.559-1.104-2.884-1.104c-0.278,0-0.569,0.012-0.872,0.037
			c-0.303,0.023-0.601,0.077-0.896,0.158v7.34c0.262,0.181,0.61,0.349,1.043,0.504s0.896,0.231,1.387,0.231
			c1.081,0,1.87-0.367,2.369-1.104C116.99,37.762,117.24,36.772,117.24,35.528z"/>
		<path fill="#1E1E1E" d="M122.493,35.233c0-1.129,0.167-2.119,0.503-2.97c0.335-0.851,0.781-1.559,1.337-2.124
			c0.557-0.563,1.195-0.99,1.915-1.276c0.72-0.286,1.457-0.43,2.209-0.43c1.768,0,3.146,0.549,4.137,1.646
			c0.99,1.097,1.485,2.733,1.485,4.909c0,0.163-0.004,0.35-0.012,0.553c-0.009,0.205-0.021,0.391-0.037,0.553h-8.47
			c0.083,1.031,0.446,1.829,1.093,2.395c0.646,0.563,1.583,0.847,2.811,0.847c0.72,0,1.378-0.064,1.976-0.196
			c0.597-0.13,1.068-0.271,1.412-0.417l0.393,2.43c-0.164,0.083-0.389,0.17-0.675,0.259c-0.287,0.091-0.614,0.172-0.982,0.245
			c-0.368,0.074-0.765,0.136-1.19,0.185c-0.426,0.049-0.859,0.074-1.301,0.074c-1.129,0-2.111-0.168-2.946-0.504
			c-0.835-0.334-1.522-0.802-2.062-1.398s-0.942-1.302-1.203-2.111C122.624,37.086,122.493,36.2,122.493,35.233z M131.109,33.909
			c0-0.41-0.057-0.799-0.171-1.167c-0.115-0.368-0.283-0.688-0.503-0.958c-0.221-0.271-0.491-0.482-0.811-0.639
			c-0.319-0.154-0.699-0.233-1.141-0.233c-0.459,0-0.859,0.086-1.203,0.258c-0.344,0.172-0.635,0.396-0.872,0.675
			c-0.237,0.278-0.421,0.598-0.553,0.958c-0.131,0.36-0.221,0.728-0.27,1.105L131.109,33.909L131.109,33.909z"/>
		<path fill="#1E1E1E" d="M135.43,46.452c-0.213,0-0.511-0.021-0.896-0.063c-0.384-0.041-0.724-0.118-1.019-0.231l0.393-2.432
			c0.36,0.115,0.794,0.172,1.301,0.172c0.687,0,1.17-0.201,1.448-0.602c0.278-0.401,0.417-1.003,0.417-1.805V29.047h2.97v12.495
			c0,1.669-0.397,2.904-1.191,3.707C138.06,46.05,136.918,46.452,135.43,46.452z M140.364,25.292c0,0.555-0.18,0.998-0.54,1.325
			c-0.36,0.327-0.786,0.49-1.276,0.49c-0.508,0-0.942-0.163-1.301-0.49c-0.36-0.327-0.54-0.771-0.54-1.325
			c0-0.573,0.18-1.023,0.54-1.352c0.359-0.327,0.793-0.49,1.301-0.49c0.491,0,0.916,0.163,1.276,0.49
			C140.184,24.269,140.364,24.719,140.364,25.292z"/>
		<path fill="#1E1E1E" d="M146.894,39.456c0.786,0,1.358-0.095,1.718-0.281c0.36-0.188,0.54-0.512,0.54-0.971
			c0-0.427-0.192-0.777-0.577-1.057c-0.385-0.277-1.019-0.58-1.902-0.906c-0.54-0.197-1.036-0.406-1.485-0.628
			c-0.45-0.221-0.839-0.479-1.166-0.772c-0.328-0.294-0.586-0.65-0.774-1.067s-0.282-0.928-0.282-1.535
			c0-1.178,0.434-2.106,1.301-2.785c0.867-0.68,2.045-1.02,3.535-1.02c0.752,0,1.473,0.07,2.16,0.209
			c0.688,0.139,1.203,0.274,1.547,0.405l-0.54,2.405c-0.328-0.146-0.745-0.282-1.252-0.404c-0.508-0.123-1.097-0.185-1.768-0.185
			c-0.605,0-1.097,0.103-1.473,0.307c-0.376,0.206-0.564,0.52-0.564,0.946c0,0.211,0.037,0.398,0.11,0.563
			c0.074,0.165,0.201,0.315,0.381,0.454c0.18,0.139,0.417,0.278,0.712,0.418c0.294,0.139,0.654,0.282,1.08,0.429
			c0.703,0.263,1.301,0.521,1.792,0.773c0.491,0.254,0.896,0.54,1.215,0.858c0.319,0.318,0.552,0.685,0.7,1.094
			c0.146,0.408,0.222,0.898,0.222,1.473c0,1.228-0.455,2.157-1.364,2.787c-0.908,0.629-2.206,0.944-3.891,0.944
			c-1.129,0-2.038-0.095-2.726-0.283c-0.687-0.188-1.169-0.338-1.448-0.453l0.516-2.48c0.442,0.183,0.97,0.354,1.583,0.518
			C145.408,39.375,146.108,39.456,146.894,39.456z"/>
		<path fill="#1E1E1E" d="M157.717,34.055c0.378-0.393,0.777-0.813,1.203-1.265c0.427-0.45,0.845-0.9,1.252-1.351
			c0.41-0.45,0.8-0.885,1.166-1.302c0.369-0.417,0.685-0.781,0.945-1.092h3.512c-0.819,0.917-1.683,1.865-2.59,2.847
			c-0.91,0.982-1.822,1.94-2.737,2.872c0.491,0.41,1.006,0.906,1.547,1.486c0.539,0.581,1.063,1.199,1.569,1.854
			c0.509,0.654,0.982,1.31,1.424,1.965c0.443,0.653,0.812,1.26,1.105,1.814h-3.438c-0.295-0.506-0.635-1.038-1.02-1.595
			c-0.386-0.557-0.798-1.098-1.238-1.62c-0.441-0.523-0.894-1.021-1.352-1.484c-0.458-0.468-0.908-0.864-1.352-1.19v5.891h-2.969
			V25.365l2.969-0.489v9.18H157.717z"/>
		<path fill="#1E1E1E" d="M172.398,28.482c0.981,0,1.81,0.123,2.479,0.368c0.67,0.246,1.207,0.589,1.607,1.031
			s0.688,0.978,0.859,1.607s0.258,1.322,0.258,2.074v7.782c-0.459,0.098-1.15,0.217-2.074,0.355
			c-0.926,0.139-1.969,0.209-3.131,0.209c-0.77,0-1.473-0.074-2.111-0.222c-0.639-0.146-1.182-0.385-1.632-0.713
			c-0.45-0.326-0.802-0.752-1.056-1.274c-0.254-0.523-0.381-1.171-0.381-1.939c0-0.736,0.144-1.359,0.43-1.866
			c0.287-0.507,0.676-0.921,1.166-1.239c0.491-0.318,1.061-0.548,1.707-0.687s1.32-0.209,2.025-0.209
			c0.326,0,0.67,0.021,1.029,0.062c0.36,0.042,0.745,0.11,1.153,0.208V33.54c0-0.345-0.041-0.672-0.122-0.982
			c-0.083-0.311-0.227-0.585-0.43-0.822c-0.205-0.236-0.477-0.421-0.811-0.553c-0.336-0.13-0.758-0.196-1.266-0.196
			c-0.688,0-1.316,0.05-1.891,0.148c-0.572,0.098-1.039,0.213-1.398,0.343l-0.367-2.405c0.375-0.131,0.924-0.262,1.645-0.393
			C170.81,28.549,171.581,28.482,172.398,28.482z M172.644,39.553c0.916,0,1.61-0.049,2.086-0.146v-3.288
			c-0.163-0.051-0.399-0.101-0.711-0.148c-0.312-0.049-0.655-0.073-1.031-0.073c-0.327,0-0.659,0.024-0.993,0.073
			c-0.336,0.049-0.64,0.14-0.91,0.271c-0.271,0.131-0.485,0.313-0.648,0.551c-0.164,0.237-0.246,0.537-0.246,0.896
			c0,0.704,0.221,1.19,0.663,1.461C171.293,39.418,171.891,39.553,172.644,39.553z"/>
	</g>
</g>
</svg>
