<?xml version="1.0" encoding="utf-8"?>
<!-- Generator: Adobe Illustrator 16.0.0, SVG Export Plug-In . SVG Version: 6.00 Build 0)  -->
<!DOCTYPE svg PUBLIC "-//W3C//DTD SVG 1.1//EN" "http://www.w3.org/Graphics/SVG/1.1/DTD/svg11.dtd">
<svg version="1.1" id="Layer_1" xmlns="http://www.w3.org/2000/svg" xmlns:xlink="http://www.w3.org/1999/xlink" x="0px" y="0px"
	 width="145px" height="100px" viewBox="0 0 145 100" enable-background="new 0 0 145 100" xml:space="preserve">
<g id="Layer_7">
	<polygon fill="#DADAFF" points="68.249,84.088 105.758,86.479 110.083,18.616 84.529,16.983 103.232,71.383 	"/>
</g>
<g id="Layer_6">
	<polyline fill="none" stroke="#5E60FF" stroke-width="2.1168" stroke-miterlimit="10" points="80.658,13.378 106.21,15.011 
		101.887,82.872 64.376,80.482 	"/>
	
		<line fill="none" stroke="#5E60FF" stroke-width="2.1168" stroke-miterlimit="10" x1="98.428" y1="22.905" x2="83.609" y2="21.961"/>
	
		<line fill="none" stroke="#5E60FF" stroke-width="2.1168" stroke-miterlimit="10" x1="97.918" y1="30.89" x2="86.996" y2="30.193"/>
	
		<line fill="none" stroke="#5E60FF" stroke-width="2.1168" stroke-miterlimit="10" x1="89.292" y1="38.491" x2="97.41" y2="38.872"/>
	<polyline fill="none" stroke="#5E60FF" stroke-width="2" stroke-miterlimit="10" points="42.584,41.043 46.828,32.839 53.9,44.295 
		56.162,29.869 61.253,35.103 64.505,23.787 74.689,34.253 74.971,13.604 	"/>
	<polygon fill="none" stroke="#5E60FF" stroke-width="2.1168" stroke-miterlimit="10" points="99.632,68.572 50.457,85.479 
		28.351,21.171 77.527,4.267 80.658,13.378 	"/>
	
		<line fill="none" stroke="#5E60FF" stroke-width="2.1168" stroke-miterlimit="10" x1="82.964" y1="44.694" x2="48.919" y2="56.396"/>
	
		<line fill="none" stroke="#5E60FF" stroke-width="2.1168" stroke-miterlimit="10" x1="85.564" y1="52.26" x2="51.521" y2="63.963"/>
	
		<line fill="none" stroke="#5E60FF" stroke-width="2.1168" stroke-miterlimit="10" x1="73.035" y1="65.027" x2="54.121" y2="71.527"/>
	
		<line fill="none" stroke="#5E60FF" stroke-width="2.1168" stroke-miterlimit="10" x1="76.818" y1="63.727" x2="88.166" y2="59.825"/>
</g>
</svg>
