<?xml version="1.0" encoding="utf-8"?>
<!-- Generator: Adobe Illustrator 16.0.0, SVG Export Plug-In . SVG Version: 6.00 Build 0)  -->
<!DOCTYPE svg PUBLIC "-//W3C//DTD SVG 1.1//EN" "http://www.w3.org/Graphics/SVG/1.1/DTD/svg11.dtd">
<svg version="1.1" id="Layer_1" xmlns="http://www.w3.org/2000/svg" xmlns:xlink="http://www.w3.org/1999/xlink" x="0px" y="0px"
	 width="145px" height="100px" viewBox="0 0 145 100" enable-background="new 0 0 145 100" xml:space="preserve">
<g id="Layer_7">
	<polygon fill="#DADAFF" points="67.249,87.088 104.758,89.479 109.083,21.616 83.529,19.983 102.232,74.383 	"/>
</g>
<g id="Layer_6">
	<polyline fill="none" stroke="#5E60FF" stroke-width="2.1168" stroke-miterlimit="10" points="80.658,17.378 106.21,19.011 
		101.887,86.872 64.376,84.482 	"/>
	
		<line fill="none" stroke="#5E60FF" stroke-width="2.1168" stroke-miterlimit="10" x1="98.428" y1="26.905" x2="83.609" y2="25.961"/>
	
		<line fill="none" stroke="#5E60FF" stroke-width="2.1168" stroke-miterlimit="10" x1="97.918" y1="34.89" x2="86.996" y2="34.193"/>
	
		<line fill="none" stroke="#5E60FF" stroke-width="2.1168" stroke-miterlimit="10" x1="89.292" y1="42.491" x2="97.41" y2="42.872"/>
	<polyline fill="none" stroke="#5E60FF" stroke-width="2" stroke-miterlimit="10" points="42.584,45.043 46.828,36.839 53.9,48.295 
		56.162,33.869 61.253,39.103 64.505,27.787 74.689,38.253 74.971,17.604 	"/>
	<polygon fill="none" stroke="#5E60FF" stroke-width="2.1168" stroke-miterlimit="10" points="99.632,72.572 50.457,89.479 
		28.351,25.171 77.527,8.267 80.658,17.378 	"/>
	
		<line fill="none" stroke="#5E60FF" stroke-width="2.1168" stroke-miterlimit="10" x1="82.964" y1="48.694" x2="48.919" y2="60.396"/>
	
		<line fill="none" stroke="#5E60FF" stroke-width="2.1168" stroke-miterlimit="10" x1="85.564" y1="56.26" x2="51.521" y2="67.963"/>
	
		<line fill="none" stroke="#5E60FF" stroke-width="2.1168" stroke-miterlimit="10" x1="73.035" y1="69.027" x2="54.121" y2="75.527"/>
	
		<line fill="none" stroke="#5E60FF" stroke-width="2.1168" stroke-miterlimit="10" x1="76.818" y1="67.727" x2="88.166" y2="63.825"/>
</g>
</svg>
