<?xml version="1.0" encoding="utf-8"?>
<!-- Generator: Adobe Illustrator 16.0.0, SVG Export Plug-In . SVG Version: 6.00 Build 0)  -->
<!DOCTYPE svg PUBLIC "-//W3C//DTD SVG 1.1//EN" "http://www.w3.org/Graphics/SVG/1.1/DTD/svg11.dtd">
<svg version="1.1" id="Layer_1" xmlns="http://www.w3.org/2000/svg" xmlns:xlink="http://www.w3.org/1999/xlink" x="0px" y="0px"
	 width="145px" height="100px" viewBox="0 0 145 100" enable-background="new 0 0 145 100" xml:space="preserve">
<g id="Layer_17">
	<g>
		<polygon fill="#DADAFF" points="42.73,79.833 62.73,23.833 86.73,23.833 106.73,79.833 		"/>
		<line fill="none" x1="74.73" y1="23.833" x2="74.73" y2="83.833"/>
		<g>
			<polygon fill="#DADAFF" points="98.73,23.833 94.73,31.833 102.73,31.833 			"/>
		</g>
		<g>
			<polygon fill="#DADAFF" points="50.73,23.833 46.73,31.833 54.73,31.833 			"/>
		</g>
		<g>
			<polygon fill="#DADAFF" points="38.73,39.833 30.73,55.833 46.73,55.833 			"/>
		</g>
		<g>
			<polygon fill="#DADAFF" points="110.73,39.833 102.73,55.833 118.73,55.833 			"/>
		</g>
	</g>
</g>
<g id="Layer_16">
	<line fill="none" stroke="#5E60FF" stroke-width="2" stroke-miterlimit="10" x1="60.5" y1="20.833" x2="40.5" y2="76.833"/>
	<line fill="none" stroke="#5E60FF" stroke-width="2" stroke-miterlimit="10" x1="84.5" y1="20.833" x2="104.5" y2="76.833"/>
	<g>
		<line fill="none" x1="72.5" y1="20.833" x2="72.5" y2="80.833"/>
		<g>
			<line fill="none" stroke="#5E60FF" stroke-width="2" stroke-miterlimit="10" x1="72.5" y1="20.833" x2="72.5" y2="23.833"/>
			
				<line fill="none" stroke="#5E60FF" stroke-width="2" stroke-miterlimit="10" stroke-dasharray="6,6" x1="72.5" y1="29.833" x2="72.5" y2="74.833"/>
			<line fill="none" stroke="#5E60FF" stroke-width="2" stroke-miterlimit="10" x1="72.5" y1="77.833" x2="72.5" y2="80.833"/>
		</g>
	</g>
	<g>
		<polygon fill="none" stroke="#5E60FF" stroke-width="2" stroke-miterlimit="10" points="96.5,20.833 92.5,28.833 100.5,28.833 		
			"/>
		<line fill="none" stroke="#5E60FF" stroke-width="2" stroke-miterlimit="10" x1="96.5" y1="28.833" x2="96.5" y2="36.833"/>
	</g>
	<g>
		<polygon fill="none" stroke="#5E60FF" stroke-width="2" stroke-miterlimit="10" points="48.5,20.833 44.5,28.833 52.5,28.833 		
			"/>
		<line fill="none" stroke="#5E60FF" stroke-width="2" stroke-miterlimit="10" x1="48.5" y1="28.833" x2="48.5" y2="36.833"/>
	</g>
	<g>
		<polygon fill="none" stroke="#5E60FF" stroke-width="2" stroke-miterlimit="10" points="36.5,36.833 28.5,52.833 44.5,52.833 		
			"/>
		<line fill="none" stroke="#5E60FF" stroke-width="2" stroke-miterlimit="10" x1="36.5" y1="52.833" x2="36.5" y2="64.833"/>
	</g>
	<g>
		<polygon fill="none" stroke="#5E60FF" stroke-width="2" stroke-miterlimit="10" points="108.5,36.833 100.5,52.833 116.5,52.833 
					"/>
		<line fill="none" stroke="#5E60FF" stroke-width="2" stroke-miterlimit="10" x1="108.5" y1="52.833" x2="108.5" y2="64.833"/>
	</g>
</g>
</svg>
