<?xml version="1.0" encoding="utf-8"?>
<!-- Generator: Adobe Illustrator 16.0.0, SVG Export Plug-In . SVG Version: 6.00 Build 0)  -->
<!DOCTYPE svg PUBLIC "-//W3C//DTD SVG 1.1//EN" "http://www.w3.org/Graphics/SVG/1.1/DTD/svg11.dtd">
<svg version="1.1" id="Layer_1" xmlns="http://www.w3.org/2000/svg" xmlns:xlink="http://www.w3.org/1999/xlink" x="0px" y="0px"
	 width="145px" height="100px" viewBox="0 0 145 100" enable-background="new 0 0 145 100" xml:space="preserve">
<g id="Layer_3">
	<g>
		<polygon fill="#DADAFF" points="89.82,23.85 81.82,36.095 85.654,36.095 77.82,50.925 101.82,50.925 93.82,36.095 97.82,36.095 		
			"/>
		<g>
			<circle fill="#DADAFF" cx="62.821" cy="52.425" r="9.833"/>
		</g>
	</g>
</g>
<g id="Layer_2">
	<path fill="none" stroke="#5E60FF" stroke-width="2" stroke-miterlimit="10" d="M22.349,32.57c3.161-5.18,8.866-8.639,15.378-8.639
		c6.732,0,12.602,3.696,15.688,9.17"/>
	<path fill="none" stroke="#5E60FF" stroke-width="2" stroke-miterlimit="10" d="M50.029,28.517c2.974-5.845,9.047-9.85,16.054-9.85
		c6.677,0,12.504,3.635,15.61,9.034"/>
	<path fill="none" stroke="#5E60FF" stroke-width="2" stroke-miterlimit="10" d="M95.418,40.517c2.975-5.845,9.047-9.85,16.055-9.85
		c6.676,0,12.504,3.635,15.61,9.034"/>
	<polygon fill="none" stroke="#5E60FF" stroke-width="2" stroke-linecap="round" stroke-miterlimit="10" points="87.083,19.592 
		79.083,31.837 82.916,31.837 75.083,46.667 99.083,46.667 91.083,31.837 95.083,31.837 	"/>
	<line fill="none" stroke="#5E60FF" stroke-width="2" stroke-miterlimit="10" x1="87.083" y1="46.667" x2="87.083" y2="54.667"/>
	<polyline fill="none" stroke="#5E60FF" stroke-width="2" stroke-miterlimit="10" points="110.25,50.667 114.25,54.667 
		118.25,50.667 	"/>
	<polyline fill="none" stroke="#5E60FF" stroke-width="2" stroke-miterlimit="10" points="73.029,66.667 77.029,70.667 
		81.029,66.667 	"/>
	<polyline fill="none" stroke="#5E60FF" stroke-width="2" stroke-miterlimit="10" points="99.557,66.667 103.557,70.667 
		107.557,66.667 	"/>
	<polyline fill="none" stroke="#5E60FF" stroke-width="2" stroke-miterlimit="10" points="56.083,81 60.083,85 64.083,81 	"/>
	<polyline fill="none" stroke="#5E60FF" stroke-width="2" stroke-miterlimit="10" points="26.083,50.667 30.083,54.667 
		34.083,50.667 	"/>
	<polyline fill="none" stroke="#5E60FF" stroke-width="2" stroke-miterlimit="10" points="40.083,66.667 44.083,70.667 
		48.083,66.667 	"/>
	<g>
		<line fill="none" stroke="#5E60FF" stroke-width="2" stroke-miterlimit="10" x1="60.083" y1="58.001" x2="59.917" y2="69.334"/>
		<circle fill="none" stroke="#5E60FF" stroke-width="2" stroke-miterlimit="10" cx="60.083" cy="48.167" r="9.833"/>
	</g>
</g>
</svg>
